SplineFontDB: 3.0
FontName: PomorskyUnicode
FullName: Pomorsky Unicode
FamilyName: Pomorsky Unicode
Weight: Medium
Copyright: Copyright 2015-2019 Aleksandr Andreev and Nikita Simmons.
Version: 1.1
ItalicAngle: 0
UnderlinePosition: -113
UnderlineWidth: 20
Ascent: 800
Descent: 200
InvalidEm: 0
sfntRevision: 0x00010000
LayerCount: 2
Layer: 0 0 "Back" 1
Layer: 1 0 "Fore" 0
XUID: [1021 275 2047955494 4269330]
UniqueID: 4247862
FSType: 0
OS2Version: 2
OS2_WeightWidthSlopeOnly: 0
OS2_UseTypoMetrics: 1
CreationTime: 1304750996
ModificationTime: 1559474082
PfmFamily: 17
TTFWeight: 500
TTFWidth: 5
LineGap: 25
VLineGap: 0
Panose: 4 0 6 6 6 0 0 2 0 4
OS2TypoAscent: -90
OS2TypoAOffset: 1
OS2TypoDescent: -90
OS2TypoDOffset: 1
OS2TypoLinegap: 25
OS2WinAscent: -90
OS2WinAOffset: 1
OS2WinDescent: -90
OS2WinDOffset: 1
HheadAscent: -90
HheadAOffset: 1
HheadDescent: -90
HheadDOffset: 1
OS2SubXSize: 700
OS2SubYSize: 650
OS2SubXOff: 0
OS2SubYOff: 140
OS2SupXSize: 700
OS2SupYSize: 650
OS2SupXOff: 0
OS2SupYOff: 477
OS2StrikeYSize: 50
OS2StrikeYPos: 250
OS2Vendor: 'pyrs'
OS2CodePages: 00000001.00000000
OS2UnicodeRanges: 00000001.00000000.00000000.00000000
Lookup: 4 0 0 "'ccmp' Canonical Compositions" { "'ccmp' Canonical Compositions-1"  } ['ccmp' ('DFLT' <'dflt' > 'cyrl' <'dflt' > 'latn' <'dflt' > ) ]
Lookup: 4 0 0 "'ccmp' Precomposed Glyphs for Cyrillic" { "'ccmp' Precomposed Glyphs for Cyrillic-1"  } ['ccmp' ('DFLT' <'dflt' > 'cyrl' <'dflt' > 'latn' <'dflt' > ) ]
Lookup: 1 0 0 "'ss01' Style Set Simple Forms" { "'ss01' Style Set Simple Forms-1" ("simple") } ['ss01' ('DFLT' <'dflt' > 'cyrl' <'dflt' > 'latn' <'dflt' > ) ]
Lookup: 3 0 0 "'salt' Stylistic Alternatives lookup 1" { "'salt' Stylistic Alternatives lookup 1-1"  } ['salt' ('DFLT' <'dflt' > 'cyrl' <'dflt' > 'latn' <'dflt' > ) ]
Lookup: 258 8 0 "'kern' Horizontal Kerning lookup 2" { "'kern' Horizontal Kerning lookup 2-1" [150,0,2] } ['kern' ('DFLT' <'dflt' > 'cyrl' <'dflt' > 'latn' <'dflt' > ) ]

StartChar: .notdef
Encoding: 1114112 -1 0
Width: 427
Flags: W
HStem: 0 19<29 398> 748 22<29 398>
VStem: 0 22<34 733> 405 22<34 733>
DStem2: 29 748 22 733 0.465951 -0.884811<10.0105 395.419 421.078 806.952> 22 34 29 19 0.465951 0.884811<0 385.408 411.068 796.942>
LayerCount: 2
Fore
SplineSet
0 770 m 1
 427 770 l 1
 427 0 l 1
 0 0 l 1
 0 770 l 1
29 748 m 1
 213 398 l 1
 398 748 l 1
 29 748 l 1
398 19 m 1
 213 369 l 1
 29 19 l 1
 398 19 l 1
221 383 m 1
 405 34 l 1
 405 733 l 1
 221 383 l 1
22 733 m 1
 22 34 l 1
 206 383 l 1
 22 733 l 1
EndSplineSet
Validated: 1
Colour: ff00
EndChar

StartChar: comma
Encoding: 44 44 1
Width: 250
Flags: W
HStem: 0 6<150 166.066 186 201> 72 13<123.737 167.238>
VStem: 175.5 26.5<13.8125 64.7808>
LayerCount: 2
Fore
SplineSet
49 4 m 1
 48 5 48 6 48 8 c 0
 48 27 98 85 159 85 c 0
 192 85 202 70 202 53 c 0
 202 31 186 6 186 6 c 1
 201 6 l 1
 201 0 l 1
 150 0 l 1
 150 6 l 1
 165 6 l 1
 165 6 176 27 176 45 c 0
 176 59 169 72 147 72 c 0
 100 72 49 4 49 4 c 1
EndSplineSet
Validated: 1
Colour: ff00
EndChar

StartChar: hyphen
Encoding: 45 45 2
Width: 400
Flags: W
HStem: 224 16<68.3378 136.617> 230 46<314.027 353.875> 281 47<41.1406 80.8848> 316 16<258.365 326.051>
VStem: 22 19<262.031 285.812> 354 20<271.309 285>
LayerCount: 2
Fore
SplineSet
286 332 m 0x9c
 329 332 373 306 373 270 c 0
 373 245 357 230 340 230 c 0
 326 230 314 238 314 252 c 0
 314 270 326 277 333 277 c 0
 344 277 354 270 354 270 c 1
 354 271 354 273 354 274 c 0
 354 297 319 316 290 316 c 0x5c
 282 316 275 314 269 312 c 0
 208 289 171 224 109 224 c 0
 66 224 22 250 22 287 c 0
 22 312 38 327 55 327 c 0
 69 327 81 318 81 305 c 0
 81 286 69 279 61 279 c 0xac
 51 279 41 286 41 286 c 1
 41 285 41 283 41 282 c 0
 41 259 76 240 105 240 c 0
 113 240 120 242 126 244 c 0
 183 265 223 332 286 332 c 0x9c
EndSplineSet
Validated: 1
Colour: ff00
EndChar

StartChar: period
Encoding: 46 46 3
Width: 250
Flags: W
HStem: 0 85<94.8918 154.593>
VStem: 82 86<12.8918 79.0918>
LayerCount: 2
Fore
SplineSet
82 42 m 0
 82 66 103 85 125 85 c 0
 149 85 168 64 168 42 c 0
 168 18 147 0 125 0 c 0
 101 0 82 20 82 42 c 0
EndSplineSet
Validated: 1
Colour: ff00
EndChar

StartChar: colon
Encoding: 58 58 4
Width: 250
Flags: W
HStem: 0 85<94.8918 154.593> 161 86<87.9082 162.092>
VStem: 82 86<12.8918 79.0918 166.908 241.092>
LayerCount: 2
Fore
SplineSet
82 204 m 0
 82 228 103 247 125 247 c 0
 149 247 168 226 168 204 c 0
 168 180 147 161 125 161 c 0
 101 161 82 182 82 204 c 0
82 42 m 0
 82 66 103 85 125 85 c 0
 149 85 168 64 168 42 c 0
 168 18 147 -1 125 -1 c 0
 101 -1 82 20 82 42 c 0
EndSplineSet
Validated: 1
Colour: ff00
EndChar

StartChar: semicolon
Encoding: 59 59 5
Width: 250
Flags: W
HStem: 0 6<150 166.332 186 201> 72 13<122.215 167.898> 161 86<97.9082 171.82>
VStem: 92 86<166.908 240.82> 176 26<11.9321 68.6392>
LayerCount: 2
Fore
SplineSet
49 4 m 1xe8
 48 5 48 6 48 8 c 0
 48 27 98 85 159 85 c 0
 192 85 202 70 202 53 c 0
 202 31 186 6 186 6 c 1
 201 6 l 1
 201 0 l 1
 150 0 l 1
 150 6 l 1
 165 6 l 1
 165 6 176 27 176 45 c 0
 176 59 169 72 147 72 c 0
 100 72 49 4 49 4 c 1xe8
136 247 m 0
 159 247 178 225 178 204 c 0
 178 180 157 161 135 161 c 0
 111 161 92 182 92 204 c 0xf0
 92 228 114 247 136 247 c 0
EndSplineSet
Validated: 1
Colour: ff00
EndChar

StartChar: question
Encoding: 63 63 6
Width: 250
Flags: W
HStem: 0 85<93.3477 156.652> 162 21<104.493 132> 528 20<116.206 142.747>
VStem: 63 19<215.406 287.161> 70 54<483.65 527.75> 82 86<13.923 70.5615> 123 56<183.281 217.688> 165 19<420.61 497.773>
LayerCount: 2
Fore
SplineSet
115 548 m 0xe9
 155 548 184 501 184 454 c 0xe9
 184 384 109 340 86 276 c 0
 84 270 83 262 83 255 c 0
 83 222 103 183 128 183 c 0
 130 183 131 183 132 183 c 1
 132 183 124 194 124 205 c 0
 124 214 132 227 153 227 c 0
 169 227 178 213 178 199 c 0
 178 180 160 163 132 163 c 0
 93 163 63 210 63 257 c 0xf2
 63 325 135 366 162 435 c 0
 164 441 165 449 165 456 c 0
 165 489 145 528 120 528 c 0
 118 528 117 528 116 528 c 1
 116 528 124 517 124 505 c 0
 124 496 116 484 96 484 c 0
 80 484 71 497 71 512 c 0
 71 531 88 548 115 548 c 0xe9
168 42 m 0xe4
 168 18 147 0 125 0 c 0
 101 0 82 20 82 42 c 0
 82 66 103 85 125 85 c 0
 149 85 168 64 168 42 c 0xe4
EndSplineSet
Validated: 1
Colour: ff00
EndChar

StartChar: uni0470
Encoding: 1136 1136 9
Width: 580
Flags: W
HStem: -192 13<143.031 194.387> -152.5 45.5<131.529 168.81> 0 12<100 126 202 238 255 319 343 378> 425 3<464.124 467.841> 461 49<521.25 556.626> 538 12<0 26 102 128 480.62 540.365> 599 45.5<354.19 391.471> 671 11<327.809 377.983>
VStem: 117 52<-152.241 -107.609> 238 64<109.511 406.722> 238 35<-77.1016 -57.4355 -56.5342 -40.3203 332.937 502.562> 238 17<-135.735 -71.375 -43.418 0 12 93 502 588.344> 354 52<599.594 644.358> 558 12<502 522.344>
DStem2: 102 538 26 538 0.186769 -0.982404<0 521.227> 319 12 343 12 0.161364 0.986895<3.87274 24.0947 383.659 480.233>
AnchorPoint: "Yerok" 512.5 584.6 basechar 0
AnchorPoint: "Diacritic" 266 698 basechar 0
LayerCount: 2
Fore
SplineSet
225 -58 m 0xff34
 225 -49 230 -42 238 -39 c 1
 238 0 l 1
 100 0 l 1
 100 12 l 1
 126 12 l 1
 26 538 l 1
 0 538 l 1
 0 550 l 1
 128 550 l 1
 128 538 l 1
 102 538 l 1
 202 12 l 1
 238 12 l 1
 238 545 l 2
 238 645 309 676 338 681 c 0
 343 682 349 682 354 682 c 0
 384 682 406 665 406 637 c 0
 406 612 392 599 378 599 c 0
 365 599 353 608 353 621 c 0
 353 640 366 646 375 646 c 0
 384 646 392 642 392 642 c 1
 392 665 366 671 353 671 c 0
 350 671 348 671 347 671 c 0
 294 662 255 628 255 502 c 1xff34
 256 502 258 523 273 536 c 0
 283 545 300 552 311 552 c 0
 314 552 316 551 318 550 c 0
 318 549 273 533 273 475 c 0xff50
 273 427 302 290 302 192 c 0xff90
 302 174 301 158 299 143 c 0
 292 97 268 93 259 93 c 2
 255 93 l 1
 255 12 l 1
 319 12 l 1
 388 434 l 2
 404 532 481 550 510 550 c 0
 546 550 570 532 570 504 c 0
 570 499 569 493 567 487 c 0
 561 469 550 462 540 462 c 0
 526 462 514 473 514 485 c 0xff38
 514 502 528 510 536 510 c 0
 547 510 557 502 557 502 c 1
 557 504 557 506 557 507 c 0
 557 530 527 539 518 539 c 0
 464 539 397 500 397 388 c 1
 398 388 404 409 421 419 c 0
 431 425 445 428 455 428 c 0
 459 428 468 427 468 425 c 0
 468 424 429 421 412 366 c 0
 407 351 407 323 407 289 c 0
 407 281 407 273 407 265 c 0
 407 204 406 131 387 76 c 0
 373 37 358 31 350 31 c 0
 348 31 346 32 346 32 c 1
 343 12 l 1
 378 12 l 1
 378 0 l 1
 255 0 l 1
 255 -40 l 1
 261 -43 266 -52 266 -59 c 0
 266 -68 261 -75 254 -78 c 1
 254 -161 228 -176 185 -189 c 0
 178 -191 172 -192 165 -192 c 0
 137 -192 117 -172 117 -145 c 0
 117 -120 131 -107 145 -107 c 0
 158 -107 170 -116 170 -129 c 0
 170 -148 157 -154 148 -154 c 0
 139 -154 131 -150 131 -150 c 1
 131 -173 157 -179 170 -179 c 0
 173 -179 175 -179 176 -179 c 0
 217 -169 237 -150 237 -77 c 1
 230 -74 225 -67 225 -58 c 0xff34
EndSplineSet
Validated: 1
Substitution2: "'ss01' Style Set Simple Forms-1" uni0470.simple
Colour: ff00
EndChar

StartChar: uni0405.simple
Encoding: 62725 62725 10
Width: 480
GlyphClass: 2
Flags: W
HStem: -90 18<17.4178 38> -8 14<262.406 326.316> 57 27<98.8759 181> 427 12<342 368 444 470> 529 21<205.333 316.825>
VStem: -6 14<-59.88 -12.5> 36 43<-71.812 -42.0046> 75 63<325.957 477.451> 368 76<439 499.893> 394 71<59.8657 210.234>
DStem2: 36 -3 40 -21 0.20601 0.97855<-16.5703 19.1503>
AnchorPoint: "Yerok" 415 572 basechar 0
AnchorPoint: "Diacritic" 259 575 basechar 0
LayerCount: 2
Fore
SplineSet
288 6 m 0xfe40
 359 6 394 70 394 131 c 0xfe40
 394 188 365 244 308 252 c 0
 244 261 233 250 164 277 c 0
 111 298 75 327 75 402 c 0
 75 409 75 419 76 427 c 0
 84 519 177 550 257 550 c 0
 423 550 444 481 444 439 c 1
 470 439 l 1
 470 427 l 1
 342 427 l 1
 342 439 l 1
 368 439 l 1
 368 499 329 529 257 529 c 0
 177 529 138 465 138 402 c 0xfd80
 138 373 146 343 163 322 c 0
 207 266 268 287 340 270 c 0
 403 255 465 218 465 141 c 0
 465 24 365 -8 288 -8 c 0
 245 -8 208 1 194 9 c 0
 153 32 147 57 124 57 c 0
 113 57 99 52 76 39 c 0
 50 25 40 -21 40 -21 c 1
 40 -21 36 -13 36 -3 c 0
 36 4 40 16 40 16 c 1
 40 16 23 2 14 -14 c 0
 10 -20 8 -28 8 -36 c 0
 8 -54 18 -72 38 -72 c 1
 38 -72 36 -67 36 -61 c 0
 36 -52 40 -42 58 -42 c 0
 71 -42 79 -48 79 -61 c 0
 79 -74 66 -90 43 -90 c 0
 17 -90 -6 -69 -6 -40 c 0
 -6 9 38 40 70 57 c 0
 100 73 128 84 155 84 c 0
 188 84 220 67 256 19 c 0
 264 9 275 6 288 6 c 0xfe40
EndSplineSet
Validated: 1
Colour: ff00
EndChar

StartChar: uni047E
Encoding: 1150 1150 11
Width: 900
Flags: W
HStem: -129 52<415 467> -46 12<310.092 349.71 532.896 577.987> 0 14<213.512 275 608.042 673.726> 190 55<370.252 414.81 469.099 521.295> 207 6<656.006 667.754> 321 13<289.002 301.998 580.002 592.998> 335 13<305.002 317.998 564.002 576.998> 355 13<305.002 317.998 564.002 576.998> 380 22<278.5 309.272 574.728 605.5> 392 74<248.313 296.875 588.743 635.687> 535 15<222.137 296.278 587.599 661.505> 575 112<404 481> 675 12<321.536 404 481 554.464>
VStem: 4 88<155.053 393.768> 210 17<394.907 411.885> 240 18<279.369 310.812> 263 12<243.958 308.254> 271 23<-21.4688 0 604.754 654.35> 289 13<321.002 333.998> 305 13<335.002 347.998 355.002 367.998> 329 46<410.762 520.142> 404 77<575 675> 435 13<-128.995 -75.844> 441 4<314.769 402> 509 46<410.762 520.142> 564 13<335.002 347.998 355.002 367.998> 580 13<321.002 333.998> 582 22<603.521 654.366> 595 13<-13.5645 0> 609 12<242.849 308.397> 627 17<280.878 310.75> 647 27<370.082 391> 792 88<155.053 393.768>
DStem2: 361 31 351 25 0.749838 -0.661622<0 41.8145> 415 100 409 88 0.556175 -0.831065<6.63574 46.041> 433 50 441 39 0.558338 0.829613<-59.7702 -4.65904 14.4221 15.3449> 488 3 498 -5 0.759257 0.650791<2.38624 45.4469>
AnchorPoint: "Yerok" 826.5 574.4 basechar 0
AnchorPoint: "Diacritic" 445 716 basechar 0
LayerCount: 2
Fore
SplineSet
299 595 m 0xff70e60c
 288 595 271 614 271 633 c 0
 271 645 277 652 277 652 c 1
 226 687 l 1
 650 687 l 1
 599 652 l 1
 599 652 604 645 604 633 c 0
 604 628 603 622 600 615 c 0
 594 601 583 595 577 595 c 0
 563 595 582 601 582 621 c 0
 582 653 567 675 521 675 c 2
 481 675 l 1xff71769c
 481 575 l 1
 404 575 l 1xffb1769c
 404 675 l 1
 355 675 l 2
 309 675 294 653 294 621 c 0xff71769c
 294 600 309 600 302 596 c 0
 301 596 300 595 299 595 c 0xff70e60c
591 346 m 0
 588 346 586 347 586 348 c 0
 586 356 628 362 647 391 c 0
 651 398 657 419 657 419 c 1
 657 419 674 411 674 393 c 0
 674 369 644 342 644 301 c 0xff30664c
 644 283 650 272 650 272 c 1
 650 272 637 275 632 284 c 0
 624 297 628 311 628 311 c 1
 628 311 621 295 621 274 c 0
 621 263 623 250 630 238 c 0
 642 216 669 213 669 208 c 0
 669 207 668 207 666 207 c 0
 656 207 624 216 615 243 c 0
 611 256 609 267 609 278 c 0xff30663c
 609 320 635 350 649 371 c 1
 657 380 658 387 658 387 c 1
 658 387 649 371 635 361 c 1
 616 350 598 346 591 346 c 0
298 348 m 0xff34660c
 298 347 296 346 293 346 c 0
 286 346 268 350 249 361 c 1
 235 371 226 387 226 387 c 1
 226 387 227 380 235 371 c 1
 249 350 275 320 275 278 c 0
 275 267 273 256 269 243 c 0
 260 216 228 207 218 207 c 0
 216 207 215 207 215 208 c 0
 215 213 242 216 254 238 c 0
 261 250 263 263 263 274 c 0
 263 295 256 311 256 311 c 1
 256 311 260 297 252 284 c 0
 247 275 234 272 234 272 c 1xff3a660c
 234 272 240 283 240 301 c 0
 240 342 210 369 210 393 c 0
 210 411 227 419 227 419 c 1
 227 419 233 398 237 391 c 0
 256 362 298 356 298 348 c 0xff34660c
351 25 m 1
 334 15 313 4 288 0 c 1
 295 -12 302 -34 322 -34 c 0
 345 -34 366 -22 385 -5 c 1
 351 25 l 1
646 426 m 0
 646 395 618 380 587 380 c 0
 546 380 509 408 509 448 c 0
 509 538 560 550 630 550 c 0
 782 550 880 426 880 274 c 0
 880 122 782 0 630 0 c 0
 622 0 615 -1 608 0 c 1
 608 -16 590 -46 564 -46 c 0
 537 -46 512 -33 489 -14 c 1
 468 -37 448 -67 448 -109 c 0
 448 -114 447 -129 442 -129 c 0
 437 -129 435 -115 435 -109 c 0
 435 -67 415 -36 394 -14 c 1
 372 -33 346 -46 319 -46 c 0
 293 -46 275 -15 275 0 c 1xff3aee9c
 268 0 261 0 254 0 c 0
 102 0 4 122 4 274 c 0
 4 426 102 550 254 550 c 0
 324 550 375 538 375 448 c 0
 375 408 338 380 297 380 c 0
 266 380 238 395 238 426 c 0
 238 449 254 466 271 466 c 0xff31660c
 289 466 303 456 303 438 c 0
 303 436 303 433 302 430 c 0
 297 402 278 402 278 402 c 1
 282 402 327 403 329 451 c 0
 329 453 329 456 329 458 c 0
 329 503 312 535 262 535 c 0
 173 535 92 420 92 274 c 0
 92 131 154 14 252 14 c 0
 401 14 415 143 431 191 c 1
 428 193 425 195 422 198 c 0
 418 202 417 206 415 210 c 1
 412 200 401 190 389 190 c 0
 374 190 362 203 362 218 c 0
 362 233 374 245 389 245 c 0
 404 245 411 235 416 224 c 1
 417 231 422 238 429 241 c 1
 441 402 l 1
 445 402 l 1
 458 240 l 1
 464 237 467 231 468 224 c 1
 470 235 483 244 495 244 c 0
 510 244 522 232 522 217 c 0
 522 202 510 190 495 190 c 0
 482 190 471 198 469 210 c 1
 468 203 461 195 453 192 c 1
 469 143 483 14 632 14 c 0
 730 14 792 131 792 274 c 0
 792 420 710 535 622 535 c 0
 572 535 555 503 555 458 c 0
 555 456 555 453 555 451 c 0
 557 403 602 402 606 402 c 1
 606 402 587 402 582 430 c 0xff38ee9c
 581 433 581 436 581 438 c 0
 581 456 595 466 613 466 c 0
 630 466 646 449 646 426 c 0
595 0 m 1
 571 5 550 15 533 25 c 1
 498 -5 l 1
 517 -22 539 -34 561 -34 c 0
 581 -34 588 -12 595 0 c 1
523 32 m 1
 500 50 487 68 474 91 c 1
 449 50 l 1
 460 34 473 18 488 3 c 1
 523 32 l 1
468 101 m 1
 453 133 446 167 442 188 c 1
 438 167 432 133 415 100 c 1
 441 62 l 1
 468 101 l 1
409 88 m 1
 397 65 385 48 361 31 c 1
 394 3 l 1
 409 18 423 35 433 50 c 1
 409 88 l 1
479 -6 m 1
 465 8 452 24 441 39 c 1
 431 23 418 7 403 -6 c 1
 419 -23 434 -47 441 -77 c 1
 448 -47 463 -23 479 -6 c 1
289 328 m 0
 289 331 292 334 296 334 c 0
 299 334 302 331 302 328 c 0
 302 324 299 321 296 321 c 0
 292 321 289 324 289 328 c 0
305 342 m 0
 305 345 308 348 312 348 c 0
 315 348 318 345 318 342 c 0
 318 338 315 335 312 335 c 0
 308 335 305 338 305 342 c 0
305 362 m 0
 305 365 308 368 312 368 c 0
 315 368 318 365 318 362 c 0
 318 358 315 355 312 355 c 0
 308 355 305 358 305 362 c 0
593 328 m 0xff30670c
 593 324 590 321 587 321 c 0
 583 321 580 324 580 328 c 0
 580 331 583 334 587 334 c 0
 590 334 593 331 593 328 c 0xff30670c
577 342 m 0
 577 338 574 335 571 335 c 0
 567 335 564 338 564 342 c 0
 564 345 567 348 571 348 c 0
 574 348 577 345 577 342 c 0
577 362 m 0
 577 358 574 355 571 355 c 0
 567 355 564 358 564 362 c 0
 564 365 567 368 571 368 c 0
 574 368 577 365 577 362 c 0
EndSplineSet
Validated: 1
Substitution2: "'ss01' Style Set Simple Forms-1" uni047E.simple
Colour: ff00
EndChar

StartChar: uni0472
Encoding: 1138 1138 12
Width: 525
Flags: W
HStem: -79 91<179 196.831 197 254> 0 12<110.977 175.848 317 330.492> 72 56<77.4369 123.201> 132 13<125.002 137.998> 152 13<125.002 137.998> 166 13<109.002 121.998> 269 13<29.9133 76.6485 446.115 495.747> 385 11<386.083 398.986> 405 11<386.083 398.986> 422 56<400.799 446.563> 538 12<263.9 327 348.152 413.023>
VStem: 1 12<210.82 252.055> 46 23<-90.1074 -23> 55 21<35.1177 79.7801> 96 14<196.159 249.71> 109 13<166.002 178.998> 123 76<268.648 472.569> 125 13<132.002 144.998 152.002 164.998> 176 31<85.6012 135.78> 215 35<54.7676 135.174> 274 35<414.728 495.232> 317 31<414.299 464.399> 325 76<74.3042 278.517> 357 23<-89.4839 -20.2906> 386 13<385.063 395.875 405.063 415.875> 405 10<373.156 384.089> 414 14<300.29 353.841> 448 21<470.22 514.938> 511 12<297.945 339.18>
AnchorPoint: "Yerok" 381 575.2 basechar 0
AnchorPoint: "Diacritic" 287 575 basechar 0
LayerCount: 2
Fore
SplineSet
125 139 m 0x3ff8160f
 125 142 128 145 132 145 c 0
 135 145 138 142 138 139 c 0
 138 135 135 132 132 132 c 0
 128 132 125 135 125 139 c 0x3ff8160f
125 159 m 0
 125 162 128 165 132 165 c 0
 135 165 138 162 138 159 c 0
 138 155 135 152 132 152 c 0
 128 152 125 155 125 159 c 0
109 173 m 0x3ff8460f
 109 176 112 179 116 179 c 0
 119 179 122 176 122 173 c 0
 122 169 119 166 116 166 c 0
 112 166 109 169 109 173 c 0x3ff8460f
325 158 m 0xbff8268f
 325 263 274 317 274 425 c 0
 274 486 299 515 327 538 c 1
 325 538 323 538 321 538 c 0
 301 538 270 534 270 534 c 1
 209 519 199 433 199 384 c 0
 199 285 250 230 250 125 c 0
 250 64 225 35 197 12 c 1
 199 12 201 12 203 12 c 0
 223 12 254 16 254 16 c 0
 313 30 325 97 325 158 c 0xbff8268f
350 -104 m 0
 349 -104 347 -103 347 -102 c 0x7ff8064f
 347 -99 357 -93 357 -58 c 0
 357 -23 344 0 296 0 c 2
 256 0 l 1x7ff8062f
 256 -79 l 1
 179 -79 l 1xbff8062f
 179 0 l 1
 130 0 l 2
 82 0 69 -23 69 -58 c 0x7ffa062f
 69 -93 79 -99 79 -102 c 0x7ffc060f
 79 -103 77 -104 76 -104 c 0x7ff9060f
 70 -104 54 -92 49 -69 c 0
 47 -59 46 -51 46 -45 c 0x7ffa060f
 46 -28 52 -23 52 -23 c 2
 1 12 l 1
 87 12 l 1
 66 23 55 44 55 79 c 0
 55 109 76 128 99 128 c 0
 119 128 133 114 133 98 c 0
 133 82 117 72 103 72 c 0
 89 72 77 80 77 80 c 1
 77 80 76 76 76 71 c 0
 76 57 80 31 106 20 c 0
 118 15 130 12 143 12 c 0
 162 12 182 19 198 35 c 0
 211 48 215 67 215 86 c 0
 215 112 207 136 207 136 c 1
 207 136 206 108 188 80 c 0
 177 62 154 47 139 47 c 0
 138 47 l 0
 138 49 176 58 176 115 c 0x7ff91e0f
 176 134 172 158 160 189 c 0
 125 282 123 300 123 382 c 0
 123 467 173 538 256 550 c 0
 279 553 303 554 326 554 c 0
 371 554 408 550 408 550 c 1
 448 544 469 519 469 471 c 0
 469 441 448 422 425 422 c 0
 405 422 391 436 391 452 c 0
 391 468 407 478 421 478 c 0
 435 478 447 470 447 470 c 1
 447 470 448 474 448 479 c 0
 448 493 444 519 418 530 c 0
 406 535 394 538 381 538 c 0
 362 538 342 531 326 515 c 0
 313 502 309 483 309 464 c 0
 309 438 317 414 317 414 c 2
 317 414 318 442 336 470 c 0
 347 488 370 503 385 503 c 0
 386 503 l 0
 386 501 348 492 348 435 c 0x7ff8271f
 348 416 352 392 364 361 c 0
 399 268 401 239 401 168 c 0x7ff8068f
 401 101 370 36 317 12 c 1
 425 12 l 1
 374 -23 l 1
 374 -23 380 -28 380 -45 c 0x7ff8072f
 380 -51 379 -59 377 -69 c 0
 372 -92 356 -104 350 -104 c 0
56 282 m 0
 87 282 110 258 110 231 c 0
 110 204 102 189 87 169 c 0
 80 160 68 151 61 145 c 0
 53 137 50 129 50 129 c 1
 50 129 61 143 78 150 c 0
 91 155 99 157 105 157 c 0
 111 157 115 155 115 151 c 0
 115 143 84 147 59 123 c 0
 53 117 47 99 47 99 c 1
 46 100 27 109 27 129 c 0
 27 160 50 175 50 200 c 0
 50 212 44 219 44 219 c 1
 44 219 44 219 45 219 c 0
 49 219 62 218 71 196 c 0
 76 183 74 173 74 173 c 1
 74 173 96 196 96 224 c 0x3ff8860f
 96 251 77 269 54 269 c 0
 30 269 13 253 13 231 c 0
 13 213 23 207 23 205 c 0
 23 205 22 205 21 205 c 0
 7 205 1 221 1 236 c 0
 1 266 27 282 56 282 c 0
397 407 m 1x3ff8061f
 394 403 386 405 386 411 c 0
 386 412 387 414 388 416 c 1
 391 417 395 417 397 416 c 0
 400 413 400 408 397 407 c 1x3ff8061f
413 374 m 1
 409 368 399 375 404 383 c 1
 407 384 411 384 413 383 c 0
 416 380 416 375 413 374 c 1
397 387 m 1
 394 383 386 385 386 391 c 0
 386 392 387 394 388 396 c 1
 391 397 395 397 397 396 c 0
 400 393 400 388 397 387 c 1
468 268 m 0
 437 268 414 292 414 319 c 0
 414 346 422 361 437 381 c 0
 444 390 456 399 463 405 c 0
 471 413 474 421 474 421 c 1
 474 421 463 407 446 400 c 0
 433 395 425 393 419 393 c 0
 413 393 409 395 409 399 c 0
 409 407 440 403 465 427 c 0
 471 433 477 451 477 451 c 1
 478 450 497 441 497 421 c 0
 497 390 474 375 474 350 c 0
 474 338 480 331 480 331 c 1
 480 331 480 331 479 331 c 0
 475 331 462 332 453 354 c 0
 448 367 450 377 450 377 c 1
 450 377 428 354 428 326 c 0
 428 299 447 281 470 281 c 0
 494 281 511 297 511 319 c 0
 511 337 501 343 501 345 c 0
 501 345 502 345 503 345 c 0
 517 345 523 329 523 314 c 0
 523 284 497 268 468 268 c 0
EndSplineSet
Validated: 1
Substitution2: "'ss01' Style Set Simple Forms-1" uni0472.simple
Colour: ff00
EndChar

StartChar: uni0405
Encoding: 1029 1029 13
Width: 480
Flags: W
HStem: -91 19<17.7197 38> -7 12<264.46 318.683> 48 9<279.126 309.53> 57 27<98.9702 149.462> 121 10<250.001 260.999> 133 11<243.012 253.987 264.155 284.031> 146 11<248.013 258.988> 162 12<238.722 291.773> 191 26<231.218 252.978> 256 22<204.321 331> 322 26<269.022 290.782> 365 12<230.227 283.278> 382 11<263.012 273.987> 396 10<241.188 256.68 268.053 278.952> 408 10<261.001 271.999> 427 12<342 368 444 470> 482 8<213.24 242.415> 529 21<207.684 316.825>
VStem: -6 14<-59.0471 -11.8639> 36 42<-71.76 -42.0396> 75 63<325.958 478.406> 193 12<339.326 379.269> 198 7<451.095 472.812> 219 12<181.125 194> 227 8<420.998 445.902> 243 11<133.011 143.999 148.583 154.034> 250 11<121.011 130.999 432.509 476.258> 261 11<62.9733 106.696 408.001 417.989> 263 11<382.001 392.989 398.966 403.934> 287 8<93.0977 118.737> 291 12<345 357.875> 317 12<159.516 199.675> 317 7<66.25 87.9048> 368 76<439 499.893> 396 69<60.728 205.477>
DStem2: 36 -3 40 -21 0.20601 0.97855<-16.5703 19.1503>
AnchorPoint: "Yerok" 405 565 basechar 0
AnchorPoint: "Diacritic" 259 575 basechar 0
LayerCount: 2
Fore
SplineSet
261 413 m 0xc8f1f211
 261 416 263 418 266 418 c 0
 269 418 272 416 272 413 c 0
 272 410 269 408 266 408 c 0
 263 408 261 410 261 413 c 0xc8f1f211
268 402 m 0xc8f3f209
 268 405 271 406 274 406 c 0xc8f3f209
 277 406 279 404 279 401 c 0xc8f5f209
 279 398 277 395 274 395 c 0
 271 395 268 399 268 402 c 0xc8f3f209
263 388 m 0
 263 391 265 393 268 393 c 0
 271 393 274 391 274 388 c 0
 274 385 271 382 268 382 c 0xc8f9f209
 265 382 263 385 263 388 c 0
200 324 m 1
 198 327 192 347 192 356 c 0
 192 363 194 369 196 377 c 0
 203 402 226 411 227 434 c 1
 227 446 l 1
 227 446 234 446 235 430 c 0
 236 420 233 415 233 415 c 1
 233 415 253 433 253 456 c 0
 253 471 242 482 227 482 c 0
 218 482 211 479 207 470 c 0
 200 456 210 450 205 451 c 0
 200 452 198 457 198 462 c 0
 198 478 209 491 226 491 c 0
 247 491 261 476 261 455 c 0
 261 419 218 396 217 395 c 2xc8f3f2a3
 217 395 238 401 251 401 c 0
 256 401 260 400 260 397 c 0
 260 390 241 399 221 386 c 0
 209 379 205 370 205 360 c 0
 205 357 206 355 206 352 c 1
 217 367 237 377 256 377 c 0
 279 376 303 366 303 342 c 0
 303 329 293 322 281 322 c 0
 275 322 269 325 269 333 c 0
 269 345 274 348 280 348 c 0
 286 348 291 345 291 345 c 1xc8f5f2a3
 291 359 274 365 257 365 c 0
 223 365 202 338 200 324 c 1
261 126 m 0
 261 123 259 121 256 121 c 0
 253 121 250 123 250 126 c 0
 250 129 253 131 256 131 c 0
 259 131 261 129 261 126 c 0
254 138 m 0xcaf1f241
 254 135 251 133 248 133 c 0xccf1f241
 245 133 243 135 243 138 c 0xcaf1f241
 243 141 245 144 248 144 c 0xccf1f241
 251 144 254 141 254 138 c 0xcaf1f241
259 151 m 0
 259 148 257 146 254 146 c 0
 251 146 248 148 248 151 c 0
 248 154 251 157 254 157 c 0xc9f1f241
 257 157 259 154 259 151 c 0
322 215 m 1
 324 212 330 192 330 183 c 0
 330 176 328 170 326 162 c 0
 319 137 296 128 295 105 c 1
 295 93 l 1
 295 93 288 93 287 109 c 0
 286 119 289 124 289 124 c 1
 289 124 269 106 269 83 c 0
 269 68 280 57 295 57 c 0
 304 57 311 60 315 69 c 0
 322 83 312 89 317 88 c 0
 322 87 324 82 324 77 c 0
 324 61 313 48 296 48 c 0xeaf1f315
 275 48 261 63 261 84 c 0
 261 120 304 143 305 144 c 2xdcf1f315
 305 144 284 138 271 138 c 0
 266 138 262 139 262 142 c 0
 262 149 281 140 301 153 c 0
 313 160 317 169 317 179 c 0
 317 182 316 184 316 187 c 1
 305 172 285 162 266 162 c 0
 243 163 219 173 219 197 c 0
 219 210 229 217 241 217 c 0
 247 217 253 214 253 206 c 0
 253 194 248 191 242 191 c 0
 236 191 231 194 231 194 c 1xcaf1f315
 231 180 248 174 265 174 c 0
 299 174 320 201 322 215 c 1
288 6 m 0
 359 6 394 70 394 131 c 0xd8f5fa0140
 394 188 365 244 308 252 c 0
 244 261 233 250 164 277 c 0
 111 298 75 329 75 404 c 0
 75 411 75 419 76 427 c 0
 84 519 177 550 257 550 c 0
 423 550 444 481 444 439 c 1
 470 439 l 1
 470 427 l 1
 342 427 l 1
 342 439 l 1
 368 439 l 1
 368 499 329 529 257 529 c 0
 177 529 138 464 138 401 c 0xd8f5f60180
 138 372 146 343 163 322 c 0
 207 266 268 287 340 270 c 0
 403 255 465 218 465 141 c 0
 465 24 365 -8 288 -8 c 0
 245 -8 208 1 194 9 c 0
 153 32 147 57 124 57 c 0
 113 57 99 52 76 39 c 0
 50 25 40 -21 40 -21 c 1
 40 -21 36 -13 36 -3 c 0
 36 4 40 16 40 16 c 1
 40 16 23 2 14 -14 c 0
 10 -20 8 -28 8 -36 c 0
 8 -54 18 -72 38 -72 c 1
 38 -72 36 -67 36 -61 c 0
 36 -52 40 -42 58 -42 c 0
 71 -42 79 -48 79 -61 c 0
 79 -74 66 -90 43 -90 c 0
 17 -90 -6 -69 -6 -40 c 0
 -6 9 38 40 70 57 c 0
 100 73 128 84 155 84 c 0xd8f5fa0140
 188 84 220 67 256 19 c 0
 264 9 275 6 288 6 c 0
EndSplineSet
Validated: 1
Substitution2: "'ss01' Style Set Simple Forms-1" uni0405.simple
Colour: ff00
EndChar

StartChar: uni0410
Encoding: 1040 1040 14
Width: 430
Flags: W
HStem: -128 10<34.1125 81.793> -91 35<23 42.8506> 0 12<283 309 385 411> 407 32<174.188 201.996> 422 7<238.148 266.281> 443 11<240.057 286.609> 470 12<200.987 279.032> 488 10<213.001 223.999> 503 10<204.001 214.999> 517 10<212.001 222.999> 538 12<283 309 385 411> 644 10<200.86 235.277>
VStem: 0 23<-112.832 -91> 121 24<-76.6914 2.9834 18 49.5381> 160 14<436 452.375> 177 9<594.75 628.733> 204 11<503.001 512.999> 213 11<488.001 497.999 517.06 526.94> 226 11<557.909 584.344> 247 7<609.265 627.901> 309 76<12 143 154.258 418 437 462.029 465 490.887 495 538>
DStem2: 234 512 233 503 0.982872 -0.184289<-9.48036 32.277>
AnchorPoint: "Yerok" 351 585.8 basechar 0
AnchorPoint: "Diacritic" 347 585 basechar 0
LayerCount: 2
Fore
SplineSet
223 522 m 0xe63f38
 223 519 221 517 218 517 c 0
 215 517 212 519 212 522 c 0
 212 525 215 527 218 527 c 0
 221 527 223 525 223 522 c 0xe63f38
215 508 m 0xe67fb8
 215 505 213 503 210 503 c 0
 207 503 204 505 204 508 c 0
 204 511 207 513 210 513 c 0
 213 513 215 511 215 508 c 0xe67fb8
224 493 m 0xe6bf78
 224 490 221 488 218 488 c 0xe73f78
 215 488 213 490 213 493 c 0xe6bf78
 213 496 215 498 218 498 c 0xe73f78
 221 498 224 496 224 493 c 0xe6bf78
309 162 m 1
 309 418 l 1
 288 390 232 349 195 281 c 0
 151 199 146 60 146 18 c 1
 154 22 172 26 181 31 c 0
 201 43 214 70 219 83 c 0
 234 120 267 150 309 162 c 1
220 654 m 0
 241 654 254 640 254 620 c 0
 254 613 252 608 246 605 c 0
 240 603 252 611 243 629 c 0
 238 639 230 644 218 644 c 0
 201 644 186 631 186 612 c 0
 186 582 230 548 230 548 c 2
 230 548 226 554 226 566 c 0
 226 585 238 587 238 587 c 1
 238 587 237 581 238 572 c 0
 242 543 284 503 309 495 c 1
 309 538 l 1
 283 538 l 1
 283 550 l 1
 411 550 l 1
 411 538 l 1
 385 538 l 1
 385 12 l 1
 411 12 l 1
 411 0 l 1
 283 0 l 1
 283 12 l 1
 309 12 l 1
 309 143 l 1
 300 140 292 136 283 131 c 0
 263 119 246 93 237 72 c 0
 219 31 197 12 145 0 c 1
 145 -102 99 -128 69 -128 c 0
 26 -128 0 -115 0 -85 c 0
 0 -67 10 -56 23 -56 c 0
 33 -56 43 -63 43 -70 c 0
 43 -89 30 -91 26 -91 c 0
 23 -91 l 1
 23 -116 43 -118 55 -118 c 0
 56 -118 58 -118 59 -118 c 0
 133 -118 118 4 123 51 c 1
 123 51 118 34 96 17 c 0
 79 4 65 0 65 0 c 1
 65 0 82 8 87 38 c 0
 91 64 96 174 126 242 c 0
 169 338 233 363 283 409 c 1
 282 411 268 418 267 418 c 0
 261 421 255 422 251 422 c 0
 246 422 243 420 240 420 c 0
 239 420 238 421 238 424 c 0
 238 427 244 429 252 429 c 0xeebf38
 257 429 263 428 269 427 c 0
 278 425 292 417 292 417 c 1
 298 423 300 424 304 428 c 1
 299 432 290 438 278 441 c 0
 262 446 240 442 240 448 c 0
 240 451 249 454 261 454 c 0
 279 454 302 444 309 437 c 1
 309 453 l 1
 295 463 252 470 236 470 c 0
 210 470 174 460 174 436 c 1
 174 436 180 439 187 439 c 0
 194 439 202 436 202 421 c 0
 202 411 195 407 187 407 c 0
 172 407 160 416 160 432 c 0
 160 465 197 482 232 482 c 0
 257 482 293 476 309 465 c 1
 309 479 l 1
 298 485 287 491 284 493 c 0
 261 505 223 500 223 507 c 0
 223 510 229 512 234 512 c 0xf6bf38
 247 512 266 506 266 506 c 1
 266 506 177 560 177 600 c 0
 177 604 176 608 176 611 c 0
 176 622 179 633 186 641 c 0
 195 650 208 654 220 654 c 0
EndSplineSet
Validated: 1
AlternateSubs2: "'salt' Stylistic Alternatives lookup 1-1" uni0410.alt
Substitution2: "'ss01' Style Set Simple Forms-1" uni0410.simple
Colour: ff00
EndChar

StartChar: uni0411
Encoding: 1041 1041 15
Width: 525
Flags: W
HStem: -10 11<187.553 281.967> 72 56<77.4369 123.201> 132 13<125.002 137.998> 152 13<125.002 137.998> 166 13<109.002 121.998> 269 13<29.9133 76.6485> 283 13<321.352 368.087> 397 13<292.002 304.998> 411 13<276.002 288.998> 431 13<276.002 288.998> 455 12<290.005 336.758> 533 17<270 344.578 370 404.846>
VStem: 1 12<210.82 252.055> 55 21<35.0625 79.7801> 96 14<196.159 249.71> 109 13<166.002 178.998> 125 13<132.002 144.998 152.002 164.998> 167 40<79.9407 135.763> 215 36<47.5942 125> 276 13<411.002 423.998 431.002 443.998> 288 14<315.453 366.627 397.7 409.3> 356 36<436.336 529.83> 385 12<312.945 354.18> 396 82<49.2363 209.808> 422 24<444.044 516.062>
AnchorPoint: "Yerok" 445.5 575 basechar 0
AnchorPoint: "Diacritic" 304 575 basechar 0
LayerCount: 2
Fore
SplineSet
289 438 m 0xfffc18
 289 434 286 431 283 431 c 0
 279 431 276 434 276 438 c 0
 276 441 279 444 283 444 c 0
 286 444 289 441 289 438 c 0xfffc18
289 418 m 0
 289 414 286 411 283 411 c 0
 279 411 276 414 276 418 c 0
 276 421 279 424 283 424 c 0
 286 424 289 421 289 418 c 0
305 404 m 0
 305 400 302 397 299 397 c 0
 295 397 292 400 292 404 c 0
 292 407 295 410 299 410 c 0xfffc12
 302 410 305 407 305 404 c 0
125 139 m 0xfffc90
 125 142 128 145 132 145 c 0
 135 145 138 142 138 139 c 0
 138 135 135 132 132 132 c 0
 128 132 125 135 125 139 c 0xfffc90
125 159 m 0
 125 162 128 165 132 165 c 0
 135 165 138 162 138 159 c 0
 138 155 135 152 132 152 c 0
 128 152 125 155 125 159 c 0
109 173 m 0xfffd10
 109 176 112 179 116 179 c 0
 119 179 122 176 122 173 c 0
 122 169 119 166 116 166 c 0
 112 166 109 169 109 173 c 0xfffd10
56 282 m 0
 87 282 110 258 110 231 c 0
 110 204 102 189 87 169 c 0
 80 160 68 151 61 145 c 0
 53 137 50 129 50 129 c 1
 50 129 61 143 78 150 c 0
 91 155 99 157 105 157 c 0
 111 157 115 155 115 151 c 0
 115 143 84 147 59 123 c 0
 53 117 47 99 47 99 c 1
 46 100 27 109 27 129 c 0
 27 160 50 175 50 200 c 0
 50 212 44 219 44 219 c 1
 44 219 44 219 45 219 c 0
 49 219 62 218 71 196 c 0
 76 183 74 173 74 173 c 1
 74 173 96 196 96 224 c 0xfffe10
 96 251 77 269 54 269 c 0
 30 269 13 253 13 231 c 0
 13 213 23 207 23 205 c 0
 23 205 22 205 21 205 c 0
 7 205 1 221 1 236 c 0
 1 266 27 282 56 282 c 0
315 467 m 0
 333 467 352 479 352 501 c 0
 352 515 345 527 333 533 c 1
 333 533 290 533 270 533 c 1
 270 533 290 526 302 513 c 0
 315 499 315 489 305 489 c 0
 299 489 296 499 277 515 c 0
 268 523 250 529 231 533 c 1
 224 501 211 431 211 382 c 0xfffc55
 211 369 211 357 212 345 c 1
 229 319 275 259 347 253 c 0
 426 246 478 227 478 118 c 0
 478 21 404 9 360 1 c 1
 321 -7 282 -10 246 -10 c 0
 191 -10 144 -4 116 0 c 0
 76 6 55 31 55 79 c 0
 55 109 76 128 99 128 c 0
 119 128 133 114 133 98 c 0
 133 82 117 72 103 72 c 0
 89 72 77 80 77 80 c 1
 77 80 76 76 76 71 c 0
 76 57 80 31 106 20 c 0
 118 15 130 12 143 12 c 0
 162 12 182 19 198 35 c 0
 211 48 215 67 215 86 c 0
 215 112 207 136 207 136 c 1
 207 136 206 108 188 80 c 0
 177 62 154 47 139 47 c 0
 137 47 l 0
 137 48 167 57 167 124 c 0xfffc3240
 167 141 165 163 160 189 c 0
 143 274 131 300 131 382 c 0
 131 431 141 501 147 533 c 1
 130 550 l 1
 512 550 l 1
 442 515 l 1
 442 515 446 502 446 486 c 0
 446 458 425 423 411 423 c 0
 408 423 406 425 406 427 c 0
 406 433 422 445 422 471 c 0
 422 496 412 533 384 533 c 2
 370 533 l 1
 384 524 392 503 392 481 c 0
 392 433 347 392 347 356 c 0
 347 344 353 337 353 337 c 1
 353 337 353 337 352 337 c 0xfffc5320
 348 337 335 338 326 360 c 0
 321 373 323 383 323 383 c 1
 323 383 302 367 302 341 c 0
 302 314 321 296 344 296 c 0
 368 296 385 312 385 334 c 0
 385 352 375 358 375 360 c 0
 375 360 376 360 377 360 c 0
 391 360 397 344 397 329 c 0
 397 299 371 283 342 283 c 0
 311 283 288 307 288 334 c 0xfffc1480
 288 361 298 374 310 387 c 0
 318 395 313 396 344 419 c 0
 364 434 364 447 364 447 c 1
 364 447 353 433 336 426 c 0
 323 421 315 419 309 419 c 0
 303 419 299 421 299 424 c 0xfffc12
 299 433 351 428 356 464 c 0
 356 467 357 469 357 472 c 1
 354 466 331 455 310 455 c 0
 291 455 264 470 264 479 c 0
 264 482 266 484 269 484 c 0
 276 484 289 467 315 467 c 0
216 307 m 1
 225 241 244 192 250 125 c 0
 250 119 251 114 251 108 c 0
 251 60 230 39 205 18 c 0
 199 13 193 9 187 6 c 1
 205 5 222 1 242 1 c 0
 270 1 305 8 360 38 c 0
 385 51 396 89 396 128 c 0xfffc1040
 396 179 377 231 343 233 c 0
 282 238 239 278 216 307 c 1
EndSplineSet
Validated: 1
Substitution2: "'ss01' Style Set Simple Forms-1" uni0411.simple
Colour: ff00
EndChar

StartChar: uni0412
Encoding: 1042 1042 16
Width: 455
Flags: W
HStem: -10 15<158.544 272.411> 72 56<77.4369 123.201> 132 13<125.002 137.998> 152 13<125.002 137.998> 166 13<109.002 121.998> 244 12<336.283 354.156> 266 35<385.02 404> 269 13<29.9133 76.6485> 311 11<357.741 398.64> 318 10<330.001 340.999> 334 10<328.001 338.999> 340 10<313.001 323.999> 376 10<237.62 272.504> 388 16<296.969 327.09> 436 35<216.52 263.5> 535 15<246.768 309.706>
VStem: 1 12<210.82 252.055> 55 21<35.0625 79.7801> 96 14<196.159 249.71> 109 13<166.002 178.998> 123 68<338 427.25 428 473.18> 125 13<132.002 144.998 152.002 164.998> 176 31<85.6012 135.78> 214 11<329.065 363.797> 215 35<44.5667 134.703> 288 11<325.314 360.959> 313 11<340.001 349.999> 330 11<318.001 327.999 334.206 343.794> 337 56<409.514 521.798> 377 76<60.1713 182.565> 385 38<266.371 300.811>
DStem2: 225 257.5 128.5 288 0.258489 -0.966014<-35.8893 111.143>
AnchorPoint: "Yerok" 363 575.9 basechar 0
AnchorPoint: "Diacritic" 275 575 basechar 0
LayerCount: 2
Fore
SplineSet
330 323 m 0xf89f80e0
 330 326 332 328 335 328 c 0
 338 328 341 326 341 323 c 0
 341 320 338 318 335 318 c 0
 332 318 330 320 330 323 c 0xf89f80e0
328 339 m 0
 328 342 330 344 333 344 c 0
 336 344 339 342 339 339 c 0
 339 336 336 334 333 334 c 0xf85f80c0
 330 334 328 336 328 339 c 0
313 345 m 0
 313 348 316 350 319 350 c 0
 322 350 324 348 324 345 c 0
 324 342 322 340 319 340 c 0xf83f80c0
 316 340 313 342 313 345 c 0
125 139 m 0xf81f88c0
 125 142 128 145 132 145 c 0
 135 145 138 142 138 139 c 0
 138 135 135 132 132 132 c 0
 128 132 125 135 125 139 c 0xf81f88c0
125 159 m 0
 125 162 128 165 132 165 c 0
 135 165 138 162 138 159 c 0
 138 155 135 152 132 152 c 0
 128 152 125 155 125 159 c 0
109 173 m 0xf81fa0c0
 109 176 112 179 116 179 c 0
 119 179 122 176 122 173 c 0
 122 169 119 166 116 166 c 0
 112 166 109 169 109 173 c 0xf81fa0c0
192 428 m 1
 203 446 235 471 256 471 c 0
 265 471 272 467 275 455 c 0
 282 426 299 404 313 404 c 0
 326 404 337 421 337 462 c 0xf81f80d0
 337 490 329 535 280 535 c 0
 223 535 195 482 192 428 c 1
236 436 m 0
 218 436 200 416 191 401 c 1
 192 379 195 358 200 337 c 1
 210 323 224 300 254 277 c 1
 258 282 272 299 272 314 c 0
 272 324 260 340 259 341 c 1
 259 341 261 342 263 342 c 0
 269 342 278 339 285 325 c 1
 285 325 288 332 288 342 c 0
 288 361 274 376 254 376 c 0
 236 376 225 361 225 346 c 0
 225 345 225 345 225 344 c 0
 228 324 239 326 236 323 c 0
 235 323 233 322 232 322 c 0
 222 322 214 333 214 349 c 0
 214 351 214 352 214 354 c 0
 217 373 236 386 257 386 c 0
 280 386 299 367 299 343 c 0
 299 324 288 306 288 306 c 1
 288 306 309 332 320 332 c 0
 321 332 324 331 324 330 c 0
 324 324 301 310 284 293 c 0
 275 284 263 268 263 268 c 1
 267 264 272 261 272 261 c 1
 287 277 326 302 341 310 c 0
 354 316 370 322 385 322 c 0
 399 322 423 314 423 294 c 0
 423 281 411 266 400 266 c 0
 393 266 385 277 385 284 c 0
 385 297 404 301 404 301 c 0xfd5f92e4
 398 308 391 311 382 311 c 0
 367 311 349 303 335 295 c 0
 327 290 294 268 282 253 c 1
 296 245 l 1
 299 248 304 253 312 261 c 0
 324 273 343 282 349 282 c 0
 351 282 351 281 351 280 c 0
 350 272 333 268 318 254 c 0
 318 254 313 249 305 240 c 1
 320 234 l 1
 321 235 328 243 329 243 c 0
 337 252 345 256 350 256 c 0
 352 256 354 256 355 254 c 0
 358 247 343 248 335 238 c 1
 332 231 l 1
 332 231 453 225 453 114 c 0
 453 18 388 9 345 0 c 0
 309 -7 272 -10 238 -10 c 0
 170 -10 116 0 116 0 c 1
 76 6 55 31 55 79 c 0
 55 109 76 128 99 128 c 0
 119 128 133 114 133 98 c 0
 133 82 117 72 103 72 c 0
 89 72 77 80 77 80 c 1
 77 80 76 76 76 71 c 0
 76 57 80 31 106 20 c 0
 118 15 130 12 143 12 c 0
 162 12 182 19 198 35 c 0
 211 48 215 67 215 86 c 0
 215 112 207 136 207 136 c 1
 207 136 206 108 188 80 c 0
 177 62 154 47 139 47 c 0
 138 47 l 0
 138 49 176 58 176 115 c 0xfb1f8dc8
 176 134 172 158 160 189 c 0
 125 282 123 300 123 382 c 0xfb1f90c0
 123 467 173 545 256 550 c 0
 263 550 270 551 276 551 c 0
 359 551 393 516 393 463 c 0
 393 411 351 388 313 388 c 0
 296 388 280 393 268 401 c 0
 249 414 250 436 236 436 c 0
250 125 m 0xf81f81c8
 250 52 228 22 179 6 c 1
 188 5 199 5 210 5 c 0
 254 5 311 13 355 60 c 0
 369 75 377 102 377 129 c 0
 377 165 362 203 328 211 c 0
 281 222 240 261 213 292 c 1
 230 239 250 186 250 125 c 0xf81f81c8
56 282 m 0xfa1fc0c0
 87 282 110 258 110 231 c 0
 110 204 102 189 87 169 c 0
 80 160 68 151 61 145 c 0
 53 137 50 129 50 129 c 1
 50 129 61 143 78 150 c 0
 91 155 99 157 105 157 c 0
 111 157 115 155 115 151 c 0
 115 143 84 147 59 123 c 0
 53 117 47 99 47 99 c 1
 46 100 27 109 27 129 c 0
 27 160 50 175 50 200 c 0
 50 212 44 219 44 219 c 1
 44 219 44 219 45 219 c 0
 49 219 62 218 71 196 c 0
 76 183 74 173 74 173 c 1
 74 173 96 196 96 224 c 0
 96 251 77 269 54 269 c 0
 30 269 13 253 13 231 c 0
 13 213 23 207 23 205 c 0
 23 205 22 205 21 205 c 0
 7 205 1 221 1 236 c 0
 1 266 27 282 56 282 c 0xfa1fc0c0
EndSplineSet
Validated: 1
Substitution2: "'ss01' Style Set Simple Forms-1" uni0412.simple
Colour: ff00
EndChar

StartChar: uni0410.simple
Encoding: 62736 62736 17
Width: 430
GlyphClass: 2
Flags: W
HStem: 0 12<33.6423 71.1716 283 309 385 411> 42 32.5<21.0215 40.7839> 147 19<156 309> 538 12<283 309 385 411>
VStem: -1 22<20.8906 42> 11 30<42.9001 74.358> 90.5 63.5<35.7078 62 84.1366 147 166 233.819> 309 76<12 147 166 418 437 538>
AnchorPoint: "Yerok" 348.5 581 basechar 0
AnchorPoint: "Diacritic" 348 579 basechar 0
LayerCount: 2
Fore
SplineSet
309 166 m 1
 309 418 l 1
 288 390 232 349 195 281 c 0
 167 230 159 195 156 166 c 1
 309 166 l 1
-0 51 m 0
 -0 68 8 77 20 77 c 0
 31 77 41 70 41 63 c 0
 41 44 28 42 24 42 c 0
 21 42 l 1
 21 23 36 14 52 14 c 0
 60 14 68 16 75 20 c 0
 91 29 92 62 92 62 c 1
 92 62 85 55 78 50 c 0
 69 44 59 46 59 46 c 1
 59 46 79 58 88 84 c 0
 90 90 91 98 91 108 c 0
 91 115 91 123 91 132 c 0
 91 158 93 193 112 236 c 0
 144 308 309 437 309 437 c 1
 309 538 l 1
 283 538 l 1
 283 550 l 1
 411 550 l 1
 411 538 l 1
 385 538 l 1
 385 12 l 1
 411 12 l 1
 411 0 l 1
 283 0 l 1
 283 12 l 1
 309 12 l 1
 309 147 l 1
 309 147 156 147 155 147 c 1
 155 135 156 124 156 113 c 0
 156 104 155 95 154 86 c 0
 148 31 98 0 49 0 c 0
 20 0 -0 24 -0 51 c 0
EndSplineSet
Validated: 1
Colour: ff00
EndChar

StartChar: uni0411.simple
Encoding: 62737 62737 18
Width: 470
GlyphClass: 2
Flags: W
HStem: -9 10<134.33 228.715> 72 56<22.437 70.1715> 282 14<264.411 305> 397 13<237.015 249.986> 411 13<221.015 233.986> 418 9.5<244.548 265.579> 431 13<221.015 233.986> 455 11<236.545 280.435> 533 17<215 289.124 315 349.35>
VStem: 0 21.5<35.0781 79.8398> 76 80<318.1 530.168> 113 39<80.1484 135.885> 160 36<46.9857 135.832> 221 13<411.015 423.998 431.015 443.998> 233 13<317.972 363.936 397.99 408.932> 302 35<436.866 472> 342 81<51.0643 210.191> 367 25<445.527 514.532>
DStem2: 161 307 82 301 0.184107 -0.982906<0 165.755>
AnchorPoint: "Yerok" 391.5 575 basechar 0
AnchorPoint: "Diacritic" 257 575 basechar 0
LayerCount: 2
Fore
SplineSet
234 438 m 0xff98
 234 434 231 431 228 431 c 0
 224 431 221 434 221 438 c 0
 221 441 224 444 228 444 c 0
 231 444 234 441 234 438 c 0xff98
234 418 m 0
 234 414 231 411 228 411 c 0
 224 411 221 414 221 418 c 0
 221 421 224 424 228 424 c 0
 231 424 234 421 234 418 c 0
250 404 m 0
 250 400 247 397 244 397 c 0
 240 397 237 400 237 404 c 0
 237 407 240 410 244 410 c 0xff92
 247 410 250 407 250 404 c 0
260 467 m 0
 278 467 297 479 297 501 c 0
 297 515 290 527 278 533 c 1
 278 533 235 533 215 533 c 1
 215 533 235 526 247 513 c 0
 260 499 260 489 250 489 c 0
 244 489 241 499 222 515 c 0
 213 523 195 529 176 533 c 1
 169 501 156 431 156 382 c 0xffd5
 156 369 156 357 157 345 c 1
 174 319 220 259 292 253 c 0
 371 246 423 227 423 118 c 0
 423 21 349 9 305 1 c 1
 266 -7 227 -10 191 -10 c 0
 136 -10 89 -4 61 0 c 0
 21 6 0 31 0 79 c 0
 0 109 21 128 44 128 c 0
 64 128 78 114 78 98 c 0
 78 82 62 72 48 72 c 0
 34 72 22 80 22 80 c 1
 22 80 21 76 21 71 c 0
 21 57 25 31 51 20 c 0
 63 15 75 12 88 12 c 0
 107 12 127 19 143 35 c 0
 156 48 160 67 160 86 c 0
 160 112 152 136 152 136 c 1
 152 136 151 108 133 80 c 0
 122 62 99 47 84 47 c 0
 82 47 l 0
 82 48 112 57 112 124 c 0xffb240
 112 141 110 163 105 189 c 0
 88 274 76 300 76 382 c 0
 76 431 86 501 92 533 c 1
 75 550 l 1
 457 550 l 1
 387 515 l 1
 387 515 391 502 391 486 c 0
 391 458 370 423 356 423 c 0
 353 423 351 425 351 427 c 0
 351 433 367 445 367 471 c 0
 367 496 357 533 329 533 c 2
 315 533 l 1
 329 524 337 503 337 481 c 0
 337 433 292 392 292 356 c 0
 292 344 298 337 298 337 c 1
 298 337 298 337 297 337 c 0xffd320
 293 337 280 338 271 360 c 0
 266 373 268 383 268 383 c 1
 268 383 247 367 247 341 c 0
 247 314 266 296 289 296 c 0
 313 296 330 312 330 334 c 0
 330 352 320 358 320 360 c 0
 320 360 321 360 322 360 c 0
 336 360 342 344 342 329 c 0
 342 299 316 283 287 283 c 0
 256 283 233 307 233 334 c 0xff9480
 233 361 243 374 255 387 c 0
 263 395 258 396 289 419 c 0
 309 434 309 447 309 447 c 1
 309 447 298 433 281 426 c 0
 268 421 260 419 254 419 c 0
 248 419 244 421 244 424 c 0
 244 433 296 428 301 464 c 0
 301 467 302 469 302 472 c 1
 299 466 276 455 255 455 c 0
 236 455 209 470 209 479 c 0
 209 482 211 484 214 484 c 0
 221 484 234 467 260 467 c 0
161 307 m 1
 170 241 189 192 195 125 c 0
 195 119 196 114 196 108 c 0
 196 60 175 39 150 18 c 0
 144 13 138 9 132 6 c 1
 150 5 167 1 187 1 c 0
 215 1 250 8 305 38 c 0
 330 51 341 89 341 128 c 0xff9040
 341 179 322 231 288 233 c 0
 227 238 184 278 161 307 c 1
EndSplineSet
Validated: 1
Colour: ff00
EndChar

StartChar: uni0412.simple
Encoding: 62738 62738 19
Width: 405
GlyphClass: 2
Flags: W
HStem: -10 13<124.072 228.634> 47 1<83.9385 84> 72 56<22.437 70.1715> 389 15<242.922 270.381> 435 36<159.875 208.5> 535 16<190.036 254.706>
VStem: 0 21.5<35.0781 79.8398> 68 68<362.532 425.902 428 474.35> 122 30<86.229 135.291> 160 35<44.8707 162.359> 282 56<410.013 519.705> 320 78<57.2058 214.413>
AnchorPoint: "Yerok" 318 575.9 basechar 0
AnchorPoint: "Diacritic" 210 575 basechar 0
LayerCount: 2
Fore
SplineSet
137 428 m 1xfcc0
 148 446 180 471 201 471 c 0
 210 471 217 467 220 455 c 0
 227 426 244 404 258 404 c 0
 271 404 282 421 282 462 c 0
 282 490 274 535 225 535 c 0
 168 535 140 482 137 428 c 1xfcc0
78 98 m 0
 78 82 62 72 48 72 c 0
 34 72 22 80 22 80 c 1
 22 80 21 76 21 71 c 0
 21 57 25 31 51 20 c 0
 63 15 75 12 88 12 c 0
 107 12 127 19 143 35 c 0
 156 48 160 67 160 86 c 0
 160 112 152 136 152 136 c 1
 152 136 151 108 133 80 c 0
 122 62 99 47 84 47 c 0
 83 47 l 0
 83 49 121 58 121 115 c 0xfda0
 121 134 117 158 105 189 c 0
 70 282 68 300 68 382 c 0
 68 467 118 545 201 550 c 0
 208 550 215 551 221 551 c 0
 304 551 338 516 338 463 c 0xfec0
 338 411 296 388 258 388 c 0
 241 388 225 393 213 401 c 0
 194 414 195 436 181 436 c 0
 175 436 168 433 157 426 c 0
 149 421 145 413 136 401 c 1
 137 379 136 383 141 362 c 1
 141 362 194 275 263 262 c 0
 338 248 398 248 398 131 c 0xfea0
 398 38 333 9 290 0 c 0
 254 -7 217 -10 183 -10 c 0
 115 -10 61 0 61 0 c 0
 21 6 0 31 0 79 c 0
 0 109 21 128 44 128 c 0
 64 128 78 114 78 98 c 0
195 125 m 0
 195 52 173 22 124 6 c 1
 138 5 156 3 175 3 c 0
 219 3 270 12 300 60 c 0
 313 80 320 109 320 137 c 0
 320 184 300 231 259 242 c 0
 210 255 181 286 154 317 c 1
 171 264 195 186 195 125 c 0
EndSplineSet
Validated: 1
Colour: ff00
EndChar

StartChar: uni0413
Encoding: 1043 1043 20
Width: 525
Flags: W
HStem: -2 14<108.595 177.43> 72 56<77.4369 123.201> 132 13<125.002 137.998> 152 13<125.002 137.998> 166 13<109.002 121.998> 257 13<302.352 349.087> 269 13<29.9133 76.6485> 397 13<292.002 304.998> 411 13<276.002 288.998> 431 13<276.002 288.998> 455 12<290.005 336.758> 533 17<270 344.578 370 404.846>
VStem: 1 12<210.82 252.055> 55 21<35.666 79.7801> 96 14<196.159 249.71> 109 13<166.002 178.998> 125 13<132.002 144.998 152.002 164.998> 131 80<224.617 530.257> 167 40<79.9407 135.763> 215 36<46.8135 125> 269 14<289.29 343.183> 276 13<411.002 423.998 431.002 443.998> 292 13<397.002 409.998> 299 30<336.808 427> 356 36<436.336 529.821> 366 12<286.945 328.18> 422 24<444.044 516.062>
AnchorPoint: "Yerok" 421.5 575.8 basechar 0
AnchorPoint: "Diacritic" 314 575 basechar 0
LayerCount: 2
Fore
SplineSet
289 438 m 0xf9fc1420
 289 434 286 431 283 431 c 0xf9fc1820
 279 431 276 434 276 438 c 0xf9fc1420
 276 441 279 444 283 444 c 0xf9fc1820
 286 444 289 441 289 438 c 0xf9fc1420
289 418 m 0xf9fc1420
 289 414 286 411 283 411 c 0xf9fc1820
 279 411 276 414 276 418 c 0xf9fc1420
 276 421 279 424 283 424 c 0xf9fc1820
 286 424 289 421 289 418 c 0xf9fc1420
305 404 m 0xf9fc1220
 305 400 302 397 299 397 c 0xf9fc1120
 295 397 292 400 292 404 c 0xf9fc1220
 292 407 295 410 299 410 c 0xf9fc1120
 302 410 305 407 305 404 c 0xf9fc1220
125 139 m 0xf9fc9020
 125 142 128 145 132 145 c 0
 135 145 138 142 138 139 c 0
 138 135 135 132 132 132 c 0
 128 132 125 135 125 139 c 0xf9fc9020
125 159 m 0
 125 162 128 165 132 165 c 0
 135 165 138 162 138 159 c 0
 138 155 135 152 132 152 c 0
 128 152 125 155 125 159 c 0
109 173 m 0xf9fd1020
 109 176 112 179 116 179 c 0
 119 179 122 176 122 173 c 0
 122 169 119 166 116 166 c 0
 112 166 109 169 109 173 c 0xf9fd1020
56 282 m 0xfbfe1020
 87 282 110 258 110 231 c 0
 110 204 102 189 87 169 c 0
 80 160 68 151 61 145 c 0
 53 137 50 129 50 129 c 1
 50 129 61 143 78 150 c 0
 91 155 99 157 105 157 c 0
 111 157 115 155 115 151 c 0
 115 143 84 147 59 123 c 0
 53 117 47 99 47 99 c 1
 46 100 27 109 27 129 c 0
 27 160 50 175 50 200 c 0
 50 212 44 219 44 219 c 1
 44 219 44 219 45 219 c 0
 49 219 62 218 71 196 c 0
 76 183 74 173 74 173 c 1
 74 173 96 196 96 224 c 0
 96 251 77 269 54 269 c 0
 30 269 13 253 13 231 c 0
 13 213 23 207 23 205 c 0
 23 205 22 205 21 205 c 0
 7 205 1 221 1 236 c 0
 1 266 27 282 56 282 c 0xfbfe1020
315 467 m 0
 333 467 352 479 352 501 c 0
 352 515 345 527 333 533 c 1
 333 533 290 533 270 533 c 1
 270 533 290 526 302 513 c 0
 315 499 315 489 305 489 c 0
 299 489 296 499 277 515 c 0
 268 523 250 529 231 533 c 1
 224 501 211 431 211 382 c 0xfdfc5aa0
 211 273 242 216 250 125 c 0
 250 119 251 114 251 108 c 0
 251 60 230 39 205 18 c 0
 186 2 165 -2 144 -2 c 0
 87 -2 55 20 55 79 c 0
 55 109 76 128 99 128 c 0
 119 128 133 114 133 98 c 0
 133 82 117 72 103 72 c 0
 89 72 77 80 77 80 c 1
 77 80 76 76 76 71 c 0
 76 57 80 31 106 20 c 0
 118 15 130 12 143 12 c 0
 162 12 182 19 198 35 c 0
 211 48 215 67 215 86 c 0
 215 112 207 136 207 136 c 1
 207 136 206 108 188 80 c 0
 177 62 154 47 139 47 c 0
 137 47 l 0
 137 48 167 57 167 124 c 0xfdfc3020
 167 141 165 163 160 189 c 0
 143 274 131 300 131 382 c 0
 131 431 141 501 147 533 c 1
 130 550 l 1
 512 550 l 1
 442 515 l 1
 442 515 446 502 446 486 c 0
 446 458 425 423 411 423 c 0
 408 423 406 425 406 427 c 0
 406 433 422 445 422 471 c 0
 422 496 412 533 384 533 c 2
 370 533 l 1
 384 524 392 503 392 481 c 0
 392 429 329 377 329 339 c 0xfdfc51a0
 329 327 335 320 335 320 c 1
 335 320 335 320 334 320 c 0
 330 320 317 321 308 343 c 0
 303 356 305 366 305 366 c 1
 305 366 283 343 283 315 c 0
 283 288 302 270 325 270 c 0
 349 270 366 286 366 308 c 0
 366 326 356 332 356 334 c 0
 356 334 357 334 358 334 c 0
 372 334 378 318 378 303 c 0
 378 273 352 257 323 257 c 0
 292 257 269 281 269 308 c 0
 269 335 277 350 292 370 c 0xfdfc1a60
 299 379 313 396 344 419 c 0
 364 434 364 447 364 447 c 1
 364 447 353 433 336 426 c 0
 323 421 315 419 309 419 c 0
 303 419 299 421 299 424 c 0
 299 433 351 428 356 464 c 0
 356 467 357 469 357 472 c 1
 354 466 331 455 310 455 c 0
 291 455 264 470 264 479 c 0
 264 482 266 484 269 484 c 0xfdfc1920
 276 484 289 467 315 467 c 0
EndSplineSet
Validated: 1
Substitution2: "'ss01' Style Set Simple Forms-1" uni0413.simple
Colour: ff00
EndChar

StartChar: uni0413.simple
Encoding: 62739 62739 21
Width: 470
GlyphClass: 2
Flags: W
HStem: -2 13<57.09 120.451> 72 56<22.437 70.1715> 256 14<245.411 286> 397 13<237.015 249.986> 411 13<221.015 233.986> 418 9.5<244.548 265.579> 431 13<221.015 233.986> 455 11<236.545 280.435> 533 17<215 289.124 315 349.35>
VStem: 0 21.5<35.5469 79.8398> 76 80<225.742 530.257> 113 39<80.1484 135.885> 160 36<52.8994 135.371> 214 14<289.029 341.162> 221 13<411.015 423.998 431.015 443.998> 237 13<397.015 409.998> 302 35<436.866 472> 367 25<445.527 514.532>
AnchorPoint: "Yerok" 367.5 575.8 basechar 0
AnchorPoint: "Diacritic" 238 575 basechar 0
LayerCount: 2
Fore
SplineSet
234 438 m 0xff9420
 234 434 231 431 228 431 c 0xff9820
 224 431 221 434 221 438 c 0xff9420
 221 441 224 444 228 444 c 0xff9820
 231 444 234 441 234 438 c 0xff9420
234 418 m 0xff9420
 234 414 231 411 228 411 c 0xff9820
 224 411 221 414 221 418 c 0xff9420
 221 421 224 424 228 424 c 0xff9820
 231 424 234 421 234 418 c 0xff9420
250 404 m 0xff9220
 250 400 247 397 244 397 c 0xff9120
 240 397 237 400 237 404 c 0xff9220
 237 407 240 410 244 410 c 0xff9120
 247 410 250 407 250 404 c 0xff9220
260 467 m 0
 278 467 297 479 297 501 c 0
 297 515 290 527 278 533 c 1
 278 533 235 533 215 533 c 1
 215 533 235 526 247 513 c 0
 260 499 260 489 250 489 c 0
 244 489 241 499 222 515 c 0
 213 523 195 529 176 533 c 1
 169 501 156 431 156 382 c 0xffdaa0
 156 273 187 216 195 125 c 0
 195 119 196 114 196 108 c 0
 196 60 175 39 150 18 c 0
 131 2 110 -2 89 -2 c 0
 32 -2 0 20 0 79 c 0
 0 109 21 128 44 128 c 0
 64 128 78 114 78 98 c 0
 78 82 62 72 48 72 c 0
 34 72 22 80 22 80 c 1
 22 80 21 76 21 71 c 0
 21 57 25 31 51 20 c 0
 63 15 75 12 88 12 c 0
 107 12 127 19 143 35 c 0
 156 48 160 67 160 86 c 0
 160 112 152 136 152 136 c 1
 152 136 151 108 133 80 c 0
 122 62 99 47 84 47 c 0
 82 47 l 0
 82 48 112 57 112 124 c 0xffb020
 112 141 110 163 105 189 c 0
 88 274 76 300 76 382 c 0
 76 431 86 501 92 533 c 1
 75 550 l 1
 457 550 l 1
 387 515 l 1
 387 515 391 502 391 486 c 0
 391 458 370 423 356 423 c 0
 353 423 351 425 351 427 c 0
 351 433 367 445 367 471 c 0
 367 496 357 533 329 533 c 2
 315 533 l 1
 329 524 337 503 337 481 c 0
 337 429 274 377 274 339 c 0xffd1a0
 274 327 280 320 280 320 c 1
 280 320 280 320 279 320 c 0
 275 320 262 321 253 343 c 0
 248 356 250 366 250 366 c 1
 250 366 228 343 228 315 c 0
 228 288 247 270 270 270 c 0
 294 270 311 286 311 308 c 0
 311 326 301 332 301 334 c 0
 301 334 302 334 303 334 c 0
 317 334 323 318 323 303 c 0
 323 273 297 257 268 257 c 0
 237 257 214 281 214 308 c 0
 214 335 222 350 237 370 c 0xff9a60
 244 379 258 396 289 419 c 0
 309 434 309 447 309 447 c 1
 309 447 298 433 281 426 c 0
 268 421 260 419 254 419 c 0
 248 419 244 421 244 424 c 0
 244 433 296 428 301 464 c 0
 301 467 302 469 302 472 c 1
 299 466 276 455 255 455 c 0
 236 455 209 470 209 479 c 0
 209 482 211 484 214 484 c 0xff9920
 221 484 234 467 260 467 c 0
EndSplineSet
Validated: 1
Colour: ff00
EndChar

StartChar: uni0414
Encoding: 1044 1044 22
Width: 530
Flags: W
HStem: 0 12<95.5078 120.75 149 359> 42 35<71 90.8413> 407 32<224.188 251.996> 422 7<288.148 316.281> 444.5 9.5<290.406 332.7> 470 12<250.987 329.032> 488 10<263.001 273.999> 503 10<254.001 264.999> 517 10<262.001 272.999> 538 12<333 359 435 461> 644 10<250.86 285.277>
VStem: 46 23<-90.1074 -23 24.0923 42> 141 65<53.3879 235.493> 210 14<436 452.375> 227 9<594.75 628.733> 254 11<503.001 512.999> 263 11<488.001 497.999 517.06 526.94> 276 11<557.909 584.344> 297 7<609.265 627.901> 359 76<12 418 437 462.029 465 490.887 495 538> 457 23<-89.4839 -20.2906>
DStem2: 284 512 283 503 0.982872 -0.184289<-9.48036 32.277>
AnchorPoint: "Yerok" 399 587.2 basechar 0
AnchorPoint: "Diacritic" 400 588 basechar 0
LayerCount: 2
Fore
SplineSet
273 522 m 0xcc739c
 273 519 271 517 268 517 c 0
 265 517 262 519 262 522 c 0
 262 525 265 527 268 527 c 0
 271 527 273 525 273 522 c 0xcc739c
265 508 m 0xccf3dc
 265 505 263 503 260 503 c 0
 257 503 254 505 254 508 c 0
 254 511 257 513 260 513 c 0
 263 513 265 511 265 508 c 0xccf3dc
274 493 m 0xcd73bc
 274 490 271 488 268 488 c 0xce73bc
 265 488 263 490 263 493 c 0xcd73bc
 263 496 265 498 268 498 c 0xce73bc
 271 498 274 496 274 493 c 0xcd73bc
206 115 m 0
 206 61 186 29 149 12 c 1
 359 12 l 1
 359 418 l 1
 338 390 282 349 244 281 c 1
 209 216 205 178 205 145 c 0
 205 135 206 125 206 115 c 0
270 654 m 0
 291 654 304 640 304 620 c 0
 304 613 302 608 296 605 c 0
 290 603 302 611 293 629 c 0
 288 639 280 644 268 644 c 0
 251 644 236 631 236 612 c 0
 236 582 280 548 280 548 c 2
 280 548 276 554 276 566 c 0
 276 585 288 587 288 587 c 1
 288 587 287 581 288 572 c 0
 292 543 334 503 359 495 c 1
 359 538 l 1
 333 538 l 1
 333 550 l 1
 461 550 l 1
 461 538 l 1
 435 538 l 1
 435 12 l 1
 525 12 l 1
 474 -23 l 1
 474 -23 480 -28 480 -45 c 0xed779d
 480 -51 479 -59 477 -69 c 0
 472 -92 456 -104 450 -104 c 0
 449 -104 447 -103 447 -102 c 0xed739e
 447 -99 457 -93 457 -58 c 0
 457 -23 444 0 396 0 c 2
 130 0 l 2
 82 0 69 -23 69 -58 c 0xed779d
 69 -93 79 -99 79 -102 c 0xed7b9c
 79 -103 77 -104 76 -104 c 0
 70 -104 54 -92 49 -69 c 0
 47 -59 46 -51 46 -45 c 0
 46 -28 52 -23 52 -23 c 2
 0 12 l 1
 68 12 l 1
 56 22 50 36 50 52 c 0
 50 69 59 77 70 77 c 0
 81 77 91 70 91 63 c 0
 91 44 78 42 74 42 c 0
 71 42 l 1
 71 23 86 13 102 13 c 0
 110 13 118 15 125 20 c 0
 140 31 142 62 142 62 c 1
 142 62 135 55 128 50 c 0
 119 44 109 46 109 46 c 1
 109 46 129 58 138 84 c 0
 141 91 141 101 141 113 c 0
 141 118 141 124 141 131 c 0
 141 160 143 197 162 236 c 0
 197 308 283 363 333 409 c 1
 332 411 318 418 317 418 c 0
 311 421 305 422 301 422 c 0
 296 422 293 420 290 420 c 0
 289 420 288 421 288 424 c 0
 288 427 294 429 302 429 c 0xdd779c
 307 429 313 428 319 427 c 0
 328 425 342 417 342 417 c 1
 348 423 350 424 354 428 c 1
 349 432 340 438 328 441 c 0
 312 445 290 442 290 448 c 0
 290 451 299 454 312 454 c 0
 330 454 352 444 359 437 c 1
 359 453 l 1
 345 463 302 470 286 470 c 0
 260 470 224 460 224 436 c 1
 224 436 230 439 237 439 c 0
 244 439 252 436 252 421 c 0
 252 411 245 407 237 407 c 0
 222 407 210 416 210 432 c 0
 210 465 247 482 282 482 c 0
 307 482 343 476 359 465 c 1
 359 479 l 1
 348 485 337 491 334 493 c 0
 311 505 273 500 273 507 c 0
 273 510 279 512 284 512 c 0xed779c
 297 512 316 506 316 506 c 1
 316 506 227 560 227 600 c 0
 227 604 226 608 226 611 c 0
 226 622 229 633 236 641 c 0
 245 650 258 654 270 654 c 0
EndSplineSet
Validated: 1
Substitution2: "'ss01' Style Set Simple Forms-1" uni0414.simple
Colour: ff00
EndChar

StartChar: uni0415
Encoding: 1045 1045 23
Width: 475
Flags: W
HStem: -5 17<104.728 277.945> 72 56<77.4369 123.201> 132 35<411.159 431> 132 13<125.002 137.998> 152 13<125.002 137.998> 166 13<109.002 121.998> 195 14<376.978 421.033> 242 43<305.005 341.706> 269 13<29.9133 76.6485> 309 19<269.436 331.96> 380 21<313.5 345.742> 535 16<270 326.188>
VStem: 1 12<210.82 252.055> 55 21<35.1289 79.7801> 96 14<196.159 249.71> 109 13<166.002 178.998> 123 76<268.383 473.329> 125 13<132.002 144.998 152.002 164.998> 176 31<85.6012 135.78> 215 35<47.4513 135.539> 273 65<402.055 454.139> 305 56<23.7229 155.143 251.799 281.24> 342 19<281 300.009> 364 46<426.344 516.7> 431 21<167 187.264>
AnchorPoint: "Yerok" 383.5 574.4 basechar 0
AnchorPoint: "Diacritic" 275 575 basechar 0
LayerCount: 2
Fore
SplineSet
125 139 m 0xd27c5180
 125 142 128 145 132 145 c 0
 135 145 138 142 138 139 c 0
 138 135 135 132 132 132 c 0
 128 132 125 135 125 139 c 0xd27c5180
125 159 m 0
 125 162 128 165 132 165 c 0
 135 165 138 162 138 159 c 0
 138 155 135 152 132 152 c 0xca7c5180
 128 152 125 155 125 159 c 0
109 173 m 0xc67d1180
 109 176 112 179 116 179 c 0
 119 179 122 176 122 173 c 0
 122 169 119 166 116 166 c 0
 112 166 109 169 109 173 c 0xc67d1180
56 282 m 0xd2fe1180
 87 282 110 258 110 231 c 0
 110 204 102 189 87 169 c 0
 80 160 68 151 61 145 c 0
 53 137 50 129 50 129 c 1
 50 129 61 143 78 150 c 0
 91 155 99 157 105 157 c 0
 111 157 115 155 115 151 c 0
 115 143 84 147 59 123 c 0
 53 117 47 99 47 99 c 1
 46 100 27 109 27 129 c 0
 27 160 50 175 50 200 c 0
 50 212 44 219 44 219 c 1
 44 219 44 219 45 219 c 0
 49 219 62 218 71 196 c 0
 76 183 74 173 74 173 c 1
 74 173 96 196 96 224 c 0
 96 251 77 269 54 269 c 0
 30 269 13 253 13 231 c 0
 13 213 23 207 23 205 c 0
 23 205 22 205 21 205 c 0
 7 205 1 221 1 236 c 0
 1 266 27 282 56 282 c 0xd2fe1180
361 277 m 0xe27c9580
 361 255 343 242 325 242 c 0
 314 242 305 247 305 260 c 0xe37c9580
 305 280 315 285 325 285 c 0
 333 285 342 281 342 281 c 1xe37c1380
 342 300 323 309 304 309 c 0
 257 309 237 263 230 238 c 1
 241 204 250 169 250 125 c 0
 250 56 228 31 190 8 c 1
 196 8 203 8 209 8 c 0
 212 8 215 8 218 8 c 0
 245 8 267 9 281 20 c 0
 301 36 305 50 305 67 c 0
 305 81 302 97 302 116 c 0
 302 124 302 132 304 141 c 0
 311 180 354 209 403 209 c 0
 432 209 452 185 452 158 c 0
 452 141 444 132 432 132 c 0xd37c1580
 421 132 411 139 411 146 c 0
 411 165 424 167 428 167 c 0
 431 167 l 1
 431 186 416 195 400 195 c 0
 392 195 384 193 377 189 c 0
 361 180 360 147 360 147 c 1
 360 147 367 154 374 159 c 0
 383 165 393 163 393 163 c 1
 393 163 373 151 364 125 c 0
 362 119 361 114 361 108 c 0
 361 96 364 85 364 71 c 0
 364 63 363 54 359 44 c 0
 344 5 265 -5 198 -5 c 0
 114 -5 55 -4 55 79 c 0
 55 109 76 128 99 128 c 0
 119 128 133 114 133 98 c 0
 133 82 117 72 103 72 c 0
 89 72 77 80 77 80 c 1
 77 80 76 76 76 71 c 0
 76 57 80 31 106 20 c 0
 118 15 130 12 143 12 c 0
 162 12 182 19 198 35 c 0
 211 48 215 67 215 86 c 0
 215 112 207 136 207 136 c 1
 207 136 206 108 188 80 c 0
 177 62 154 47 139 47 c 0
 138 47 l 0
 138 49 176 58 176 115 c 0xe27c7580
 176 134 172 158 160 189 c 0
 125 282 123 300 123 382 c 0
 123 467 173 545 256 550 c 0
 267 551 277 551 287 551 c 0
 366 551 410 528 410 448 c 0
 410 408 373 380 332 380 c 0
 301 380 273 395 273 426 c 0
 273 449 289 466 306 466 c 0
 324 466 338 456 338 438 c 0xe27c9980
 338 436 338 433 337 430 c 0
 332 402 313 401 313 401 c 1
 313 401 362 401 364 451 c 0
 364 453 364 455 364 457 c 0
 364 501 342 535 284 535 c 0
 280 535 275 534 270 534 c 0
 215 529 199 433 199 384 c 0
 199 339 210 303 221 267 c 1
 233 301 266 328 310 328 c 0
 340 328 361 303 361 277 c 0xe27c9580
EndSplineSet
Validated: 1
Substitution2: "'ss01' Style Set Simple Forms-1" uni0415.simple
Colour: ff00
EndChar

StartChar: uni0416
Encoding: 1046 1046 24
Width: 600
Flags: W
HStem: 0 12<31.5396 72.3608 232 258 334 360 521.948 557.543> 40 35<20 39.8413 552.415 572> 224 32<20.0332 43.9814 548.167 571.967> 225 8<82.8373 98.1488 488.391 509.734> 246 11<79.2036 111.69> 252 7<495.571 515.689> 278 9<40.4734 81.5391 500.284 557.042> 296 11<71.0013 81.9987 510.001 520.999> 306 11<86.0549 105.733 481.942 504.902> 312 11<67.0013 77.9987 514.001 524.999> 324 10<78.0013 88.9987 503.001 513.999> 447 10<91.2121 126.414 463.221 503.405> 453 20<180.601 246.249 345.751 411.399> 538 12<82 108 159 185 232 258 334 360 407 433 484 510>
VStem: 0 40<40 74.9725 226.507 256> 0 20<19.7357 40> 67 11<312.001 322.999 381.78 435.058> 78 11<324.001 333.999> 86 31<307.301 369> 105 16<363.375 380.929> 108 51<483.331 538> 258 76<12 332 351 471 474.984 538> 433 51<80.0018 226.42 483.331 538> 471 17<352 382.98> 503 11<324.001 333.999> 510 11<296.001 306.999> 514 11<312.001 322.999 382.685 437.074> 552 41<42.0051 76.9901 228.806 257.996> 572 21<21.7357 42>
AnchorPoint: "Yerok" 461.5 576 basechar 0
AnchorPoint: "Diacritic" 299 575 basechar 0
LayerCount: 2
Fore
SplineSet
108 447 m 0xefa0a0
 91 447 76 434 76 413 c 0
 76 385 103 350 103 350 c 1
 103 350 101 357 104 368 c 0
 110 386 121 385 121 385 c 1
 121 385 117 375 117 367 c 0xefa120
 117 345 136 309 156 287 c 1
 204 342 258 351 258 351 c 1
 258 471 l 1
 247 462 229 453 205 453 c 0
 193 453 180 456 165 461 c 0
 113 481 108 517 108 532 c 0
 108 538 l 1
 82 538 l 1
 82 550 l 1
 185 550 l 1
 185 538 l 1
 159 538 l 1
 159 538 159 536 159 533 c 0
 159 520 162 482 200 475 c 0
 208 473 214 473 220 473 c 0
 241 473 252 481 258 486 c 1
 258 538 l 1
 232 538 l 1
 232 550 l 1
 360 550 l 1
 360 538 l 1
 334 538 l 1
 334 486 l 1
 340 481 351 473 372 473 c 0
 378 473 384 473 392 475 c 0
 430 482 433 520 433 533 c 0
 433 538 l 1
 407 538 l 1
 407 550 l 1
 510 550 l 1
 510 538 l 1
 484 538 l 1
 484 538 484 536 484 532 c 0xcf60b1
 484 517 479 481 427 461 c 0
 412 456 399 453 387 453 c 0
 363 453 345 462 334 471 c 1
 334 353 l 1
 334 353 388 344 436 289 c 1
 456 311 475 347 475 369 c 0xcf6024
 475 377 471 387 471 387 c 1
 471 387 482 388 488 370 c 0
 491 359 489 352 489 352 c 1
 489 352 516 387 516 415 c 0
 516 436 501 449 484 449 c 0xcf6030
 468 449 458 440 456 427 c 0
 451 407 465 402 459 402 c 0
 449 402 446 415 446 426 c 0
 446 449 463 459 485 459 c 0
 513 459 528 436 528 411 c 0
 528 370 465 302 465 302 c 2
 465 302 489 317 500 317 c 0
 503 317 506 316 506 313 c 0
 506 306 456 299 445 278 c 1
 449 274 455 265 455 265 c 1
 481 280 506 287 535 287 c 0
 559 287 588 279 588 251 c 0
 588 237 573 226 562 226 c 0
 554 226 548 233 548 243 c 0
 548 256 560 258 567 258 c 0
 572 258 l 1xef602c20
 567 274 550 278 531 278 c 0
 523 278 514 277 506 276 c 0
 497 274 476 267 460 256 c 1
 461 254 466 245 466 245 c 0
 477 253 493 259 508 259 c 0
 513 259 516 258 516 257 c 0
 516 250 492 251 477 242 c 1xdf202c20
 477 242 473 239 470 237 c 1
 476 225 l 2
 477 225 478 226 479 226 c 0
 488 231 497 233 503 233 c 0xef2022
 508 233 510 232 510 229 c 0
 510 223 501 230 483 218 c 2
 483 218 482 217 480 216 c 1
 503 162 497 106 505 84 c 0
 514 58 534 46 534 46 c 1
 534 46 524 44 515 50 c 0
 508 55 501 62 501 62 c 1
 501 62 502 29 518 20 c 0
 525 16 533 14 541 14 c 0
 557 14 572 23 572 42 c 1xef202120
 572 42 571 42 569 42 c 0
 565 42 552 44 552 63 c 0
 552 70 562 77 573 77 c 0
 585 77 593 68 593 51 c 0
 593 24 573 0 544 0 c 0
 495 0 446 31 439 86 c 0
 432 143 436 192 420 239 c 0
 393 317 334 334 334 334 c 1
 334 12 l 1
 360 12 l 1
 360 0 l 1
 232 0 l 1
 232 12 l 1
 258 12 l 1
 258 332 l 1
 258 332 199 315 172 237 c 0
 156 190 160 141 153 84 c 0
 146 29 97 0 48 0 c 0
 19 0 0 22 0 49 c 0
 0 66 7 75 19 75 c 0
 30 75 40 68 40 61 c 0xef302040
 40 42 27 40 23 40 c 0
 20 40 l 1
 20 21 35 12 51 12 c 0
 59 12 67 14 74 18 c 0
 90 27 91 60 91 60 c 1
 91 60 84 53 77 48 c 0
 68 42 58 44 58 44 c 1
 58 44 78 56 87 82 c 0
 96 107 86 143 108 203 c 0
 109 207 112 214 112 214 c 1
 110 215 109 216 109 216 c 2
 91 228 82 221 82 227 c 0
 82 230 84 231 89 231 c 0xef2aa0
 95 231 104 229 113 224 c 0
 114 224 115 223 116 223 c 2
 122 235 l 1
 119 237 115 240 115 240 c 1
 100 248 76 248 76 255 c 0
 76 256 79 257 84 257 c 0
 97 257 115 251 126 243 c 1
 132 254 l 1
 116 264 95 272 86 274 c 0
 78 275 69 276 61 276 c 0
 42 276 25 272 20 256 c 1
 20 256 22 256 25 256 c 0
 32 256 44 254 44 241 c 0
 44 231 38 224 30 224 c 0
 19 224 4 235 4 249 c 0
 4 277 33 285 57 285 c 0
 86 285 111 278 137 263 c 1
 137 263 143 272 147 276 c 1
 134 295 86 306 86 311 c 0
 86 314 89 315 92 315 c 0
 103 315 127 300 127 300 c 1
 127 300 64 368 64 409 c 0
 64 434 79 457 106 457 c 0
 129 457 146 446 146 422 c 0
 146 412 142 403 133 402 c 0
 127 401 141 405 136 425 c 0xefa960
 134 438 124 447 108 447 c 0xefa0a0
510 302 m 0xcf2021
 510 305 512 307 515 307 c 0
 518 307 521 305 521 302 c 0
 521 299 518 296 515 296 c 0
 512 296 510 299 510 302 c 0xcf2021
514 318 m 0xcf202080
 514 321 517 323 520 323 c 0
 523 323 525 321 525 318 c 0
 525 315 523 312 520 312 c 0
 517 312 514 315 514 318 c 0xcf202080
503 329 m 0xcf2022
 503 332 505 334 508 334 c 0
 511 334 514 332 514 329 c 0
 514 326 511 324 508 324 c 0
 505 324 503 326 503 329 c 0xcf2022
82 302 m 0
 82 299 80 296 77 296 c 0
 74 296 71 299 71 302 c 0
 71 305 74 307 77 307 c 0
 80 307 82 305 82 302 c 0
78 318 m 0xcf2420
 78 315 75 312 72 312 c 0
 69 312 67 315 67 318 c 0
 67 321 69 323 72 323 c 0
 75 323 78 321 78 318 c 0xcf2420
89 329 m 0xcf2220
 89 326 87 324 84 324 c 0
 81 324 78 326 78 329 c 0
 78 332 81 334 84 334 c 0
 87 334 89 332 89 329 c 0xcf2220
EndSplineSet
Validated: 1
Substitution2: "'ss01' Style Set Simple Forms-1" uni0416.simple
Colour: ff00
EndChar

StartChar: uni0417
Encoding: 1047 1047 25
Width: 480
Flags: W
HStem: -90 18<17.4178 38> -4 9<267.771 311.43> 48 9<279.236 309.521> 57 27<98.8759 181> 121 10<250.001 260.999> 133 11<243.001 253.999 266.297 279.979> 146 11<248.001 258.999> 162 12<237.473 290.989> 191 26<231 252.997> 235 66<200.798 255.023> 322 26<231.156 252.997> 365 12<237.473 290.989> 382 11<248.001 258.999> 394 7<262.003 290.608> 395 11<243.001 253.999> 408 10<250.001 260.999> 427 12<52 78 154 180> 482 9<280.356 309.832> 529 21<204.146 315.938>
VStem: -6 14<-59.88 -12.5> 36 43<-71.812 -42.0046> 78 76<439 499.893> 191 65<272 291.202> 219 12<180.081 194 345 358.919> 243 11<133.001 143.999 395.001 405.999> 248 11<121.206 130.794 146.001 156.999 382.001 392.999 408.206 417.794> 261 8<68.9656 102.406 436.371 469.554> 287 8<93.0977 119.161 420.465 445.626> 317 13<70.7859 82.8438 160.754 213.122 352.055 378.125> 384 62<329.743 477.741> 391 73<54.9093 199.338>
DStem2: 36 -3 40 -21 0.20601 0.97855<-16.5703 19.1503>
AnchorPoint: "Yerok" 417 568 basechar 0
AnchorPoint: "Diacritic" 257 575 basechar 0
LayerCount: 2
Fore
SplineSet
261 413 m 0xc8f8f88c
 261 410 259 408 256 408 c 0
 253 408 250 410 250 413 c 0
 250 416 253 418 256 418 c 0
 259 418 261 416 261 413 c 0xc8f8f88c
254 402 m 0xc8f9f82c
 254 399 251 395 248 395 c 0xc8f9f81c
 245 395 243 399 243 402 c 0xc8f9f82c
 243 405 245 406 248 406 c 0xc8f9f81c
 251 406 254 405 254 402 c 0xc8f9f82c
259 388 m 0
 259 385 257 382 254 382 c 0xc8fcf82c
 251 382 248 385 248 388 c 0xc8fcf81c
 248 391 251 393 254 393 c 0xc8fcf82c
 257 393 259 391 259 388 c 0
296 491 m 0
 313 491 324 478 324 462 c 0xc8f9f80e
 324 457 322 452 317 451 c 0xc8f9f80d
 312 450 322 456 315 470 c 0xc8f9f80e
 311 479 304 482 295 482 c 0
 280 482 269 471 269 456 c 0
 269 433 289 415 289 415 c 1
 289 415 287 420 287 430 c 0
 287 446 295 446 295 446 c 1
 295 434 l 1
 295 411 319 402 326 377 c 0
 328 369 330 363 330 356 c 0
 330 347 323 327 322 324 c 1
 320 338 299 365 265 365 c 0
 248 365 231 359 231 345 c 1
 231 345 236 348 242 348 c 0
 248 348 253 345 253 333 c 0
 253 325 247 322 241 322 c 0
 229 322 219 329 219 342 c 0
 219 366 243 377 266 377 c 0
 285 377 305 367 316 352 c 1
 316 355 317 357 317 360 c 0
 317 370 313 379 301 386 c 0
 281 399 262 390 262 397 c 0
 262 400 266 401 271 401 c 0xc8faf84d
 284 401 305 395 305 395 c 2xc8f9f84d
 304 396 261 419 261 455 c 0
 261 476 275 491 296 491 c 0
261 126 m 0
 261 123 259 121 256 121 c 0
 253 121 250 123 250 126 c 0
 250 129 253 131 256 131 c 0xc8f8f88c
 259 131 261 129 261 126 c 0
254 138 m 0xcaf8f82c
 254 135 251 133 248 133 c 0xccf8f81c
 245 133 243 135 243 138 c 0xcaf8f82c
 243 141 245 144 248 144 c 0xccf8f81c
 251 144 254 141 254 138 c 0xcaf8f82c
259 151 m 0
 259 148 257 146 254 146 c 0xc9f8f82c
 251 146 248 148 248 151 c 0xc9f8f81c
 248 154 251 157 254 157 c 0xc9f8f82c
 257 157 259 154 259 151 c 0
224 301 m 0
 240 301 256 289 256 272 c 1
 280 278 326 280 359 322 c 0
 376 343 384 373 384 402 c 0
 384 465 345 529 265 529 c 0
 193 529 154 499 154 439 c 1
 180 439 l 1
 180 427 l 1
 52 427 l 1
 52 439 l 1
 78 439 l 1
 78 481 99 550 265 550 c 0
 345 550 446 535 446 427 c 0xd8f8f98c80
 446 335 414 303 358 277 c 0
 352 274 346 272 340 270 c 1
 409 254 464 196 464 124 c 0
 464 23 358 -4 277 -4 c 0
 239 -4 207 2 194 9 c 0
 153 32 147 57 124 57 c 0
 113 57 99 52 76 39 c 0
 50 25 40 -21 40 -21 c 1
 40 -21 36 -13 36 -3 c 0
 36 4 40 16 40 16 c 1xd8f8fa0c40
 40 16 23 2 14 -14 c 0
 10 -20 8 -28 8 -36 c 0
 8 -54 18 -72 38 -72 c 1
 38 -72 36 -67 36 -61 c 0
 36 -52 40 -42 58 -42 c 0
 71 -42 79 -48 79 -61 c 0
 79 -74 66 -90 43 -90 c 0
 17 -90 -6 -69 -6 -40 c 0
 -6 9 38 40 70 57 c 0
 100 73 128 84 155 84 c 0
 188 84 220 67 256 19 c 0
 264 9 276 5 289 5 c 0
 301 5 314 9 325 13 c 0
 370 31 391 75 391 121 c 0
 391 174 362 230 308 252 c 0
 286 261 268 264 257 264 c 1
 255 248 241 235 224 235 c 0
 205 235 191 250 191 268 c 0xd8f8fc8c40
 191 287 206 301 224 301 c 0
322 215 m 1
 324 212 330 192 330 183 c 0xcaf8f84d
 330 176 328 170 326 162 c 0
 319 137 295 128 295 105 c 1
 295 93 l 1
 295 93 287 93 287 109 c 0
 287 119 289 124 289 124 c 1
 289 124 269 106 269 83 c 0
 269 68 280 57 295 57 c 0
 304 57 311 60 315 69 c 0xeaf8f80e
 322 83 312 89 317 88 c 0xeaf8f80d
 322 87 324 82 324 77 c 0
 324 61 313 48 296 48 c 0xeaf8f80e
 275 48 261 63 261 84 c 0
 261 120 304 143 305 144 c 2xdcf8f80e
 305 144 284 138 271 138 c 0
 266 138 262 139 262 142 c 0
 262 149 281 140 301 153 c 0
 313 160 317 169 317 179 c 0
 317 182 316 184 316 187 c 1
 305 172 285 162 266 162 c 0
 243 162 219 173 219 197 c 0
 219 210 229 217 241 217 c 0
 247 217 253 214 253 206 c 0
 253 194 248 191 242 191 c 0
 236 191 231 194 231 194 c 1xcaf8f84d
 231 180 248 174 265 174 c 0
 299 174 320 201 322 215 c 1
EndSplineSet
Validated: 1
Substitution2: "'ss01' Style Set Simple Forms-1" uni0417.simple
Colour: ff00
EndChar

StartChar: uni0414.simple
Encoding: 62740 62740 26
Width: 530
GlyphClass: 2
Flags: W
HStem: 0 12<96.5078 122.286 150 360> 42 35<72 91.8413> 538 12<334 360 436 462>
VStem: 47 23<-89.5156 -23 24.0923 42> 142 65<53.2993 236.953> 360 76<12 418 437 538> 458 23<-89.4839 -20.2906>
AnchorPoint: "Yerok" 400 576.6 basechar 0
AnchorPoint: "Diacritic" 400 576 basechar 0
LayerCount: 2
Fore
SplineSet
207 115 m 0xe6
 207 61 187 29 150 12 c 1
 360 12 l 1
 360 418 l 1
 339 390 283 349 245 281 c 1
 210 216 206 178 206 145 c 0
 206 135 207 125 207 115 c 0xe6
51 52 m 0
 51 69 60 77 71 77 c 0
 82 77 92 70 92 63 c 0
 92 44 79 42 75 42 c 0
 72 42 l 1
 72 23 87 13 103 13 c 0
 111 13 119 15 126 20 c 0
 141 31 143 62 143 62 c 1
 143 62 136 55 129 50 c 0
 120 44 110 46 110 46 c 1
 110 46 130 58 139 84 c 0
 141 90 142 99 142 110 c 0
 142 117 142 126 142 135 c 0
 142 163 144 199 163 236 c 0
 226 359 360 437 360 437 c 1
 360 538 l 1
 334 538 l 1
 334 550 l 1
 462 550 l 1
 462 538 l 1
 436 538 l 1
 436 12 l 1
 526 12 l 1
 475 -23 l 1
 475 -23 481 -28 481 -45 c 0xee80
 481 -51 480 -59 478 -69 c 0
 473 -92 457 -104 451 -104 c 0
 450 -104 448 -103 448 -102 c 0xe7
 448 -99 458 -93 458 -58 c 0
 458 -23 445 0 397 0 c 2
 131 0 l 2
 83 0 70 -23 70 -58 c 0xee80
 70 -93 80 -99 80 -102 c 0xf6
 80 -103 78 -104 77 -104 c 0
 71 -104 55 -92 50 -69 c 0
 48 -59 47 -51 47 -45 c 0xee
 47 -28 53 -23 53 -23 c 2
 0 12 l 1
 69 12 l 1
 57 22 51 36 51 52 c 0
EndSplineSet
Validated: 1
Colour: ff00
EndChar

StartChar: uni0415.simple
Encoding: 62741 62741 27
Width: 420
GlyphClass: 2
Flags: W
HStem: -5 13<69.3552 209.759> 72 56<22.4369 68.2014> 132 35<356.159 376> 195 14<323.088 366.033> 242 43<250.005 286.706> 309 19<214.436 276.96> 380 21<258.5 290.134> 535 16<195.427 271.188>
VStem: 0 21<35.1383 79.7801> 68 76<268.383 473.371> 121 31<85.6012 135.78> 160 35<47.3848 135.54> 218 65<402.055 454.139> 250 56<23.7229 155.143 251.799 281.24> 287 19<281 300.009> 309 46<409.162 516.7> 376 21<167 187.264>
AnchorPoint: "Yerok" 333.5 575.4 basechar 0
AnchorPoint: "Diacritic" 226 575 basechar 0
LayerCount: 2
Fore
SplineSet
306 277 m 0xffd580
 306 255 288 242 270 242 c 0
 259 242 250 247 250 260 c 0xffd580
 250 280 260 285 270 285 c 0
 278 285 287 281 287 281 c 1xff9380
 287 300 268 309 249 309 c 0
 202 309 182 263 175 238 c 1
 186 204 195 169 195 125 c 0
 195 56 173 31 135 8 c 1
 142 8 148 8 154 8 c 0
 157 8 160 8 163 8 c 0
 190 8 212 9 226 20 c 0
 246 36 250 50 250 67 c 0
 250 81 247 97 247 116 c 0
 247 124 247 132 249 141 c 0
 256 180 299 209 348 209 c 0
 377 209 397 185 397 158 c 0
 397 141 389 132 377 132 c 0
 366 132 356 139 356 146 c 0
 356 165 369 167 373 167 c 0
 376 167 l 1
 376 186 361 195 345 195 c 0
 337 195 329 193 322 189 c 0
 306 180 305 147 305 147 c 1
 305 147 312 154 319 159 c 0
 328 165 338 163 338 163 c 1
 338 163 318 151 309 125 c 0
 307 119 306 114 306 108 c 0
 306 96 309 85 309 71 c 0
 309 63 308 54 304 44 c 0
 289 5 210 -5 143 -5 c 0
 59 -5 0 -4 0 79 c 0
 0 109 21 128 44 128 c 0
 64 128 78 114 78 98 c 0
 78 82 62 72 48 72 c 0
 34 72 22 80 22 80 c 1
 22 80 21 76 21 71 c 0
 21 57 25 31 51 20 c 0
 63 15 75 12 88 12 c 0
 107 12 127 19 143 35 c 0
 156 48 160 67 160 86 c 0
 160 112 152 136 152 136 c 1
 152 136 151 108 133 80 c 0
 122 62 99 47 84 47 c 0
 83 47 l 0
 83 49 121 58 121 115 c 0xffb580
 121 134 117 158 105 189 c 0
 70 282 68 300 68 382 c 0
 68 467 118 545 201 550 c 0
 212 551 222 551 232 551 c 0
 311 551 355 528 355 448 c 0
 355 408 318 380 277 380 c 0
 246 380 218 395 218 426 c 0
 218 449 234 466 251 466 c 0
 269 466 283 456 283 438 c 0xffd980
 283 436 283 433 282 430 c 0
 277 402 258 401 258 401 c 1
 258 401 307 401 309 451 c 0
 309 453 309 455 309 457 c 0
 309 501 287 535 229 535 c 0
 225 535 220 534 215 534 c 0
 160 529 144 433 144 384 c 0
 144 339 155 303 166 267 c 1
 178 301 211 328 255 328 c 0
 285 328 306 303 306 277 c 0xffd580
EndSplineSet
Validated: 1
Colour: ff00
EndChar

StartChar: uni0416.simple
Encoding: 62742 62742 28
Width: 600
GlyphClass: 2
Flags: W
HStem: 0 12<32.6423 70.1579 232 258 334 360 531.156 558.299> 42 32.5<20.0425 39.7839 552.332 571.968> 493 57<85.8013 97.8086 494.191 506.199> 494 24<98.0447 112.236 479.758 493.955> 538 12<232 258 334 360>
VStem: -2 22<20.8906 42> 12 28<42.8696 74.358> 81.5 31<493.61 517.969> 152 47<418.175 534.746> 258 76<12 359 378 388 398 538> 391 49<415.94 533.623> 479 31.5<493.096 517.996> 572 22<20.1393 42.439>
AnchorPoint: "Yerok" 469.5 577 basechar 0
AnchorPoint: "Diacritic" 300 575 basechar 0
LayerCount: 2
Fore
SplineSet
98 492 m 0
 89 492 82 498 82 511 c 0
 82 531 97 550 119 550 c 0
 162 550 192 535 199 501 c 0
 206 467 195 451 213 427 c 0
 228 407 243 401 258 398 c 1
 258 538 l 1
 232 538 l 1
 232 550 l 1
 360 550 l 1
 360 538 l 1
 334 538 l 1
 334 398 l 1
 349 401 364 407 379 427 c 0
 397 451 386 467 393 501 c 0
 400 535 430 550 473 550 c 0
 495 550 510 531 510 511 c 0
 510 498 503 492 494 492 c 0
 487 492 479 496 479 502 c 0
 479 521 494 518 494 518 c 1
 494 532 482 539 470 539 c 0
 464 539 459 538 454 535 c 0
 442 527 441 503 441 503 c 1
 451 513 457 517 466 515 c 1
 466 515 451 506 444 487 c 0
 437 467 443 451 435 432 c 0
 419 395 367 388 334 388 c 1
 334 378 l 1
 334 378 446 304 484 205 c 0
 507 146 496 109 505 84 c 0
 514 58 534 46 534 46 c 1
 534 46 524 44 515 50 c 0
 508 55 501 62 501 62 c 1
 501 62 502 29 518 20 c 0
 525 16 533 14 541 14 c 0
 557 14 572 23 572 42 c 1
 572 42 571 42 569 42 c 0
 565 42 552 44 552 63 c 0
 552 70 562 77 573 77 c 0
 585 77 593 68 593 51 c 0
 593 24 573 0 544 0 c 0
 495 0 446 31 439 86 c 0
 432 143 436 192 420 239 c 0
 393 317 334 359 334 359 c 1
 334 12 l 1
 360 12 l 1
 360 0 l 1
 232 0 l 1
 232 12 l 1
 258 12 l 1
 258 359 l 1
 258 359 199 317 172 239 c 0
 156 192 160 143 153 86 c 0
 146 31 97 0 48 0 c 0
 19 0 0 24 0 51 c 0
 0 68 7 77 19 77 c 0
 30 77 40 70 40 63 c 0
 40 44 27 42 23 42 c 0
 20 42 l 1
 20 23 35 14 51 14 c 0
 59 14 67 16 74 20 c 0
 90 29 91 62 91 62 c 1
 91 62 84 55 77 50 c 0
 68 44 58 46 58 46 c 1
 58 46 78 58 87 84 c 0
 96 109 85 146 108 205 c 0
 146 304 258 378 258 378 c 1
 258 388 l 1
 225 388 173 395 157 432 c 0
 149 451 155 467 148 487 c 0
 141 506 126 515 126 515 c 1
 139 519 147 505 151 503 c 1
 151 503 149 528 137 536 c 0
 132 539 127 540 121 540 c 0
 109 540 98 532 98 518 c 1
 100 516 109 523 113 502 c 1
 113 496 105 492 98 492 c 0
EndSplineSet
Validated: 1
Colour: ff00
EndChar

StartChar: uni0417.simple
Encoding: 62743 62743 29
Width: 480
GlyphClass: 2
Flags: W
HStem: -91 19<17.7197 38> -3 7<269.663 310.8> 57 27<98.9702 149.462> 235 66<201.313 245.718> 264 8<256.204 275.833> 427 12<52 78 154 180> 529 21<204.146 315.288>
VStem: -6 14<-59.0471 -11.8639> 36 42<-71.76 -42.0396> 78 76<439 499.893> 191 65<272 291.718> 384 62<329.995 478.194> 392 72<56.4902 197.862>
DStem2: 36 -3 40 -21 0.20601 0.97855<-16.5703 19.1503>
AnchorPoint: "Yerok" 418 575 basechar 0
AnchorPoint: "Diacritic" 266 575 basechar 0
LayerCount: 2
Fore
SplineSet
224 301 m 0xff28
 240 301 256 289 256 272 c 1
 280 278 326 280 359 322 c 0
 376 343 384 373 384 402 c 0
 384 465 345 529 265 529 c 0
 193 529 154 499 154 439 c 1
 180 439 l 1
 180 427 l 1
 52 427 l 1
 52 439 l 1
 78 439 l 1
 78 481 99 550 265 550 c 0
 345 550 446 535 446 427 c 0xfe70
 446 335 414 303 358 277 c 0
 352 274 346 272 340 270 c 1
 409 254 464 196 464 124 c 0
 464 23 358 -4 277 -4 c 0
 239 -4 207 2 194 9 c 0
 153 32 147 57 124 57 c 0
 113 57 99 52 76 39 c 0
 50 25 40 -21 40 -21 c 1
 40 -21 36 -13 36 -3 c 0
 36 4 40 16 40 16 c 1xfea8
 40 16 23 2 14 -14 c 0
 10 -20 8 -28 8 -36 c 0
 8 -54 18 -72 38 -72 c 1
 38 -72 36 -67 36 -61 c 0
 36 -52 40 -42 58 -42 c 0
 71 -42 79 -48 79 -61 c 0
 79 -74 66 -90 43 -90 c 0
 17 -90 -6 -69 -6 -40 c 0
 -6 9 38 40 70 57 c 0
 100 73 128 84 155 84 c 0
 188 84 220 67 256 19 c 0
 264 9 276 5 289 5 c 0
 301 5 314 9 325 13 c 0
 370 31 391 75 391 121 c 0
 391 174 362 230 308 252 c 0
 286 261 268 264 257 264 c 1
 255 248 241 235 224 235 c 0
 205 235 191 250 191 268 c 0
 191 287 206 301 224 301 c 0xff28
EndSplineSet
Validated: 1
Colour: ff00
EndChar

StartChar: uni0418
Encoding: 1048 1048 30
Width: 525
Flags: W
HStem: -2 14<108.595 177.43 358.595 427.43> 72 56<77.4369 123.201 327.437 373.201> 132 13<125.002 137.998> 152 13<125.002 137.998> 166 13<109.002 121.998> 269 13<29.9133 76.6485> 534 20<235.908 249 485.908 507.359>
VStem: 1 12<210.82 252.055> 55 21<35.666 79.7801> 96 14<196.159 249.71> 109 13<166.002 178.998> 125 13<132.002 144.998 152.002 164.998> 131 80<261.191 518.698> 167 40<79.9407 135.763> 215 36<46.8135 125> 266 64<349.955 409.045> 305 21<35.666 79.7801> 381 80<224.617 489.839> 417 40<79.9407 135.763> 465 36<46.8135 125>
AnchorPoint: "Yerok" 460.5 575.4 basechar 0
AnchorPoint: "Diacritic" 327 575 basechar 0
LayerCount: 2
Fore
SplineSet
125 139 m 0xff9210
 125 142 128 145 132 145 c 0
 135 145 138 142 138 139 c 0
 138 135 135 132 132 132 c 0
 128 132 125 135 125 139 c 0xff9210
125 159 m 0
 125 162 128 165 132 165 c 0
 135 165 138 162 138 159 c 0
 138 155 135 152 132 152 c 0
 128 152 125 155 125 159 c 0
109 173 m 0xffa210
 109 176 112 179 116 179 c 0
 119 179 122 176 122 173 c 0
 122 169 119 166 116 166 c 0
 112 166 109 169 109 173 c 0xffa210
56 282 m 0
 87 282 110 258 110 231 c 0
 110 204 102 189 87 169 c 0
 80 160 68 151 61 145 c 0
 53 137 50 129 50 129 c 1
 50 129 61 143 78 150 c 0
 91 155 99 157 105 157 c 0
 111 157 115 155 115 151 c 0
 115 143 84 147 59 123 c 0
 53 117 47 99 47 99 c 1
 46 100 27 109 27 129 c 0
 27 160 50 175 50 200 c 0
 50 201 l 0
 50 213 44 219 44 219 c 1
 44 219 44 219 45 219 c 0
 49 219 62 218 71 196 c 0
 76 183 74 173 74 173 c 1
 74 173 96 196 96 224 c 0xffc210
 96 251 77 269 54 269 c 0
 30 269 13 253 13 231 c 0
 13 213 23 207 23 205 c 0
 23 205 22 205 21 205 c 0
 7 205 1 221 1 236 c 0
 1 266 27 282 56 282 c 0
290 349 m 1
 280 353 266 362 266 377 c 0
 266 383 268 388 271 395 c 0
 282 423 297 439 320 455 c 0
 343 472 374 478 391 480 c 1
 397 506 405 526 412 536 c 0
 423 550 445 554 464 554 c 0
 490 554 508 552 508 541 c 0
 508 534 503 534 498 534 c 0
 474 534 461 419 461 382 c 0xff8b50
 461 273 492 216 500 125 c 0
 500 119 501 114 501 108 c 0
 501 60 480 39 455 18 c 0
 436 2 415 -2 394 -2 c 0
 337 -2 305 20 305 79 c 0
 305 109 326 128 349 128 c 0
 369 128 383 114 383 98 c 0
 383 82 367 72 353 72 c 0
 339 72 327 80 327 80 c 1
 327 80 326 76 326 71 c 0
 326 57 330 31 356 20 c 0
 368 15 380 12 393 12 c 0
 412 12 432 19 448 35 c 0
 461 48 465 67 465 86 c 0
 465 112 457 136 457 136 c 1
 457 136 456 108 438 80 c 0
 427 62 404 47 389 47 c 0
 387 47 l 0
 387 48 417 57 417 124 c 0xff82b0
 417 141 415 163 410 189 c 0
 393 274 381 300 381 382 c 0
 381 410 384 438 388 463 c 1
 372 460 353 453 335 443 c 0
 315 431 311 418 306 410 c 1
 316 406 330 397 330 382 c 0
 330 377 328 372 325 364 c 0
 310 320 266 290 221 281 c 1
 230 227 245 183 250 125 c 0
 250 119 251 114 251 108 c 0
 251 60 230 39 205 18 c 0
 186 2 165 -2 144 -2 c 0
 87 -2 55 20 55 79 c 0
 55 109 76 128 99 128 c 0
 119 128 133 114 133 98 c 0
 133 82 117 72 103 72 c 0
 89 72 77 80 77 80 c 1
 77 80 76 76 76 71 c 0
 76 57 80 31 106 20 c 0
 118 15 130 12 143 12 c 0
 162 12 182 19 198 35 c 0
 211 48 215 67 215 86 c 0
 215 112 207 136 207 136 c 1
 207 136 206 108 188 80 c 0
 177 62 154 47 139 47 c 0
 137 47 l 0
 137 48 167 57 167 124 c 0xff8750
 167 141 165 163 160 189 c 0
 143 274 131 300 131 382 c 0
 131 447 146 516 162 536 c 0
 173 550 195 554 214 554 c 0
 233 554 249 550 249 550 c 1
 264 545 258 532 250 534 c 0
 248 534 l 0
 224 534 211 419 211 382 c 0xff8a10
 211 350 214 322 218 297 c 1
 231 301 246 307 261 316 c 0
 281 328 285 341 290 349 c 1
EndSplineSet
Validated: 1
Substitution2: "'ss01' Style Set Simple Forms-1" uni0418.simple
Colour: ff00
EndChar

StartChar: uni041B
Encoding: 1051 1051 31
Width: 430
Flags: W
HStem: 0 12<33.6423 71.1579 283 309 385 411> 42 32.5<21.0215 40.6992> 408 31<174.126 201.815> 420 9<238.248 273.312> 443 12<240.035 284.997> 470 11<196.385 275.672> 488 10<213.001 223.999> 503 10<204.001 214.999 223.962 255.87> 517 10<212.001 222.999> 538 12<283 309 385 411> 644 10<200.271 235.718>
VStem: -1 22<20.8906 42> 90 65<36.4517 233.909> 160 14<436 453.93> 175 11<592.953 630.653> 204 11<503.011 512.999> 213 11<488.011 497.999 517.02 526.94> 226 11<557.909 584.344> 309 76<12 418 437 461.855 465 490.931 495 538>
DStem2: 292 417 309 418 0.691905 0.721988<0 12.4844>
AnchorPoint: "Yerok" 347.5 577.6 basechar 0
AnchorPoint: "Diacritic" 348.5 578 basechar 0
LayerCount: 2
Fore
SplineSet
223 522 m 0xcc7f38
 223 519 221 517 218 517 c 0
 215 517 212 519 212 522 c 0
 212 525 215 527 218 527 c 0
 221 527 223 525 223 522 c 0xcc7f38
215 508 m 0xccffb8
 215 505 213 503 210 503 c 0
 207 503 204 505 204 508 c 0
 204 511 207 513 210 513 c 0
 213 513 215 511 215 508 c 0xccffb8
224 493 m 0xcd7f78
 224 490 221 488 218 488 c 0xce7f78
 215 488 213 490 213 493 c 0xcd7f78
 213 496 215 498 218 498 c 0xce7f78
 221 498 224 496 224 493 c 0xcd7f78
-0 51 m 0
 -0 68 8 77 20 77 c 0
 31 77 41 70 41 63 c 0
 41 44 28 42 24 42 c 0
 21 42 l 1
 21 23 36 14 52 14 c 0
 60 14 68 16 75 20 c 0
 91 29 92 62 92 62 c 1
 92 62 85 55 78 50 c 0
 69 44 59 46 59 46 c 1
 59 46 79 58 88 84 c 0
 91 91 91 101 91 113 c 0
 91 118 91 124 91 131 c 0
 91 160 93 197 112 236 c 0
 147 308 233 363 283 409 c 1
 282 411 268 418 267 418 c 0
 261 421 255 422 251 422 c 0
 246 422 243 420 240 420 c 0
 239 420 238 421 238 424 c 0
 238 427 244 429 252 429 c 0xdd7f38
 257 429 263 428 269 427 c 0
 278 425 292 417 292 417 c 1
 298 423 300 424 304 428 c 1
 299 432 290 438 278 441 c 0
 262 445 240 442 240 448 c 0
 240 451 249 454 262 454 c 0
 280 454 302 444 309 437 c 1
 309 453 l 1
 295 463 252 470 236 470 c 0
 210 470 174 460 174 436 c 1
 174 436 180 439 187 439 c 0
 194 439 202 436 202 421 c 0
 202 411 195 407 187 407 c 0
 172 407 160 416 160 432 c 0
 160 465 197 482 232 482 c 0
 257 482 293 476 309 465 c 1
 309 479 l 1
 298 485 287 491 284 493 c 0
 261 505 223 500 223 507 c 0
 223 510 229 512 234 512 c 0xed7f38
 247 512 266 506 266 506 c 1
 266 506 177 560 177 600 c 0
 177 604 176 608 176 611 c 0
 176 622 179 633 186 641 c 0
 195 650 208 654 220 654 c 0
 241 654 254 640 254 620 c 0
 254 613 252 608 246 605 c 0
 240 603 252 611 243 629 c 0
 238 639 230 644 218 644 c 0
 201 644 186 631 186 612 c 0
 186 582 230 548 230 548 c 2
 230 548 226 554 226 566 c 0
 226 585 238 587 238 587 c 1
 238 587 237 581 238 572 c 0
 242 543 284 503 309 495 c 1
 309 538 l 1
 283 538 l 1
 283 550 l 1
 411 550 l 1
 411 538 l 1
 385 538 l 1
 385 12 l 1
 411 12 l 1
 411 0 l 1
 283 0 l 1
 283 12 l 1
 309 12 l 1
 309 418 l 1
 288 390 232 349 195 281 c 0
 159 214 156 175 156 140 c 0
 156 133 156 125 156 118 c 0
 156 108 154 97 154 86 c 0
 154 31 98 0 49 0 c 0
 20 0 -0 24 -0 51 c 0
EndSplineSet
Validated: 1
Substitution2: "'ss01' Style Set Simple Forms-1" uni041B.simple
Colour: ff00
EndChar

StartChar: uni041C
Encoding: 1052 1052 32
Width: 630
Flags: W
HStem: 0 12<33.6423 71.1579 283 309 385 411 483 509 585 611> 42 32.5<21.0215 40.6992> 408 31<174.126 201.815> 420 9<238.248 273.312> 443 12<240.035 284.997> 470 11<196.385 275.672> 488 10<213.001 223.999> 503 10<204.001 214.999 223.962 255.87> 517 10<212.001 222.999> 538 12<283 309 385 411 483 509 585 611> 644 10<200.271 235.718>
VStem: -1 22<20.8906 42> 90 65<36.4517 233.909> 160 14<436 453.93> 175 11<592.953 630.653> 204 11<503.011 512.999> 213 11<488.011 497.999 517.02 526.94> 226 11<557.909 584.344> 309 76<12 300 323 418 437 461.855 465 490.931 495 538> 509 76<12 423 447 538>
DStem2: 71 17 118.5 23 0.707107 0.707107<7.77403 36.3497 438.406 596.798> 292 417 309 418 0.691905 0.721988<0 12.4844>
AnchorPoint: "Yerok" 549.5 576.6 basechar 0
AnchorPoint: "Diacritic" 446 575 basechar 0
LayerCount: 2
Fore
SplineSet
223 522 m 0xcc7f3c
 223 519 221 517 218 517 c 0
 215 517 212 519 212 522 c 0
 212 525 215 527 218 527 c 0
 221 527 223 525 223 522 c 0xcc7f3c
215 508 m 0xccffbc
 215 505 213 503 210 503 c 0
 207 503 204 505 204 508 c 0
 204 511 207 513 210 513 c 0
 213 513 215 511 215 508 c 0xccffbc
224 493 m 0xcd7f7c
 224 490 221 488 218 488 c 0xce7f7c
 215 488 213 490 213 493 c 0xcd7f7c
 213 496 215 498 218 498 c 0xce7f7c
 221 498 224 496 224 493 c 0xcd7f7c
220 654 m 0
 241 654 254 640 254 620 c 0
 254 613 252 608 246 605 c 0
 240 603 252 611 243 629 c 0
 238 639 230 644 218 644 c 0
 201 644 186 631 186 612 c 0
 186 582 230 548 230 548 c 2
 230 548 226 554 226 566 c 0
 226 585 238 587 238 587 c 1
 238 587 237 581 238 572 c 0
 242 543 284 503 309 495 c 1
 309 538 l 1
 283 538 l 1
 283 550 l 1
 411 550 l 1
 411 538 l 1
 385 538 l 1
 385 323 l 1
 509 447 l 1
 509 538 l 1
 483 538 l 1
 483 550 l 1
 611 550 l 1
 611 538 l 1
 585 538 l 1
 585 12 l 1
 611 12 l 1
 611 0 l 1
 483 0 l 1
 483 12 l 1
 509 12 l 1
 509 423 l 1
 385 300 l 1
 385 12 l 1
 411 12 l 1
 411 0 l 1
 283 0 l 1
 283 12 l 1
 309 12 l 1
 309 418 l 1
 288 390 232 349 195 281 c 0
 159 214 156 175 156 140 c 0
 156 133 156 125 156 118 c 0
 156 108 154 97 154 86 c 0
 154 31 98 0 49 0 c 0
 20 0 -0 24 -0 51 c 0
 -0 68 8 77 20 77 c 0
 31 77 41 70 41 63 c 0
 41 44 28 42 24 42 c 0
 21 42 l 1
 21 23 36 14 52 14 c 0
 60 14 68 16 75 20 c 0
 91 29 92 62 92 62 c 1
 92 62 85 55 78 50 c 0
 69 44 59 46 59 46 c 1
 59 46 79 58 88 84 c 0
 91 91 91 101 91 113 c 0
 91 118 91 124 91 131 c 0
 91 160 93 197 112 236 c 0
 147 308 233 363 283 409 c 1
 282 411 268 418 267 418 c 0
 261 421 255 422 251 422 c 0
 246 422 243 420 240 420 c 0
 239 420 238 421 238 424 c 0
 238 427 244 429 252 429 c 0xdd7f3c
 257 429 263 428 269 427 c 0
 278 425 292 417 292 417 c 1
 298 423 300 424 304 428 c 1
 299 432 290 438 278 441 c 0
 262 445 240 442 240 448 c 0
 240 451 249 454 262 454 c 0
 280 454 302 444 309 437 c 1
 309 453 l 1
 295 463 252 470 236 470 c 0
 210 470 174 460 174 436 c 1
 174 436 180 439 187 439 c 0
 194 439 202 436 202 421 c 0
 202 411 195 407 187 407 c 0
 172 407 160 416 160 432 c 0
 160 465 197 482 232 482 c 0
 257 482 293 476 309 465 c 1
 309 479 l 1
 298 485 287 491 284 493 c 0
 261 505 223 500 223 507 c 0
 223 510 229 512 234 512 c 0xed7f3c
 247 512 266 506 266 506 c 1
 266 506 177 560 177 600 c 0
 177 604 176 608 176 611 c 0
 176 622 179 633 186 641 c 0
 195 650 208 654 220 654 c 0
EndSplineSet
Validated: 1
Substitution2: "'ss01' Style Set Simple Forms-1" uni041C.simple
Colour: ff00
EndChar

StartChar: uni041D
Encoding: 1053 1053 33
Width: 530
Flags: W
HStem: -2 14<109.163 177.43 359.163 427.43> 72 56<77.4369 123.201 327.437 373.201> 132 13<125.002 137.998> 152 13<125.002 137.998> 166 13<109.002 121.998> 269 13<29.9133 76.6485> 534 20<485.908 507.359>
VStem: 1 12<210.82 252.055> 55 21<35.8517 79.7801> 96 14<196.159 249.71> 109 13<166.002 178.998> 125 13<132.002 144.998 152.002 164.998> 131 80<224.751 460.818> 167 40<79.0337 135.443> 215 36<46.6323 125> 266 64<350.518 409.045> 305 21<35.8517 79.7801> 381 80<259.609 518.698> 417 40<79.0337 134.907> 465 36<46.6323 125>
AnchorPoint: "Yerok" 459.5 574.4 basechar 0
AnchorPoint: "Diacritic" 334 575 basechar 0
LayerCount: 2
Fore
SplineSet
125 139 m 0xff9210
 125 142 128 145 132 145 c 0
 135 145 138 142 138 139 c 0
 138 135 135 132 132 132 c 0
 128 132 125 135 125 139 c 0xff9210
125 159 m 0
 125 162 128 165 132 165 c 0
 135 165 138 162 138 159 c 0
 138 155 135 152 132 152 c 0
 128 152 125 155 125 159 c 0
109 173 m 0xffa210
 109 176 112 179 116 179 c 0
 119 179 122 176 122 173 c 0
 122 169 119 166 116 166 c 0
 112 166 109 169 109 173 c 0xffa210
56 282 m 0
 87 282 110 258 110 231 c 0
 110 204 102 189 87 169 c 0
 80 160 68 151 61 145 c 0
 53 137 50 129 50 129 c 1
 50 129 61 143 78 150 c 0
 91 155 99 157 105 157 c 0
 111 157 115 155 115 151 c 0
 115 143 84 147 59 123 c 0
 53 117 47 99 47 99 c 1
 46 100 27 109 27 129 c 0
 27 160 50 175 50 200 c 0
 50 212 44 219 44 219 c 1
 44 219 44 219 45 219 c 0
 49 219 62 218 71 196 c 0
 76 183 74 173 74 173 c 1
 74 173 96 196 96 224 c 0xffc210
 96 251 77 269 54 269 c 0
 30 269 13 253 13 231 c 0
 13 213 23 207 23 205 c 0
 23 205 22 205 21 205 c 0
 7 205 1 221 1 236 c 0
 1 266 27 282 56 282 c 0
266 382 m 0xff8330
 266 397 280 406 290 410 c 1
 285 418 281 431 261 443 c 0
 246 452 232 458 219 462 c 1
 214 432 211 399 211 382 c 0xff8b30
 211 273 242 216 250 125 c 0
 250 119 251 114 251 108 c 0
 251 60 230 39 205 18 c 0
 186 2 165 -2 144 -2 c 0
 87 -2 55 20 55 79 c 0
 55 109 76 128 99 128 c 0
 119 128 133 114 133 98 c 0
 133 82 117 72 103 72 c 0
 89 72 77 80 77 80 c 1
 77 80 76 76 76 71 c 0
 76 57 80 31 106 20 c 0
 118 15 130 12 143 12 c 0
 162 12 182 19 198 35 c 0
 211 48 215 67 215 86 c 0
 215 112 207 136 207 136 c 1
 207 136 206 108 188 80 c 0
 177 62 154 47 139 47 c 0
 137 47 l 0
 137 48 167 57 167 124 c 0xff8610
 167 141 165 163 160 189 c 0
 143 274 131 300 131 382 c 0
 131 447 146 516 162 536 c 0
 173 550 195 554 214 554 c 0
 233 554 249 550 249 550 c 1
 264 545 258 532 250 534 c 0
 248 534 l 0
 237 534 228 510 222 479 c 1
 268 468 308 438 325 395 c 0
 328 388 330 383 330 377 c 0xff8b10
 330 362 316 353 306 349 c 1
 311 341 315 328 335 316 c 0
 354 305 371 299 388 295 c 1
 384 320 381 346 381 382 c 0
 381 447 396 516 412 536 c 0
 423 550 445 554 464 554 c 0
 490 554 508 552 508 541 c 0
 508 534 503 534 498 534 c 0
 474 534 461 419 461 382 c 0
 461 273 492 216 500 125 c 0
 500 119 501 114 501 108 c 0
 501 60 480 39 455 18 c 0
 436 2 415 -2 394 -2 c 0
 337 -2 305 20 305 79 c 0
 305 109 326 128 349 128 c 0
 369 128 383 114 383 98 c 0
 383 82 367 72 353 72 c 0
 339 72 327 80 327 80 c 1
 327 80 326 76 326 71 c 0xff82d0
 326 57 330 31 356 20 c 0
 368 15 380 12 393 12 c 0
 412 12 432 19 448 35 c 0
 461 48 465 67 465 86 c 0
 465 112 457 136 457 136 c 1
 457 136 456 108 438 80 c 0
 427 62 404 47 389 47 c 0
 387 47 l 0
 387 48 417 57 417 124 c 0
 417 169 398 245 391 278 c 1
 373 281 344 287 320 304 c 0
 297 320 281 334 271 364 c 0
 268 372 266 377 266 382 c 0xff8330
EndSplineSet
Validated: 1
Substitution2: "'ss01' Style Set Simple Forms-1" uni041D.simple
Colour: ff00
EndChar

StartChar: uni041E
Encoding: 1054 1054 34
Width: 525
Flags: W
HStem: 0 12<112.247 175.848 197 260.5> 72 56<77.4369 123.201> 132 13<125.002 137.998> 152 13<125.002 137.998> 166 13<109.002 121.998> 269 13<29.9133 76.6485 446.115 495.747> 371 13<402.002 414.998> 385 13<386.002 398.998> 405 13<386.002 398.998> 422 56<400.799 446.563> 538 12<263.9 327 348.152 411.753>
VStem: 1 12<210.82 252.055> 55 21<35.2482 79.7801> 96 14<196.159 249.71> 109 13<166.002 178.998> 123 76<268.648 472.569> 125 13<132.002 144.998 152.002 164.998> 176 31<85.6012 135.78> 215 35<54.9724 135.175> 274 35<414.727 495.028> 317 31<414.299 464.399> 325 76<78.3469 278.517> 386 13<385.002 397.998 405.002 417.998> 402 13<371.002 383.998> 414 14<300.29 353.841> 448 21<470.22 514.752> 511 12<297.945 339.18>
AnchorPoint: "Yerok" 384 576.2 basechar 0
AnchorPoint: "Diacritic" 298 575 basechar 0
LayerCount: 2
Fore
SplineSet
399 412 m 0xfff83260
 399 408 396 405 393 405 c 0
 389 405 386 408 386 412 c 0
 386 415 389 418 393 418 c 0
 396 418 399 415 399 412 c 0xfff83260
399 392 m 0
 399 388 396 385 393 385 c 0
 389 385 386 388 386 392 c 0
 386 395 389 398 393 398 c 0
 396 398 399 395 399 392 c 0
415 378 m 0xfff83160
 415 374 412 371 409 371 c 0
 405 371 402 374 402 378 c 0
 402 381 405 384 409 384 c 0
 412 384 415 381 415 378 c 0xfff83160
125 139 m 0xfff8b060
 125 142 128 145 132 145 c 0
 135 145 138 142 138 139 c 0
 138 135 135 132 132 132 c 0
 128 132 125 135 125 139 c 0xfff8b060
125 159 m 0
 125 162 128 165 132 165 c 0
 135 165 138 162 138 159 c 0
 138 155 135 152 132 152 c 0
 128 152 125 155 125 159 c 0
109 173 m 0xfffa3060
 109 176 112 179 116 179 c 0
 119 179 122 176 122 173 c 0
 122 169 119 166 116 166 c 0
 112 166 109 169 109 173 c 0xfffa3060
56 282 m 0
 87 282 110 258 110 231 c 0
 110 204 102 189 87 169 c 0
 80 160 68 151 61 145 c 0
 53 137 50 129 50 129 c 1
 50 129 61 143 78 150 c 0
 91 155 99 157 105 157 c 0
 111 157 115 155 115 151 c 0
 115 143 84 147 59 123 c 0
 53 117 47 99 47 99 c 1
 46 100 27 109 27 129 c 0
 27 160 50 175 50 200 c 0
 50 212 44 219 44 219 c 1
 44 219 44 219 45 219 c 0
 49 219 62 218 71 196 c 0
 76 183 74 173 74 173 c 1
 74 173 96 196 96 224 c 0xfffc3060
 96 251 77 269 54 269 c 0
 30 269 13 253 13 231 c 0
 13 213 23 207 23 205 c 0
 23 205 22 205 21 205 c 0
 7 205 1 221 1 236 c 0
 1 266 27 282 56 282 c 0
468 268 m 0
 437 268 414 292 414 319 c 0
 414 346 422 361 437 381 c 0
 444 390 456 399 463 405 c 0
 471 413 474 421 474 421 c 1
 474 421 463 407 446 400 c 0
 433 395 425 393 419 393 c 0
 413 393 409 395 409 399 c 0
 409 407 440 403 465 427 c 0
 471 433 477 451 477 451 c 1
 478 450 497 441 497 421 c 0
 497 390 474 375 474 350 c 0
 474 338 480 331 480 331 c 1
 480 331 480 331 479 331 c 0
 475 331 462 332 453 354 c 0
 448 367 450 377 450 377 c 1
 450 377 428 354 428 326 c 0xfff830e0
 428 299 447 281 470 281 c 0
 494 281 511 297 511 319 c 0
 511 337 501 343 501 345 c 0
 501 345 502 345 503 345 c 0
 517 345 523 329 523 314 c 0
 523 284 497 268 468 268 c 0
325 158 m 0xfff93460
 325 263 274 317 274 425 c 0
 274 486 299 515 327 538 c 1
 325 538 323 538 321 538 c 0
 301 538 270 534 270 534 c 1
 209 519 199 433 199 384 c 0
 199 285 250 230 250 125 c 0
 250 64 225 35 197 12 c 1
 199 12 201 12 203 12 c 0
 223 12 254 16 254 16 c 0
 313 30 325 97 325 158 c 0xfff93460
391 452 m 0
 391 468 407 478 421 478 c 0
 435 478 447 470 447 470 c 1
 447 470 448 474 448 479 c 0
 448 493 444 519 418 530 c 0
 406 535 394 538 381 538 c 0
 362 538 342 531 326 515 c 0
 313 502 309 483 309 464 c 0
 309 438 317 414 317 414 c 2
 317 414 318 442 336 470 c 0
 347 488 370 503 385 503 c 0
 386 503 l 0
 386 501 348 492 348 435 c 0xfff93a60
 348 416 352 392 364 361 c 0
 399 268 401 239 401 168 c 0
 401 83 351 12 268 0 c 0
 245 -3 221 -4 198 -4 c 0
 153 -4 116 0 116 0 c 0
 76 6 55 31 55 79 c 0
 55 109 76 128 99 128 c 0
 119 128 133 114 133 98 c 0
 133 82 117 72 103 72 c 0
 89 72 77 80 77 80 c 1
 77 80 76 76 76 71 c 0
 76 57 80 31 106 20 c 0
 118 15 130 12 143 12 c 0
 162 12 182 19 198 35 c 0
 211 48 215 67 215 86 c 0
 215 112 207 136 207 136 c 1
 207 136 206 108 188 80 c 0
 177 62 154 47 139 47 c 0
 138 47 l 0
 138 49 176 58 176 115 c 0xfff8f460
 176 134 172 158 160 189 c 0
 125 282 123 300 123 382 c 0
 123 467 173 538 256 550 c 0
 279 553 303 554 326 554 c 0
 371 554 408 550 408 550 c 1
 448 544 469 519 469 471 c 0
 469 441 448 422 425 422 c 0
 405 422 391 436 391 452 c 0
EndSplineSet
Validated: 1
Substitution2: "'ss01' Style Set Simple Forms-1" uni041E.simple
Colour: ff00
EndChar

StartChar: uni041F
Encoding: 1055 1055 35
Width: 560
Flags: W
HStem: -2 14<109.163 177.43 399.163 467.43> 72 56<77.4369 123.201 367.437 413.201> 132 13<125.002 137.998> 152 13<125.002 137.998> 166 13<109.002 121.998> 269 13<29.9133 76.6485> 534 20<525.908 547.816> 579 13<212.26 255.088 440.912 483.74> 631 33<247.048 276.781 419.28 448.952> 680 10<338.819 355.194>
VStem: 1 12<210.82 252.055> 55 21<35.8517 79.7801> 96 14<196.159 249.71> 109 13<166.002 178.998> 125 13<132.002 144.998 152.002 164.998> 131 80<224.751 506.501> 167 40<79.0337 135.443> 215 36<46.6323 125> 279 10<614.938 639.745> 328 10<670 679.166> 338 18<532 550> 345 21<35.8517 79.7801> 356 9<655.943 679.186> 407 10<614.938 639.745> 421 80<224.751 508.095> 457 40<79.0337 135.443> 505 36<46.6323 125>
DStem2: 306 509 315 500 0.707107 0.707107<0 45.2548 57.9828 103.509> 315 582 307 572 0.707107 -0.707107<0.834166 45.2548 57.9828 104.652>
AnchorPoint: "Yerok" 500 664.8 basechar 0
AnchorPoint: "Diacritic" 349 718 basechar 0
LayerCount: 2
Fore
SplineSet
125 139 m 0xfff26120
 125 142 128 145 132 145 c 0
 135 145 138 142 138 139 c 0
 138 135 135 132 132 132 c 0
 128 132 125 135 125 139 c 0xfff26120
125 159 m 0
 125 162 128 165 132 165 c 0
 135 165 138 162 138 159 c 0
 138 155 135 152 132 152 c 0
 128 152 125 155 125 159 c 0
109 173 m 0xfff46120
 109 176 112 179 116 179 c 0
 119 179 122 176 122 173 c 0
 122 169 119 166 116 166 c 0
 112 166 109 169 109 173 c 0xfff46120
417 631 m 0
 417 612 440 592 465 592 c 0
 480 592 488 600 493 611 c 1
 506 604 l 1
 500 588 484 579 466 579 c 0
 436 579 407 604 407 633 c 0
 407 647 417 664 430 664 c 0
 440 664 449 655 449 646 c 0
 449 637 438 631 434 631 c 0
 426 631 419 640 419 640 c 1
 417 637 417 634 417 631 c 0
266 664 m 0
 279 664 289 647 289 633 c 0
 289 604 260 579 230 579 c 0
 212 579 196 588 190 604 c 1
 203 611 l 1
 208 600 216 592 231 592 c 0
 256 592 279 612 279 631 c 0
 279 634 279 637 277 640 c 1
 277 640 270 631 262 631 c 0
 258 631 247 637 247 646 c 0
 247 655 256 664 266 664 c 0
502 554 m 0
 530 554 549 552 549 540 c 0
 549 534 544 534 538 534 c 0
 514 534 501 419 501 382 c 0xfff173a0
 501 273 532 216 540 125 c 0
 540 119 541 114 541 108 c 0
 541 60 520 39 495 18 c 0
 476 2 455 -2 434 -2 c 0
 377 -2 345 20 345 79 c 0
 345 109 366 128 389 128 c 0
 409 128 423 114 423 98 c 0
 423 82 407 72 393 72 c 0
 379 72 367 80 367 80 c 1
 367 80 366 76 366 71 c 0
 366 57 370 31 396 20 c 0
 408 15 420 12 433 12 c 0
 452 12 472 19 488 35 c 0
 501 48 505 67 505 86 c 0
 505 112 497 136 497 136 c 1
 497 136 496 108 478 80 c 0
 467 62 444 47 429 47 c 0
 427 47 l 0
 427 48 457 57 457 124 c 0xfff06560
 457 141 455 163 450 189 c 0
 433 274 421 300 421 382 c 0
 421 447 452 536 452 536 c 1
 452 536 408 515 385 484 c 0
 360 451 359 426 347 426 c 0
 334 426 335 451 309 484 c 0
 288 511 262 533 248 537 c 1
 216 484 211 417 211 382 c 0xfff161a0
 211 273 242 216 250 125 c 0
 250 119 251 114 251 108 c 0
 251 60 230 39 205 18 c 0
 186 2 165 -2 144 -2 c 0
 87 -2 55 20 55 79 c 0
 55 109 76 128 99 128 c 0
 119 128 133 114 133 98 c 0
 133 82 117 72 103 72 c 0
 89 72 77 80 77 80 c 1
 77 80 76 76 76 71 c 0
 76 57 80 31 106 20 c 0
 118 15 130 12 143 12 c 0
 162 12 182 19 198 35 c 0
 211 48 215 67 215 86 c 0
 215 112 207 136 207 136 c 1
 207 136 206 108 188 80 c 0
 177 62 154 47 139 47 c 0
 137 47 l 0
 137 48 167 57 167 124 c 0xfff0e120
 167 141 165 163 160 189 c 0
 143 274 131 300 131 382 c 0
 131 447 140 502 162 536 c 0
 171 550 187 554 205 554 c 0
 220 554 237 551 250 549 c 1
 263 557 287 574 309 596 c 0
 332 619 340 638 340 638 c 1
 340 638 328 654 328 666 c 0
 328 680 336 690 347 690 c 0
 360 690 365 680 365 666 c 0xfff17320
 365 652 355 638 355 638 c 1
 355 638 363 620 385 596 c 0
 410 568 434 553 442 550 c 0
 455 546 465 547 465 547 c 1
 476 552 490 554 502 554 c 0
56 282 m 0
 87 282 110 258 110 231 c 0
 110 204 102 189 87 169 c 0
 80 160 68 151 61 145 c 0
 53 137 50 129 50 129 c 1
 50 129 61 143 78 150 c 0
 91 155 99 157 105 157 c 0
 111 157 115 155 115 151 c 0
 115 143 84 147 59 123 c 0
 53 117 47 99 47 99 c 1
 46 100 27 109 27 129 c 0
 27 160 50 175 50 200 c 0
 50 201 l 0
 50 213 44 219 44 219 c 1
 44 219 44 219 45 219 c 0
 49 219 62 218 71 196 c 0
 76 183 74 173 74 173 c 1
 74 173 96 196 96 224 c 0xfff86120
 96 251 77 269 54 269 c 0
 30 269 13 253 13 231 c 0
 13 213 23 207 23 205 c 0
 23 205 22 205 21 205 c 0
 7 205 1 221 1 236 c 0
 1 266 27 282 56 282 c 0
356 670 m 0xfff07320
 356 675 352 680 347 680 c 0
 342 680 338 675 338 670 c 0
 338 662 347 648 347 648 c 1
 347 648 356 662 356 670 c 0xfff07320
379 582 m 1
 365 598 348 619 347 626 c 1
 346 619 330 597 315 582 c 1
 347 550 l 1
 379 582 l 1
433 542 m 1
 421 547 404 558 388 573 c 1
 356 541 l 1xfff06920
 389 508 l 1
 405 525 421 536 433 542 c 1
338 541 m 1
 307 572 l 1
 290 558 274 548 261 542 c 1
 273 537 290 526 306 509 c 1
 338 541 l 1
380 499 m 1
 347 532 l 1
 315 500 l 1
 329 484 342 462 347 438 c 1
 353 462 365 483 380 499 c 1
EndSplineSet
Validated: 1
Substitution2: "'ss01' Style Set Simple Forms-1" uni041F.simple
Colour: ff00
EndChar

StartChar: uni0421
Encoding: 1057 1057 36
Width: 475
Flags: W
HStem: -5 13<123.013 163.031 190 268.146> 47 2<142 143.634> 72 56<77.0469 123.202> 132 35<411.159 431> 132 13<125.015 137.987> 152 13<125.015 137.987> 166 13<109.015 121.987> 195 14<375.972 421.148> 268 14<28.8496 77.6749> 380 21<313.008 344.629> 402 64<313 335.469> 534 17<248.592 329.547>
VStem: 1 12<211.418 251.886> 55 21<35.2023 79.7801> 96 14<197.172 249.435> 109 13<166.015 178.987> 123 76<268.111 473.299> 125 13<132.015 144.987 152.015 164.987> 176 31<86.125 135.299> 215 35<47.3252 135.534> 273 65<401.917 463.532> 302 59<21.426 177.78> 364 46<409.844 516.7> 431 21<167 187.264>
AnchorPoint: "Yerok" 386.5 574.4 basechar 0
AnchorPoint: "Diacritic" 275 575 basechar 0
LayerCount: 2
Fore
SplineSet
125 139 m 0xd3f14c
 125 142 128 145 132 145 c 0
 135 145 138 142 138 139 c 0
 138 135 135 132 132 132 c 0
 128 132 125 135 125 139 c 0xd3f14c
125 159 m 0
 125 162 128 165 132 165 c 0
 135 165 138 162 138 159 c 0
 138 155 135 152 132 152 c 0xcbf14c
 128 152 125 155 125 159 c 0
109 173 m 0xc7f44c
 109 176 112 179 116 179 c 0
 119 179 122 176 122 173 c 0
 122 169 119 166 116 166 c 0
 112 166 109 169 109 173 c 0xc7f44c
306 466 m 0
 324 466 338 456 338 438 c 0xe3f26c
 338 436 338 433 337 430 c 0
 332 402 313 401 313 401 c 1
 313 401 362 401 364 451 c 0
 364 453 364 455 364 457 c 0
 364 501 342 535 284 535 c 0
 280 535 275 534 270 534 c 0
 215 529 199 433 199 384 c 0
 199 285 250 230 250 125 c 0
 250 56 228 31 190 8 c 1
 196 8 203 8 209 8 c 0
 212 8 215 8 218 8 c 0
 245 8 267 9 281 20 c 0
 301 36 305 50 305 67 c 0
 305 81 302 97 302 116 c 0
 302 124 302 132 304 141 c 0
 311 180 354 209 403 209 c 0
 432 209 452 185 452 158 c 0
 452 141 444 132 432 132 c 0xd3f25c
 421 132 411 139 411 146 c 0
 411 165 424 167 428 167 c 0
 431 167 l 1
 431 186 416 195 400 195 c 0
 392 195 384 193 377 189 c 0
 361 180 360 147 360 147 c 1
 360 147 367 154 374 159 c 0
 383 165 393 163 393 163 c 1
 393 163 373 151 364 125 c 0
 362 119 361 114 361 108 c 0
 361 96 364 85 364 71 c 0
 364 63 363 54 359 44 c 0
 344 5 265 -5 198 -5 c 0
 114 -5 55 -4 55 79 c 0
 55 109 76 128 99 128 c 0
 119 128 133 114 133 98 c 0
 133 82 117 72 103 72 c 0
 89 72 77 80 77 80 c 1
 77 80 76 76 76 71 c 0
 76 57 80 31 106 20 c 0
 118 15 130 12 143 12 c 0
 162 12 182 19 198 35 c 0
 211 48 215 67 215 86 c 0
 215 112 207 136 207 136 c 1
 207 136 206 108 188 80 c 0
 177 62 154 47 139 47 c 0
 138 47 l 0
 138 49 176 58 176 115 c 0xe3f1dc
 176 134 172 158 160 189 c 0
 125 282 123 300 123 382 c 0
 123 467 173 545 256 550 c 0
 267 551 277 551 287 551 c 0
 366 551 410 528 410 448 c 0
 410 408 373 380 332 380 c 0
 301 380 273 395 273 426 c 0xe3f26c
 273 449 289 466 306 466 c 0
56 282 m 0
 87 282 110 258 110 231 c 0
 110 204 102 189 87 169 c 0
 80 160 68 151 61 145 c 0
 53 137 50 129 50 129 c 1
 50 129 61 143 78 150 c 0
 91 155 99 157 105 157 c 0
 111 157 115 155 115 151 c 0
 115 143 84 147 59 123 c 0
 53 117 47 99 47 99 c 1
 46 100 27 109 27 129 c 0
 27 160 50 175 50 200 c 0
 50 212 44 219 44 219 c 1
 44 219 44 219 45 219 c 0
 49 219 62 218 71 196 c 0
 76 183 74 173 74 173 c 1
 74 173 96 196 96 224 c 0xd3f84c
 96 251 77 268 54 268 c 0
 33 268 13 256 13 231 c 0
 13 213 23 207 23 205 c 0
 23 205 22 205 21 205 c 0
 7 205 1 221 1 236 c 0
 1 266 27 282 56 282 c 0
EndSplineSet
Validated: 1
Substitution2: "'ss01' Style Set Simple Forms-1" uni0421.simple
Colour: ff00
EndChar

StartChar: uni0422
Encoding: 1058 1058 37
Width: 660
Flags: W
HStem: -2 14<255.142 321.085> 72 56<223.047 269.202> 257 13<162.913 209.648 448.352 495.087> 397 13<207.015 219.987 440.015 452.987> 411 13<223.015 235.987 424.015 436.987> 419 10.5<183.599 212.961 445.039 474.401> 431 13<223.014 235.986 424.015 436.987> 455 12<175.244 222.02 435.98 482.756> 533 17<107.154 142 167.798 293 416 490.202 516 550.846>
VStem: 66 24<444.053 515> 120 40<435.342 531.57> 134 12<287.129 327.582> 182 31<330.871 366> 201 21<35.8517 79.7801 397.289 409.752> 223 13<411.015 423.987 431.517 443.483> 229 14<289.141 341.95> 277 80<224.598 530.256> 313 40<78.7878 135.121> 361 36<46.592 135.492> 415 14<289.141 341.828> 424 13<411.015 423.987 431.015 443.987> 440 13<397.015 409.987> 445 30<335.25 426.917> 498 40<435.342 531.572> 512 12<287.129 327.582> 568 24<444.029 516.063>
AnchorPoint: "Yerok" 512 577 basechar 0
AnchorPoint: "Diacritic" 338 575 basechar 0
LayerCount: 2
Fore
SplineSet
223 418 m 0xff9881
 223 421 226 424 230 424 c 0
 233 424 236 421 236 418 c 0
 236 414 233 411 230 411 c 0
 226 411 223 414 223 418 c 0xff9881
207 404 m 0
 207 407 210 410 214 410 c 0
 217 410 220 407 220 404 c 0
 220 400 217 397 214 397 c 0
 210 397 207 400 207 404 c 0
236 438 m 0
 236 429 223 430 223 438 c 0
 223 445 236 446 236 438 c 0
437 418 m 0xff90a1
 437 414 434 411 431 411 c 0
 427 411 424 414 424 418 c 0
 424 421 427 424 431 424 c 0
 434 424 437 421 437 418 c 0xff90a1
453 404 m 0xff9091
 453 400 450 397 447 397 c 0
 443 397 440 400 440 404 c 0
 440 407 443 410 447 410 c 0
 450 410 453 407 453 404 c 0xff9091
424 438 m 0xff90a1
 424 441 427 444 431 444 c 0
 435 444 437 441 437 438 c 0
 437 434 435 431 431 431 c 0
 426 431 424 434 424 438 c 0xff90a1
279 98 m 0
 279 82 263 72 249 72 c 0
 235 72 223 80 223 80 c 1
 223 80 222 76 222 71 c 0
 222 57 226 31 252 20 c 0
 264 15 276 12 289 12 c 0
 308 12 328 19 344 35 c 0
 357 48 361 67 361 86 c 0
 361 112 353 136 353 136 c 1
 353 136 352 108 334 80 c 0
 323 62 300 47 285 47 c 0
 283 47 l 0
 283 48 313 57 313 124 c 0xff9981
 313 141 311 163 306 189 c 0
 289 274 277 300 277 382 c 0
 277 431 287 501 293 533 c 1
 292 533 291 533 290 533 c 0
 264 533 244 523 235 515 c 0
 216 499 213 489 207 489 c 0
 202 489 200 491 200 495 c 0
 200 499 203 505 210 513 c 0
 222 526 242 533 242 533 c 1
 179 533 l 1
 167 527 160 515 160 501 c 0xffd281
 160 479 179 467 197 467 c 0
 223 467 236 484 243 484 c 0
 246 484 248 482 248 479 c 0
 248 470 221 455 202 455 c 0
 181 455 158 466 155 472 c 1
 155 469 156 467 156 464 c 0
 161 428 213 433 213 424 c 0
 213 421 209 419 203 419 c 0
 197 419 189 421 176 426 c 0
 159 433 148 447 148 447 c 1
 148 447 148 434 168 419 c 0
 199 396 213 379 220 370 c 0
 235 350 243 335 243 308 c 0
 243 281 220 257 189 257 c 0
 160 257 134 273 134 303 c 0
 134 318 140 334 154 334 c 0
 156 334 l 0
 156 332 146 326 146 308 c 0xffb481
 146 286 163 270 187 270 c 0
 210 270 229 288 229 315 c 0
 229 343 207 366 207 366 c 1
 207 366 209 356 204 343 c 0
 195 321 182 320 178 320 c 0
 177 320 l 1
 177 320 183 326 182 338 c 1
 182 339 l 0
 182 376 120 428 120 480 c 0
 120 502 128 524 142 533 c 1
 128 533 l 2
 100 533 90 496 90 471 c 0
 90 445 106 433 106 427 c 0
 106 425 104 423 101 423 c 0
 87 423 66 458 66 486 c 0
 66 502 70 515 70 515 c 1
 0 550 l 1
 658 550 l 1
 588 515 l 1
 588 515 592 502 592 486 c 0
 592 458 571 423 557 423 c 0
 554 423 552 425 552 427 c 0
 552 433 568 445 568 471 c 0
 568 496 558 533 530 533 c 2
 516 533 l 1
 530 524 538 503 538 481 c 0xffd485
 538 429 475 377 475 339 c 0
 475 327 481 320 481 320 c 1
 481 320 481 320 480 320 c 0
 476 320 463 321 454 343 c 0
 449 356 451 366 451 366 c 1
 451 366 429 343 429 315 c 0
 429 288 448 270 471 270 c 0
 495 270 512 286 512 308 c 0
 512 326 502 332 502 334 c 0
 502 334 503 334 504 334 c 0
 518 334 524 318 524 303 c 0xff90cb
 524 273 498 257 469 257 c 0
 438 257 415 281 415 308 c 0
 415 335 423 350 438 370 c 0
 445 379 459 396 490 419 c 0
 510 434 510 447 510 447 c 1
 510 447 499 433 482 426 c 0
 469 421 461 419 455 419 c 0
 449 419 445 421 445 424 c 0
 445 433 497 428 502 464 c 0
 502 467 503 469 503 472 c 1
 500 466 477 455 456 455 c 0
 437 455 410 470 410 479 c 0
 410 482 412 484 415 484 c 0
 422 484 435 467 461 467 c 0
 479 467 498 479 498 501 c 0
 498 515 491 527 479 533 c 1
 416 533 l 1
 416 533 436 526 448 513 c 0
 455 505 458 499 458 495 c 0
 458 491 456 489 451 489 c 0
 445 489 442 499 423 515 c 0
 414 523 396 529 377 533 c 1
 370 501 357 431 357 382 c 0xff92cd
 357 273 388 216 396 125 c 0
 396 119 397 114 397 108 c 0
 397 60 376 39 351 18 c 0
 332 2 311 -2 290 -2 c 0
 233 -2 201 20 201 79 c 0
 201 109 222 128 245 128 c 0
 265 128 279 114 279 98 c 0
EndSplineSet
Validated: 1
Substitution2: "'ss01' Style Set Simple Forms-1" uni0422.simple
Colour: ff00
EndChar

StartChar: uni0423
Encoding: 1059 1059 38
Width: 395
Flags: W
HStem: -3 16<104.388 175.989> 72 56<77.0469 123.202> 132 13<125.015 137.987> 152 13<125.015 137.987> 166 13<109.015 121.987> 268 14<28.8496 77.6749> 275 12<107 133 209 230> 492 26<358.125 369> 538 12<67 93 169 193 325.962 362.356>
VStem: 1 12<211.418 251.886> 55 21<35.1615 79.7801> 96 14<197.172 249.435> 109 13<166.015 178.987> 125 13<132.015 144.987 152.015 164.987> 230 46<116.003 275 287 434.107> 369 16<518 533.812>
DStem2: 169 538 93 538 0.157377 -0.987539<0 242.207>
AnchorPoint: "Yerok" 339 575.7 basechar 0
AnchorPoint: "Diacritic" 239 575 basechar 0
LayerCount: 2
Fore
SplineSet
125 139 m 0xf9e7
 125 142 128 145 132 145 c 0
 135 145 138 142 138 139 c 0
 138 135 135 132 132 132 c 0
 128 132 125 135 125 139 c 0xf9e7
125 159 m 0
 125 162 128 165 132 165 c 0
 135 165 138 162 138 159 c 0
 138 155 135 152 132 152 c 0
 128 152 125 155 125 159 c 0
109 173 m 0xf9ef
 109 176 112 179 116 179 c 0
 119 179 122 176 122 173 c 0
 122 169 119 166 116 166 c 0
 112 166 109 169 109 173 c 0xf9ef
242 126 m 1
 236 119 191 65 172 65 c 0
 171 65 l 0
 171 65 171 65 171 66 c 0
 171 73 228 109 228 204 c 0
 228 229 228 253 230 275 c 1
 107 275 l 1
 107 287 l 1
 133 287 l 1
 93 538 l 1
 67 538 l 1
 67 550 l 1
 193 550 l 1
 193 538 l 1
 169 538 l 1
 209 287 l 1
 230 287 l 1xfbe7
 238 408 261 465 267 479 c 0
 291 534 305 550 348 550 c 0
 370 550 385 531 385 511 c 0
 385 498 378 492 369 492 c 0
 362 492 354 496 354 502 c 1
 355 521 369 518 369 518 c 1
 369 532 356 540 344 540 c 0
 338 540 334 538 329 535 c 0
 317 527 306 504 306 504 c 1
 327 516 321 513 341 515 c 1
 341 515 328 504 313 477 c 0
 299 452 276 412 276 247 c 0
 276 232 276 214 276 198 c 0
 276 111 248 61 205 18 c 0
 188 1 169 -3 149 -3 c 0
 89 -3 55 17 55 79 c 0
 55 109 76 128 99 128 c 0
 119 128 133 114 133 98 c 0
 133 82 117 72 103 72 c 0
 89 72 77 80 77 80 c 1
 77 80 76 76 76 71 c 0
 76 57 80 31 106 20 c 0
 118 15 129 13 140 13 c 0
 156 13 172 18 186 26 c 0
 232 52 242 126 242 126 c 1
56 282 m 0xfdf7
 87 282 110 258 110 231 c 0
 110 204 102 189 87 169 c 0
 80 160 68 151 61 145 c 0
 53 137 50 129 50 129 c 1
 50 129 61 143 78 150 c 0
 91 155 99 157 105 157 c 0
 111 157 115 155 115 151 c 0
 115 143 84 147 59 123 c 0
 53 117 47 99 47 99 c 1
 46 100 27 109 27 129 c 0
 27 160 50 175 50 200 c 0
 50 212 44 219 44 219 c 1
 44 219 44 219 45 219 c 0
 49 219 62 218 71 196 c 0
 76 183 74 173 74 173 c 1
 74 173 96 196 96 224 c 0
 96 251 77 268 54 268 c 0
 33 268 13 256 13 231 c 0
 13 213 23 207 23 205 c 0
 23 205 22 205 21 205 c 0
 7 205 1 221 1 236 c 0
 1 266 27 282 56 282 c 0xfdf7
EndSplineSet
Validated: 1
Substitution2: "'ss01' Style Set Simple Forms-1" uni0423.simple
Colour: ff00
EndChar

StartChar: uni0418.simple
Encoding: 62744 62744 39
Width: 470
GlyphClass: 2
Flags: W
HStem: 0 12<56.3479 120.37 306.348 370.37> 72 56<22.4369 68.2014 272.437 318.201> 534 22<180.053 194 430.053 452.023>
VStem: 0 21<35.2169 79.7801> 76 80<298.16 518.403> 112 40<79.0337 135.443> 160 36<47.5918 134.988> 211 64<349.955 409.045> 250 21<35.2169 79.7801> 326 80<236.924 489.839> 362 40<79.0337 135.443> 410 36<47.5918 134.831>
DStem2: 166 281 94 242 0.206705 -0.978403<-1.17368 138.029>
AnchorPoint: "Yerok" 404.5 575.392 basechar 0
AnchorPoint: "Diacritic" 268 575 basechar 0
LayerCount: 2
Fore
SplineSet
235 349 m 1xfa10
 225 353 211 362 211 377 c 0
 211 383 213 388 216 395 c 0
 227 423 242 439 265 455 c 0
 288 472 319 478 336 480 c 1
 342 506 350 526 357 536 c 0
 368 550 390 556 409 556 c 0
 435 556 453 552 453 541 c 0
 453 534 448 534 443 534 c 0
 419 534 406 419 406 382 c 0xfb50
 406 273 445 216 445 125 c 0
 445 119 446 114 446 108 c 0
 446 60 425 39 400 18 c 0
 381 2 360 0 339 0 c 0
 282 0 250 20 250 79 c 0
 250 109 271 128 294 128 c 0
 314 128 328 114 328 98 c 0
 328 82 312 72 298 72 c 0
 284 72 272 80 272 80 c 1
 272 80 271 76 271 71 c 0
 271 57 275 31 301 20 c 0
 313 15 325 12 338 12 c 0
 357 12 377 19 393 35 c 0
 406 48 410 67 410 86 c 0
 410 112 402 136 402 136 c 1
 402 136 401 108 383 80 c 0
 372 62 349 47 334 47 c 0
 332 47 l 0
 332 48 362 57 362 124 c 0xf2b0
 362 141 360 163 355 189 c 0
 338 274 326 300 326 382 c 0
 326 410 329 438 333 463 c 1
 317 460 298 453 280 443 c 0
 260 431 256 418 251 410 c 1
 261 406 275 397 275 382 c 0
 275 377 273 372 270 364 c 0
 255 320 211 290 166 281 c 1
 175 227 195 183 195 125 c 0
 195 119 196 114 196 108 c 0
 196 60 175 39 150 18 c 0
 131 2 110 0 89 0 c 0
 32 0 0 20 0 79 c 0
 0 109 21 128 44 128 c 0
 64 128 78 114 78 98 c 0
 78 82 62 72 48 72 c 0
 34 72 22 80 22 80 c 1
 22 80 21 76 21 71 c 0
 21 57 25 31 51 20 c 0
 63 15 75 12 88 12 c 0
 107 12 127 19 143 35 c 0
 156 48 160 67 160 86 c 0
 160 112 152 136 152 136 c 1
 152 136 151 108 133 80 c 0
 122 62 99 47 84 47 c 0
 82 47 l 0
 82 48 112 57 112 124 c 0xf750
 112 141 110 163 105 189 c 0
 88 274 76 300 76 382 c 0
 76 447 91 516 107 536 c 0
 118 550 140 556 159 556 c 0
 178 556 194 550 194 550 c 1
 209 545 203 532 195 534 c 0
 193 534 l 0
 169 534 156 419 156 382 c 0
 156 350 159 322 163 297 c 1
 176 301 191 307 206 316 c 0
 226 328 230 341 235 349 c 1xfa10
EndSplineSet
Validated: 1
Colour: ff00
EndChar

StartChar: uni041A.simple
Encoding: 62746 62746 40
Width: 470
GlyphClass: 2
Flags: W
HStem: 0 12<56.3479 120.37 396.879 417.089> 44 35<417.159 437> 72 56<22.4369 68.2014> 243 14<231 246.066> 467 48<343.219 376> 540 10<177 194 305.446 358.797>
VStem: 0 21<35.2169 79.7801> 76 80<236.924 518.403> 112 40<79.0337 135.443> 160 36<47.5918 134.831> 306 60<27.1277 205.889> 376 13<510 527.786> 437 21<21.8054 44>
DStem2: 208 243 231 257 0.127444 0.991846<16.8171 255.439> 399 48 366 64 0.759257 -0.650791<-27.7298 -0.197679>
AnchorPoint: "Yerok" 345 576.392 basechar 0
AnchorPoint: "Diacritic" 238 575 basechar 0
LayerCount: 2
Fore
SplineSet
78 98 m 0xbf78
 78 82 62 72 48 72 c 0
 34 72 22 80 22 80 c 1
 22 80 21 76 21 71 c 0
 21 57 25 31 51 20 c 0
 63 15 75 12 88 12 c 0
 107 12 127 19 143 35 c 0
 156 48 160 67 160 86 c 0
 160 112 152 136 152 136 c 1
 152 136 151 108 133 80 c 0
 122 62 99 47 84 47 c 0
 82 47 l 0
 82 48 112 57 112 124 c 0xbef8
 112 141 110 163 105 189 c 0
 88 274 76 300 76 382 c 0
 76 447 91 516 107 536 c 0
 118 550 140 556 159 556 c 0
 178 556 194 550 194 550 c 1
 209 545 203 532 195 534 c 0
 193 534 l 0
 169 534 156 419 156 382 c 0
 156 273 195 216 195 125 c 0
 195 119 196 114 196 108 c 0
 196 60 175 39 150 18 c 0
 131 2 110 0 89 0 c 0
 32 0 0 20 0 79 c 0xdf78
 0 109 21 128 44 128 c 0
 64 128 78 114 78 98 c 0xbf78
438 79 m 0xde78
 450 79 458 70 458 53 c 0
 458 26 438 -0 409 0 c 0
 379 0 306 7 306 95 c 0
 306 149 304 243 208 243 c 1
 231 422 l 2
 245 531 291 550 321 550 c 0
 365 550 389 538 389 507 c 0
 389 481 376 467 361 467 c 0
 348 467 336 477 336 489 c 0
 336 508 349 515 358 515 c 0
 367 515 376 510 376 510 c 1
 376 538 341 540 331 540 c 0
 269 540 255 448 245 367 c 2
 231 257 l 1
 351 257 367 208 367 136 c 0
 367 68 399 48 399 48 c 1
 399 48 389 46 380 52 c 0
 373 57 366 64 366 64 c 1
 366 64 366 63 366 61 c 0
 366 53 367 29 383 22 c 0
 390 19 399 17 407 17 c 0
 423 17 437 25 437 44 c 1
 437 44 436 44 434 44 c 0
 430 44 417 46 417 65 c 0
 417 72 427 79 438 79 c 0xde78
EndSplineSet
Validated: 1
Colour: ff00
EndChar

StartChar: uni041B.simple
Encoding: 62747 62747 41
Width: 430
GlyphClass: 2
Flags: W
HStem: 0 12<33.6423 71.1579 283 309 385 411> 42 32.5<21.0215 40.7839> 538 12<283 309 385 411>
VStem: -1 22<20.8906 42> 11 30<42.9001 74.358> 92 63<36.4517 239.305> 309 76<12 418 437 538>
AnchorPoint: "Yerok" 347.5 582 basechar 0
AnchorPoint: "Diacritic" 348 582 basechar 0
LayerCount: 2
Fore
SplineSet
-0 51 m 0
 -0 68 8 77 20 77 c 0
 31 77 41 70 41 63 c 0
 41 44 28 42 24 42 c 0
 21 42 l 1
 21 23 36 14 52 14 c 0
 60 14 68 16 75 20 c 0
 91 29 92 62 92 62 c 1
 92 62 85 55 78 50 c 0
 69 44 59 46 59 46 c 1
 59 46 79 58 88 84 c 0
 90 90 91 98 91 108 c 0
 91 115 91 123 91 132 c 0
 91 158 93 193 112 236 c 0
 144 308 309 437 309 437 c 1
 309 538 l 1
 283 538 l 1
 283 550 l 1
 411 550 l 1
 411 538 l 1
 385 538 l 1
 385 12 l 1
 411 12 l 1
 411 0 l 1
 283 0 l 1
 283 12 l 1
 309 12 l 1
 309 418 l 1
 288 390 232 349 195 281 c 0
 159 214 156 175 156 140 c 0
 156 133 156 125 156 118 c 0
 156 108 154 97 154 86 c 0
 154 31 98 0 49 0 c 0
 20 0 -0 24 -0 51 c 0
EndSplineSet
Validated: 1
Colour: ff00
EndChar

StartChar: uni041C.simple
Encoding: 62748 62748 42
Width: 580
GlyphClass: 2
Flags: W
HStem: 0 12<33.6423 71.1442 233 259 335 361 433 459 535 561> 42 32.5<21.0215 40.7839> 538 12<233 259 335 361 433 459 535 561>
VStem: -1 22<20.8906 42> 11 30<42.9001 74.358> 92 63<36.9285 279.595> 259 76<12 300 323 418 437 538> 459 76<12 423 447 538>
DStem2: 335 323 335 300 0.707107 0.707107<0 158.392>
AnchorPoint: "Yerok" 501.5 577 basechar 0
AnchorPoint: "Diacritic" 389 575 basechar 0
LayerCount: 2
Fore
SplineSet
-0 51 m 0
 -0 68 8 77 20 77 c 0
 31 77 41 70 41 63 c 0
 41 44 28 42 24 42 c 0
 21 42 l 1
 21 23 36 14 52 14 c 0
 60 14 68 16 75 20 c 0
 91 29 92 62 92 62 c 1
 92 62 85 55 78 50 c 0
 69 44 59 46 59 46 c 1
 59 46 79 58 88 84 c 0
 97 109 81 208 115 284 c 0
 147 356 259 437 259 437 c 1
 259 538 l 1
 233 538 l 1
 233 550 l 1
 361 550 l 1
 361 538 l 1
 335 538 l 1
 335 323 l 1
 459 447 l 1
 459 538 l 1
 433 538 l 1
 433 550 l 1
 561 550 l 1
 561 538 l 1
 535 538 l 1
 535 12 l 1
 561 12 l 1
 561 0 l 1
 433 0 l 1
 433 12 l 1
 459 12 l 1
 459 423 l 1
 335 300 l 1
 335 12 l 1
 361 12 l 1
 361 0 l 1
 233 0 l 1
 233 12 l 1
 259 12 l 1
 259 418 l 1
 259 418 223 387 196 335 c 0
 142 232 161 143 154 86 c 0
 147 31 98 0 49 0 c 0
 20 0 -0 24 -0 51 c 0
EndSplineSet
Validated: 1
Colour: ff00
EndChar

StartChar: uni041D.simple
Encoding: 62749 62749 43
Width: 470
GlyphClass: 2
Flags: W
HStem: 0 12<56.2787 117.55 306.279 367.55> 47 1<84 84.3447 334 334.345> 72 56<22.0625 68.2018 272.062 318.202> 534 22<430.053 451.926>
VStem: 0 21<35.2169 79.7801> 76 80<236.947 460.862> 112 40<78.7878 135.121> 160 35<45.9072 134.831> 211 64<350.518 409.045> 250 21<35.2169 79.7801> 326 80<266.6 518.879> 362 40<78.7878 135.934> 410 35<45.9072 134.831>
AnchorPoint: "Yerok" 405.5 576.392 basechar 0
AnchorPoint: "Diacritic" 275 575 basechar 0
LayerCount: 2
Fore
SplineSet
211 382 m 0xf330
 211 397 225 406 235 410 c 1
 230 418 226 431 206 443 c 0
 191 452 177 458 164 462 c 1
 159 432 156 399 156 382 c 0xfb30
 156 273 195 216 195 125 c 0
 195 119 196 114 196 108 c 0
 196 60 175 39 150 18 c 0
 131 2 110 0 89 0 c 0
 32 0 0 20 0 79 c 0
 0 109 21 128 44 128 c 0
 64 128 78 114 78 98 c 0
 78 82 62 72 48 72 c 0
 34 72 22 80 22 80 c 1
 22 80 21 76 21 71 c 0
 21 57 25 31 51 20 c 0
 63 15 75 12 88 12 c 0
 107 12 127 19 143 35 c 0
 156 48 160 67 160 86 c 0
 160 112 152 136 152 136 c 1
 152 136 151 108 133 80 c 0
 122 62 99 47 84 47 c 0
 82 47 l 0
 82 48 112 57 112 124 c 0xf610
 112 141 110 163 105 189 c 0
 88 274 76 300 76 382 c 0
 76 447 91 516 107 536 c 0
 118 550 140 556 159 556 c 0
 178 556 194 550 194 550 c 1
 209 545 203 532 195 534 c 0
 193 534 l 0
 182 534 173 510 167 479 c 1
 213 468 253 438 270 395 c 0
 273 388 275 383 275 377 c 0xfb10
 275 362 261 353 251 349 c 1
 256 341 260 328 280 316 c 0
 299 305 316 299 333 295 c 1
 329 320 326 346 326 382 c 0
 326 447 341 516 357 536 c 0
 368 550 390 556 409 556 c 0
 435 556 453 552 453 541 c 0
 453 534 448 534 443 534 c 0
 419 534 406 419 406 382 c 0
 406 273 445 216 445 125 c 0
 445 119 446 114 446 108 c 0
 446 60 425 39 400 18 c 0
 381 2 360 0 339 0 c 0
 282 0 250 20 250 79 c 0
 250 109 271 128 294 128 c 0
 314 128 328 114 328 98 c 0
 328 82 312 72 298 72 c 0
 284 72 272 80 272 80 c 1
 272 80 271 76 271 71 c 0xf2d0
 271 57 275 31 301 20 c 0
 313 15 325 12 338 12 c 0
 357 12 377 19 393 35 c 0
 406 48 410 67 410 86 c 0
 410 112 402 136 402 136 c 1
 402 136 401 108 383 80 c 0
 372 62 349 47 334 47 c 0
 332 47 l 0
 332 48 362 57 362 124 c 0
 362 169 343 245 336 278 c 1
 318 281 289 287 265 304 c 0
 242 320 226 334 216 364 c 0
 213 372 211 377 211 382 c 0xf330
EndSplineSet
Validated: 1
Colour: ff00
EndChar

StartChar: uni041E.simple
Encoding: 62750 62750 44
Width: 425
GlyphClass: 2
Flags: W
HStem: 0 12<57.2471 117.75 142 205.5> 47 2<87 88.6338> 72 56<22.0625 68.2018> 422 56<345.798 391.938> 501 2<325.366 327> 538 12<208.9 272 296.25 356.753>
VStem: 0 21<35.2482 79.7801> 68 76<268.111 472.542> 121 31<86.125 135.299> 160 35<54.979 135.534> 219 35<414.368 495.021> 262 31<414.701 463.875> 270 76<78.4307 278.249> 393 21<470.22 514.752>
AnchorPoint: "Yerok" 346 576.2 basechar 0
AnchorPoint: "Diacritic" 247 575 basechar 0
LayerCount: 2
Fore
SplineSet
270 158 m 0xfdb0
 270 263 219 317 219 425 c 0
 219 486 244 515 272 538 c 1
 270 538 268 538 266 538 c 0
 246 538 215 534 215 534 c 1
 154 519 144 433 144 384 c 0
 144 285 195 230 195 125 c 0
 195 64 170 35 142 12 c 1
 144 12 146 12 148 12 c 0
 168 12 199 16 199 16 c 0
 258 30 270 97 270 158 c 0xfdb0
336 452 m 0
 336 468 352 478 366 478 c 0
 380 478 392 470 392 470 c 1
 392 470 393 474 393 479 c 0
 393 493 389 519 363 530 c 0
 351 535 339 538 326 538 c 0
 307 538 287 531 271 515 c 0
 258 502 254 483 254 464 c 0
 254 438 262 414 262 414 c 2
 262 414 263 442 281 470 c 0
 292 488 315 503 330 503 c 0
 331 503 l 0
 331 501 293 492 293 435 c 0xfdd0
 293 416 297 392 309 361 c 0
 344 268 346 239 346 168 c 0
 346 83 296 12 213 0 c 0
 190 -3 166 -4 143 -4 c 0
 98 -4 61 0 61 0 c 0
 21 6 0 31 0 79 c 0
 0 109 21 128 44 128 c 0
 64 128 78 114 78 98 c 0
 78 82 62 72 48 72 c 0
 34 72 22 80 22 80 c 1
 22 80 21 76 21 71 c 0
 21 57 25 31 51 20 c 0
 63 15 75 12 88 12 c 0
 107 12 127 19 143 35 c 0
 156 48 160 67 160 86 c 0
 160 112 152 136 152 136 c 1
 152 136 151 108 133 80 c 0
 122 62 99 47 84 47 c 0
 83 47 l 0
 83 49 121 58 121 115 c 0xfbb0
 121 134 117 158 105 189 c 0
 70 282 68 300 68 382 c 0
 68 467 118 538 201 550 c 0
 224 553 248 554 271 554 c 0
 316 554 353 550 353 550 c 1
 393 544 414 519 414 471 c 0
 414 441 393 422 370 422 c 0
 350 422 336 436 336 452 c 0
EndSplineSet
Validated: 1
Colour: ff00
EndChar

StartChar: uni041F.simple
Encoding: 62751 62751 45
Width: 506
GlyphClass: 2
Flags: W
HStem: 0 12<56.2787 117.55 346.279 407.55> 47 1<84 84.3447 374 374.345> 72 56<22.0625 68.2018 312.062 358.202> 534 22<470.053 492.579> 579 13<157.573 200.124 385.876 428.427> 631 33<192.086 221.781 364.031 393.914> 680 10<283.965 300.041>
VStem: 0 21<35.2169 79.7801> 76 80<236.947 506.501> 112 40<78.7878 135.121> 160 35<45.9072 134.831> 224 10<615.605 639.841> 273 10<670 679.166> 290 21<35.2169 79.7801> 301 9<655.793 678.887> 352 10<615.605 639.841> 366 80<236.947 504.888> 402 40<78.7878 135.121> 450 35<45.9072 134.831>
DStem2: 251 509 260 500 0.688116 0.725601<0 44.9016 57.9624 103.979> 260 582 252 572 0.707107 -0.707107<0.834166 45.2548 57.9828 104.652> 292 648 302 642 0.529999 0.847998<-69.0353 -18.656 0 23.2115>
AnchorPoint: "Yerok" 445 665 basechar 0
AnchorPoint: "Diacritic" 292 728 basechar 0
LayerCount: 2
Fore
SplineSet
362 631 m 0xfe7240
 362 612 385 592 410 592 c 0
 425 592 433 600 438 611 c 1
 451 604 l 1
 445 588 429 579 411 579 c 0
 381 579 352 604 352 633 c 0
 352 647 362 664 375 664 c 0
 385 664 394 655 394 646 c 0
 394 637 383 631 379 631 c 0
 371 631 364 640 364 640 c 1
 362 637 362 634 362 631 c 0xfe7240
211 664 m 0
 224 664 234 647 234 633 c 0
 234 604 205 579 175 579 c 0
 157 579 141 588 135 604 c 1
 148 611 l 1
 153 600 161 592 176 592 c 0
 201 592 224 612 224 631 c 0
 224 634 224 637 222 640 c 1
 222 640 215 631 207 631 c 0
 203 631 192 637 192 646 c 0
 192 655 201 664 211 664 c 0
447 556 m 0
 475 556 494 552 494 540 c 0
 494 534 489 534 483 534 c 0
 459 534 446 419 446 382 c 0xff7740
 446 273 485 216 485 125 c 0
 485 119 486 114 486 108 c 0
 486 60 465 39 440 18 c 0
 421 2 400 0 379 0 c 0
 322 0 290 20 290 79 c 0
 290 109 311 128 334 128 c 0
 354 128 368 114 368 98 c 0
 368 82 352 72 338 72 c 0
 324 72 312 80 312 80 c 1
 312 80 311 76 311 71 c 0
 311 57 315 31 341 20 c 0
 353 15 365 12 378 12 c 0
 397 12 417 19 433 35 c 0
 446 48 450 67 450 86 c 0
 450 112 442 136 442 136 c 1
 442 136 441 108 423 80 c 0
 412 62 389 47 374 47 c 0
 372 47 l 0
 372 48 402 57 402 124 c 0xfe7ac0
 402 141 400 163 395 189 c 0
 378 274 366 300 366 382 c 0
 366 447 397 536 397 536 c 1
 397 536 353 515 330 484 c 0
 305 451 304 426 292 426 c 0
 279 426 280 451 254 484 c 0
 233 511 207 533 193 537 c 1
 161 484 156 417 156 382 c 0xff7340
 156 273 195 216 195 125 c 0
 195 119 196 114 196 108 c 0
 196 60 175 39 150 18 c 0
 131 2 110 0 89 0 c 0
 32 0 0 20 0 79 c 0
 0 109 21 128 44 128 c 0
 64 128 78 114 78 98 c 0
 78 82 62 72 48 72 c 0
 34 72 22 80 22 80 c 1
 22 80 21 76 21 71 c 0
 21 57 25 31 51 20 c 0
 63 15 75 12 88 12 c 0
 107 12 127 19 143 35 c 0
 156 48 160 67 160 86 c 0
 160 112 152 136 152 136 c 1
 152 136 151 108 133 80 c 0
 122 62 99 47 84 47 c 0
 82 47 l 0
 82 48 112 57 112 124 c 0xfef240
 112 141 110 163 105 189 c 0
 88 274 76 300 76 382 c 0
 76 447 85 502 107 536 c 0
 116 550 132 556 150 556 c 0
 165 556 182 551 195 549 c 1
 208 557 232 574 254 596 c 0
 277 619 285 638 285 638 c 1
 285 638 273 654 273 666 c 0
 273 680 281 690 292 690 c 0
 305 690 310 680 310 666 c 0xff7640
 310 652 300 638 300 638 c 1
 300 638 308 620 330 596 c 0
 355 568 379 553 387 550 c 0
 400 546 410 547 410 547 c 1
 421 552 434 556 447 556 c 0
301 670 m 0
 301 675 297 680 292 680 c 0
 287 680 283 675 283 670 c 0
 283 662 292 648 292 648 c 1
 292 648 301 662 301 670 c 0
324 582 m 1
 310 598 293 619 292 626 c 1
 291 619 275 597 260 582 c 1
 292 550 l 1
 324 582 l 1
378 542 m 1
 366 547 349 560 333 575 c 1
 301 541 l 1
 334 508 l 1
 350 525 366 536 378 542 c 1
283 541 m 1
 252 572 l 1
 235 558 219 548 206 542 c 1
 218 537 235 526 251 509 c 1
 283 541 l 1
325 499 m 1
 292 532 l 1
 260 500 l 1
 274 484 287 462 292 438 c 1
 298 462 310 483 325 499 c 1
EndSplineSet
Validated: 1
Colour: ff00
EndChar

StartChar: uni0420.simple
Encoding: 62752 62752 46
Width: 405
GlyphClass: 2
Flags: W
HStem: -1 13<61 119.238> 47 2<87 88.6338> 72 56<22.0625 68.2018> 318 19<269.594 317.28> 369 31<165.708 218> 534 17<193.592 277.67>
VStem: 0 21<35.2482 79.7801> 68 76<368 473.097> 121 31<86.125 135.299> 160 35<45.0526 135.32> 341 52<349.592 486.859>
AnchorPoint: "Yerok" 366.5 574.8 basechar 0
AnchorPoint: "Diacritic" 226 575 basechar 0
LayerCount: 2
Fore
SplineSet
208 400 m 0xfec0
 248 400 253 337 291 337 c 0
 295 337 298 338 302 339 c 0
 326 346 341 358 341 394 c 0
 341 407 339 423 335 443 c 0
 323 501 291 535 231 535 c 0
 226 535 220 534 215 534 c 0
 160 529 144 433 144 384 c 0
 144 379 144 373 145 368 c 1
 162 384 187 400 208 400 c 0xfec0
277 318 m 0
 201 318 210 369 178 369 c 0
 163 369 155 357 147 346 c 1
 157 269 195 216 195 125 c 0
 195 64 181 38 150 18 c 0
 125 2 95 -1 78 -1 c 0
 67 -1 61 0 61 0 c 0
 21 6 0 31 0 79 c 0
 0 109 21 128 44 128 c 0
 64 128 78 114 78 98 c 0
 78 82 62 72 48 72 c 0
 34 72 22 80 22 80 c 1
 22 80 21 76 21 71 c 0
 21 57 25 31 51 20 c 0
 63 15 75 12 88 12 c 0
 107 12 127 19 143 35 c 0
 156 48 160 67 160 86 c 0
 160 112 152 136 152 136 c 1
 152 136 151 108 133 80 c 0
 122 62 99 47 84 47 c 0
 83 47 l 0
 83 49 121 58 121 115 c 0xfdc0
 121 134 117 158 105 189 c 0
 70 282 68 300 68 382 c 0
 68 467 118 545 201 550 c 0
 211 551 221 551 231 551 c 0
 325 551 393 519 393 414 c 0
 393 344 350 318 277 318 c 0
EndSplineSet
Validated: 1
Colour: ff00
EndChar

StartChar: uni0421.simple
Encoding: 62753 62753 47
Width: 420
GlyphClass: 2
Flags: W
HStem: -5 13<68.0134 108.031 135 213.146> 47 2<87 88.6338> 72 56<22.0625 68.2018> 132 35<356.159 376> 195 14<320.972 366.148> 380 21<258.008 289.629> 402 64<258 280.469> 535 16<195.427 271.3>
VStem: 0 21<35.2023 79.7801> 68 76<268.111 473.299> 121 31<86.125 135.299> 160 35<47.3252 135.534> 218 65<401.917 463.532> 247 59<21.426 177.78> 309 46<409.844 516.7> 376 21<167 187.264>
AnchorPoint: "Yerok" 333.5 575.4 basechar 0
AnchorPoint: "Diacritic" 226 575 basechar 0
LayerCount: 2
Fore
SplineSet
143 -5 m 0xff5c
 59 -5 0 -4 0 79 c 0
 0 109 21 128 44 128 c 0
 64 128 78 114 78 98 c 0
 78 82 62 72 48 72 c 0
 34 72 22 80 22 80 c 1
 22 80 21 76 21 71 c 0
 21 57 25 31 51 20 c 0
 63 15 75 12 88 12 c 0
 107 12 127 19 143 35 c 0
 156 48 160 67 160 86 c 0
 160 112 152 136 152 136 c 1
 152 136 151 108 133 80 c 0
 122 62 99 47 84 47 c 0
 83 47 l 0
 83 49 121 58 121 115 c 0xfedc
 121 134 117 158 105 189 c 0
 70 282 68 300 68 382 c 0
 68 467 118 545 201 550 c 0
 212 551 222 551 232 551 c 0
 311 551 355 528 355 448 c 0
 355 408 318 380 277 380 c 0
 246 380 218 395 218 426 c 0
 218 449 234 466 251 466 c 0
 269 466 283 456 283 438 c 0xff6c
 283 436 283 433 282 430 c 0
 277 402 258 401 258 401 c 1
 258 401 307 401 309 451 c 0
 309 453 309 455 309 457 c 0
 309 501 287 535 229 535 c 0
 225 535 220 534 215 534 c 0
 160 529 144 433 144 384 c 0
 144 285 195 230 195 125 c 0
 195 56 173 31 135 8 c 1
 142 8 148 8 154 8 c 0
 157 8 160 8 163 8 c 0
 190 8 212 9 226 20 c 0
 246 36 250 50 250 67 c 0
 250 81 247 97 247 116 c 0
 247 124 247 132 249 141 c 0
 256 180 299 209 348 209 c 0
 377 209 397 185 397 158 c 0
 397 141 389 132 377 132 c 0
 366 132 356 139 356 146 c 0
 356 165 369 167 373 167 c 0
 376 167 l 1
 376 186 361 195 345 195 c 0
 337 195 329 193 322 189 c 0
 306 180 305 147 305 147 c 1
 305 147 312 154 319 159 c 0
 328 165 338 163 338 163 c 1
 338 163 318 151 309 125 c 0
 307 119 306 114 306 108 c 0
 306 96 309 85 309 71 c 0
 309 63 308 54 304 44 c 0
 289 5 210 -5 143 -5 c 0xff5c
EndSplineSet
Validated: 1
Colour: ff00
EndChar

StartChar: uni0422.simple
Encoding: 62754 62754 48
Width: 660
GlyphClass: 2
Flags: W
HStem: 0 12<269 293 377 402> 257 13<162.913 209.648 448.352 495.087> 397 13<207.015 219.987 440.015 452.987> 411 13<223.015 235.987 424.015 436.987> 419 10.5<183.599 212.961 445.039 474.401> 431 13<223.015 235.987 424.015 436.987> 455 12<175.244 222.02 435.98 482.756> 533 17<107.154 142 167.798 293 416 490.202 516 550.846>
VStem: 66 24<444.053 515> 120 40<435.342 531.57> 134 12<287.129 327.582> 182 31<330.871 366> 207 13<397.015 409.987> 223 13<411.015 423.987 431.015 443.987> 229 14<289.141 341.95> 293 84<12 533> 415 14<289.141 341.828> 424 13<411.015 423.987 431.015 443.987> 440 13<397.015 409.987> 445 30<335.25 426.917> 498 40<435.342 531.572> 512 12<287.129 327.582> 568 24<444.029 516.063>
AnchorPoint: "Yerok" 512 576 basechar 0
AnchorPoint: "Diacritic" 341 575 basechar 0
LayerCount: 2
Fore
SplineSet
461 467 m 0xff2658
 479 467 498 479 498 501 c 0
 498 515 491 527 479 533 c 1
 479 533 436 533 416 533 c 1
 416 533 436 526 448 513 c 0
 461 499 461 489 451 489 c 0
 445 489 442 499 423 515 c 0
 414 523 396 529 377 533 c 1
 377 12 l 1
 402 12 l 1
 402 0 l 1
 269 0 l 1
 269 12 l 1
 293 12 l 1
 293 533 l 1
 292 533 291 533 290 533 c 0
 264 533 244 523 235 515 c 0
 216 499 213 489 207 489 c 0
 197 489 197 499 210 513 c 0
 222 526 242 533 242 533 c 1
 179 533 l 1
 167 527 160 515 160 501 c 0xffa668
 160 479 179 467 197 467 c 0
 223 467 236 484 243 484 c 0
 246 484 248 482 248 479 c 0
 248 470 221 455 202 455 c 0
 181 455 158 466 155 472 c 1
 155 469 156 467 156 464 c 0
 161 428 213 433 213 424 c 0
 213 421 209 419 203 419 c 0
 197 419 189 421 176 426 c 0
 159 433 148 447 148 447 c 1
 148 447 148 434 168 419 c 0
 199 396 213 379 220 370 c 0
 235 350 243 335 243 308 c 0
 243 281 220 257 189 257 c 0
 160 257 134 273 134 303 c 0
 134 318 140 334 154 334 c 0
 156 334 l 0
 156 332 146 326 146 308 c 0xff6c08
 146 286 163 270 187 270 c 0
 210 270 229 288 229 315 c 0
 229 343 207 366 207 366 c 1
 207 366 209 356 204 343 c 0
 195 321 182 320 178 320 c 0
 177 320 l 1
 177 320 183 326 182 338 c 1
 182 339 l 0
 182 376 120 428 120 480 c 0
 120 502 128 524 142 533 c 1
 128 533 l 2
 100 533 90 496 90 471 c 0
 90 445 106 433 106 427 c 0
 106 425 104 423 101 423 c 0
 87 423 66 458 66 486 c 0
 66 502 70 515 70 515 c 1
 0 550 l 1
 658 550 l 1
 588 515 l 1
 588 515 592 502 592 486 c 0
 592 458 571 423 557 423 c 0
 554 423 552 425 552 427 c 0
 552 433 568 445 568 471 c 0
 568 496 558 533 530 533 c 2
 516 533 l 1
 530 524 538 503 538 481 c 0xffac28
 538 429 475 377 475 339 c 0
 475 327 481 320 481 320 c 1
 481 320 481 320 480 320 c 0
 476 320 463 321 454 343 c 0
 449 356 451 366 451 366 c 1
 451 366 429 343 429 315 c 0
 429 288 448 270 471 270 c 0
 495 270 512 286 512 308 c 0
 512 326 502 332 502 334 c 0
 502 334 503 334 504 334 c 0
 518 334 524 318 524 303 c 0
 524 273 498 257 469 257 c 0
 438 257 415 281 415 308 c 0
 415 335 423 350 438 370 c 0
 445 379 459 396 490 419 c 0
 510 434 510 447 510 447 c 1
 510 447 499 433 482 426 c 0
 469 421 461 419 455 419 c 0
 449 419 445 421 445 424 c 0
 445 433 497 428 502 464 c 0
 502 467 503 469 503 472 c 1
 500 466 477 455 456 455 c 0
 437 455 410 470 410 479 c 0
 410 482 412 484 415 484 c 0
 422 484 435 467 461 467 c 0xff2658
424 438 m 0xff2508
 424 441 427 444 431 444 c 0
 434 444 437 441 437 438 c 0
 437 434 434 431 431 431 c 0
 427 431 424 434 424 438 c 0xff2508
453 404 m 0xff2488
 453 400 450 397 447 397 c 0
 443 397 440 400 440 404 c 0
 440 407 443 410 447 410 c 0
 450 410 453 407 453 404 c 0xff2488
437 418 m 0xff2508
 437 414 434 411 431 411 c 0
 427 411 424 414 424 418 c 0
 424 421 427 424 431 424 c 0
 434 424 437 421 437 418 c 0xff2508
236 438 m 0xff3408
 236 434 233 431 230 431 c 0
 226 431 223 434 223 438 c 0
 223 441 226 444 230 444 c 0
 233 444 236 441 236 438 c 0xff3408
207 404 m 0
 207 407 210 410 214 410 c 0
 217 410 220 407 220 404 c 0
 220 400 217 397 214 397 c 0
 210 397 207 400 207 404 c 0
223 418 m 0
 223 421 226 424 230 424 c 0
 233 424 236 421 236 418 c 0
 236 414 233 411 230 411 c 0
 226 411 223 414 223 418 c 0
EndSplineSet
Validated: 1
Colour: ff00
EndChar

StartChar: uni0423.simple
Encoding: 62755 62755 49
Width: 340
GlyphClass: 2
Flags: W
HStem: -3 15<52.8259 119.321> 72 56<22.0625 68.2018> 225 12<52 78 154 175> 492 26<302.609 314> 538 12<12 38 114 138 270.924 307.818>
VStem: 0 21<35.1615 79.7801> 175 46<114.681 225 237 418.389> 314 16<518 533.812>
DStem2: 114 538 38 538 0.131732 -0.991285<0 293.635>
AnchorPoint: "Yerok" 291 576.7 basechar 0
AnchorPoint: "Diacritic" 172 575 basechar 0
LayerCount: 2
Fore
SplineSet
187 126 m 1
 181 119 136 65 117 65 c 0
 116 65 l 0
 116 65 116 65 116 66 c 0
 116 73 175 110 175 206 c 2
 175 225 l 1
 52 225 l 1
 52 237 l 1
 78 237 l 1
 38 538 l 1
 12 538 l 1
 12 550 l 1
 138 550 l 1
 138 538 l 1
 114 538 l 1
 154 237 l 1
 175 237 l 1
 175 372 205 461 211 475 c 0
 235 530 250 550 293 550 c 0
 315 550 330 531 330 511 c 0
 330 498 323 492 314 492 c 0
 307 492 299 496 299 502 c 0
 299 521 314 518 314 518 c 1
 314 532 302 540 290 540 c 0
 284 540 279 538 274 535 c 0
 262 527 251 504 251 504 c 1
 259 510 263 513 286 515 c 1
 286 515 273 504 258 477 c 0
 243 450 221 406 221 207 c 0
 221 106 194 62 150 18 c 0
 133 1 114 -3 94 -3 c 0
 34 -3 0 17 0 79 c 0
 0 109 21 128 44 128 c 0
 64 128 78 114 78 98 c 0
 78 82 62 72 48 72 c 0
 34 72 22 80 22 80 c 1
 22 80 21 76 21 71 c 0
 21 57 25 31 51 20 c 0
 63 15 75 12 87 12 c 0
 103 12 118 17 131 26 c 0
 173 54 187 126 187 126 c 1
EndSplineSet
Validated: 1
Colour: ff00
EndChar

StartChar: uni0424
Encoding: 1060 1060 50
Width: 430
Flags: W
HStem: -2 13<143.09 206.202> 72 56<108.437 156.172> 132 13<156.014 168.985> 152 13<156.014 168.985> 166 13<140.014 152.985> 249 14<62 102.589> 276 18<251.367 327.906> 278 24<106.963 167.587> 468 15<121.819 169.704 253.345 296.304> 535 20<267.209 289.17>
VStem: 3 74<321.057 445.753> 86 21.5<35.5469 79.8398> 121 13<183.629 227.303> 140 13<166.002 178.987> 156 13<132.002 144.987 152.002 164.987> 162 80<302.111 467.094> 171 80<188.316 283 302 377.719 382.437 468 481 532.653> 199 39<79.7637 135.112> 246 35<46.9585 135.439> 347 74<317.245 441.444>
AnchorPoint: "Yerok" 389 509.4 basechar 0
AnchorPoint: "Diacritic" 238 575 basechar 0
LayerCount: 2
Fore
SplineSet
156 139 m 0xfccf08
 156 142 159 145 163 145 c 0
 166 145 169 142 169 139 c 0
 169 135 166 132 163 132 c 0
 159 132 156 135 156 139 c 0xfccf08
156 159 m 0
 156 162 159 165 163 165 c 0
 166 165 169 162 169 159 c 0
 169 155 166 152 163 152 c 0
 159 152 156 155 156 159 c 0
140 173 m 0
 140 176 143 179 147 179 c 0
 150 179 153 176 153 173 c 0
 153 169 150 166 147 166 c 0
 143 166 140 169 140 173 c 0
80 262 m 0
 111 262 134 238 134 211 c 0
 134 170 112 162 92 145 c 0
 84 137 81 129 81 129 c 1
 81 129 92 143 109 150 c 0
 122 155 130 157 136 157 c 0
 142 157 146 155 146 151 c 0
 146 143 115 147 90 123 c 0
 84 117 78 99 78 99 c 1
 77 100 58 109 58 129 c 0
 58 160 81 175 81 200 c 0
 81 201 l 0
 81 213 75 219 75 219 c 1
 75 219 75 219 76 219 c 0
 80 219 93 218 102 196 c 0
 107 183 105 173 105 173 c 1
 105 173 120 184 120 205 c 0
 120 231 101 249 78 249 c 0
 54 249 37 233 37 211 c 0
 37 193 47 187 47 185 c 0
 47 185 46 185 45 185 c 0
 31 185 25 201 25 216 c 0xfcde08
 25 246 51 262 80 262 c 0
170 469 m 1
 170 469 145 469 126 462 c 0
 93 450 77 417 77 383 c 0
 77 349 93 315 125 302 c 0
 134 298 140 297 146 297 c 0
 155 297 160 301 168 302 c 1
 164 324 162 349 162 382 c 0xfdee88
 162 412 165 443 170 469 c 1
173 481 m 1
 183 531 195 554 245 554 c 0
 264 554 280 550 280 550 c 1
 295 545 289 532 281 534 c 0
 279 534 l 0
 268 534 260 510 253 480 c 1
 258 481 266 483 279 483 c 0
 288 483 299 482 314 480 c 0
 386 468 421 441 421 381 c 0
 421 308 356 277 313 276 c 0
 283 276 263 279 251 283 c 1xfeee48
 261 229 276 184 281 125 c 0
 281 119 282 114 282 108 c 0
 282 60 261 39 236 18 c 0
 217 2 196 -2 175 -2 c 0
 118 -2 86 20 86 79 c 0
 86 109 107 128 130 128 c 0
 150 128 164 114 164 98 c 0
 164 82 148 72 134 72 c 0
 120 72 108 80 108 80 c 1
 108 80 107 76 107 71 c 0
 107 57 111 31 137 20 c 0
 149 15 161 12 174 12 c 0
 193 12 213 19 229 35 c 0
 242 48 246 67 246 86 c 0
 246 112 238 136 238 136 c 1
 238 136 237 108 219 80 c 0
 208 62 185 47 170 47 c 0
 168 47 l 0
 168 48 198 57 198 124 c 0xfece38
 198 171 177 249 171 284 c 1xfece48
 159 281 140 278 111 278 c 0
 68 279 3 310 3 383 c 0
 3 443 32 468 110 482 c 0
 125 485 136 486 145 486 c 0
 160 486 169 483 173 481 c 1
248 300 m 1
 257 300 263 294 275 294 c 0
 281 294 289 296 299 300 c 0
 331 314 347 346 347 380 c 0
 347 413 331 446 298 460 c 0
 281 467 260 468 253 468 c 0
 251 468 l 1xfece48
 245 436 242 400 242 382 c 0xfece88
 242 351 244 325 248 300 c 1
EndSplineSet
Validated: 1
Substitution2: "'ss01' Style Set Simple Forms-1" uni0424.simple
Colour: ff00
EndChar

StartChar: uni0425
Encoding: 1061 1061 51
Width: 425
Flags: W
HStem: 0 12<43.7344 80.8945 273 299 375 401> 42 36<26.082 39.9668> 358 7<330.5 349.11> 538 12<101 127 203 229 328.266 372.125>
VStem: 0 40<42 75.8096> 81 8<365.643 378.429> 169 96<340.155 401.364> 285 9.5<390.949 409.452> 350 8<365.612 378.352> 357 58<460.027 502.616> 403 12<497.18 518.85>
DStem2: 193 339 214 334 0.385806 0.92258<-55.5717 1.00231 75.7917 192.571>
AnchorPoint: "Yerok" 383.5 576.8 basechar 0
AnchorPoint: "Diacritic" 239 575 basechar 0
LayerCount: 2
Fore
SplineSet
154 340 m 0xfc
 149 331 146 345 139 353 c 0
 131 363 123 366 123 366 c 1
 123 366 108 354 97 357 c 0
 88 359 81 362 81 372 c 0
 81 382 88 384 97 386 c 0
 109 389 123 378 123 378 c 1
 123 378 131 381 139 390 c 0
 146 398 147 418 154 407 c 0
 155 406 155 403 155 402 c 0
 155 391 137 373 133 372 c 1
 137 371 155 353 155 343 c 0
 155 342 155 341 154 340 c 0xfc
358 372 m 0xfe
 358 362 351 359 342 357 c 0
 331 354 316 366 316 366 c 1
 316 366 308 363 300 353 c 0
 293 345 290 331 285 340 c 0
 284 341 284 342 284 343 c 0
 284 353 302 371 306 372 c 1
 302 373 284 391 284 402 c 0
 284 403 284 406 285 407 c 0
 292 418 293 398 300 390 c 0
 308 381 316 378 316 378 c 1
 316 378 330 389 342 386 c 0
 351 384 358 382 358 372 c 0xfe
403 504 m 0xfc80
 403 529 369 539 353 539 c 0
 303 539 271 469 242 402 c 1
 254 397 265 388 265 371 c 0
 265 354 254 344 240 338 c 1
 375 12 l 1
 401 12 l 1
 401 0 l 1
 273 0 l 1
 273 12 l 1
 299 12 l 1
 220 334 l 1
 218 334 216 334 214 334 c 1
 156 203 164 149 149 86 c 0
 136 32 112 0 63 0 c 0
 25 0 0 26 0 53 c 0
 0 70 11 79 23 79 c 0
 32 79 41 73 41 62 c 0
 41 40 26 42 26 42 c 1
 31 23 47 15 63 15 c 0
 70 15 78 17 84 20 c 0
 108 33 112 75 112 75 c 1
 112 75 99 61 88 55 c 0
 79 50 63 46 63 46 c 1
 63 46 90 61 99 108 c 0
 100 114 101 120 101 126 c 0
 101 147 95 168 95 190 c 0
 95 221 107 255 166 294 c 0
 184 306 193 339 193 339 c 1
 179 345 169 356 169 372 c 0
 169 388 180 397 195 402 c 1
 127 538 l 1
 101 538 l 1
 101 550 l 1
 229 550 l 1
 229 538 l 1
 203 538 l 1
 217 408 l 1
 217 408 219 408 222 407 c 1
 239 449 l 2
 273 532 312 552 341 552 c 0
 347 552 353 551 359 549 c 0
 395 540 415 525 415 503 c 0xfc80
 415 496 413 489 410 481 c 0
 403 465 393 459 383 459 c 0
 369 459 357 470 357 482 c 0xfd
 357 498 372 507 380 507 c 0
 391 507 402 497 402 497 c 1
 403 500 403 502 403 504 c 0xfc80
350 372 m 0xfe
 350 376 346 379 342 379 c 0
 335 379 324 372 324 372 c 1
 324 372 335 365 342 365 c 0
 346 365 350 368 350 372 c 0xfe
115 372 m 1
 115 372 104 379 97 379 c 0
 93 379 89 376 89 372 c 0
 89 368 93 365 97 365 c 0
 104 365 115 372 115 372 c 1
EndSplineSet
Validated: 1
Substitution2: "'ss01' Style Set Simple Forms-1" uni0425.simple
Colour: ff00
EndChar

StartChar: uni0428
Encoding: 1064 1064 52
Width: 540
Flags: W
HStem: 0 12<0 26 102 226 302 426 502 528> 538 12<0 26 102 128 200 226 302 328 400 426 502 528>
VStem: 26 76<12 538> 226 76<12 538> 426 76<12 538>
CounterMasks: 1 38
AnchorPoint: "Yerok" 467 576 basechar 0
AnchorPoint: "Diacritic" 270 575 basechar 0
LayerCount: 2
Fore
SplineSet
528 0 m 1
 0 0 l 1
 0 12 l 1
 26 12 l 1
 26 538 l 1
 0 538 l 1
 0 550 l 1
 128 550 l 1
 128 538 l 1
 102 538 l 1
 102 12 l 1
 226 12 l 1
 226 538 l 1
 200 538 l 1
 200 550 l 1
 328 550 l 1
 328 538 l 1
 302 538 l 1
 302 12 l 1
 426 12 l 1
 426 538 l 1
 400 538 l 1
 400 550 l 1
 528 550 l 1
 528 538 l 1
 502 538 l 1
 502 12 l 1
 528 12 l 1
 528 0 l 1
EndSplineSet
Validated: 1
Substitution2: "'ss01' Style Set Simple Forms-1" uni0428.simple
Colour: ff00
EndChar

StartChar: uni0424.simple
Encoding: 62756 62756 53
Width: 430
GlyphClass: 2
Flags: W
HStem: -2 13<143.09 206.202> 72 56<108.437 156.172> 276 18<251.367 327.906> 278 24<106.963 167.587> 468 15<121.819 169.704 253.345 296.304> 535 20<267.209 289.17>
VStem: 3 74<321.057 445.753> 86 21.5<35.5469 79.8398> 162 80<302.111 467.094> 171 80<188.316 283 302 377.719 382.437 468 481 532.653> 199 39<79.7637 135.112> 246 35<46.9585 135.439> 347 74<317.245 441.444>
AnchorPoint: "Yerok" 388 508.392 basechar 0
AnchorPoint: "Diacritic" 226 575 basechar 0
LayerCount: 2
Fore
SplineSet
170 469 m 1xdf88
 170 469 145 469 126 462 c 0
 93 450 77 417 77 383 c 0
 77 349 93 315 125 302 c 0
 134 298 140 297 146 297 c 0
 155 297 160 301 168 302 c 1
 164 324 162 349 162 382 c 0
 162 412 165 443 170 469 c 1xdf88
173 481 m 1
 183 531 195 556 245 556 c 0
 264 556 280 550 280 550 c 1
 295 545 289 532 281 534 c 0
 279 534 l 0
 268 534 260 510 253 480 c 1
 258 481 266 483 279 483 c 0
 288 483 299 482 314 480 c 0
 386 468 421 441 421 381 c 0
 421 308 356 276 313 276 c 0
 283 276 263 279 251 283 c 1xef48
 261 229 281 184 281 125 c 0
 281 119 282 114 282 108 c 0
 282 60 261 39 236 18 c 0
 217 2 196 0 175 0 c 0
 118 0 86 20 86 79 c 0
 86 109 107 128 130 128 c 0
 150 128 164 114 164 98 c 0
 164 82 148 72 134 72 c 0
 120 72 108 80 108 80 c 1
 108 80 107 76 107 71 c 0
 107 57 111 31 137 20 c 0
 149 15 161 12 174 12 c 0
 193 12 213 19 229 35 c 0
 242 48 246 67 246 86 c 0
 246 112 238 136 238 136 c 1
 238 136 237 108 219 80 c 0
 208 62 185 47 170 47 c 0
 168 47 l 0
 168 48 198 57 198 124 c 0xef38
 198 171 177 249 171 284 c 1xef48
 159 281 140 278 111 278 c 0
 68 278 3 310 3 383 c 0
 3 443 32 468 110 482 c 0
 125 485 136 486 145 486 c 0
 160 486 169 483 173 481 c 1
248 300 m 1
 257 300 263 294 275 294 c 0
 281 294 289 296 299 300 c 0
 331 314 347 346 347 380 c 0
 347 413 331 446 298 460 c 0
 281 467 260 468 253 468 c 0
 251 468 l 1xef48
 245 436 242 400 242 382 c 0xef88
 242 351 244 325 248 300 c 1
EndSplineSet
Validated: 1
Colour: ff00
EndChar

StartChar: uni0425.simple
Encoding: 62757 62757 54
Width: 425
GlyphClass: 2
Flags: W
HStem: 0 12<42.9453 79.5551 273 299 375 401> 42 35.5<26.0376 40.9329> 538 12<101 127 203 229 328.266 372.125>
VStem: 0 41<42 75.8096> 169 96<340.155 401.364> 357 58<460.027 502.616> 403 12<497.18 518.85>
DStem2: 193 339 214 334 0.385806 0.92258<-55.5717 1.00231 75.7917 192.571>
AnchorPoint: "Yerok" 379.5 575.8 basechar 0
AnchorPoint: "Diacritic" 245 575 basechar 0
LayerCount: 2
Fore
SplineSet
403 504 m 0xfa
 403 529 369 539 353 539 c 0
 303 539 271 469 242 402 c 1
 254 397 265 388 265 371 c 0
 265 354 254 344 240 338 c 1
 375 12 l 1
 401 12 l 1
 401 0 l 1
 273 0 l 1
 273 12 l 1
 299 12 l 1
 220 334 l 1
 218 334 216 334 214 334 c 1
 156 203 164 149 149 86 c 0
 136 32 112 0 63 0 c 0
 25 0 0 26 0 53 c 0
 0 70 11 79 23 79 c 0
 32 79 41 73 41 62 c 0
 41 40 26 42 26 42 c 1
 31 23 47 15 63 15 c 0
 70 15 78 17 84 20 c 0
 108 33 112 75 112 75 c 1
 112 75 99 61 88 55 c 0
 79 50 63 46 63 46 c 1
 63 46 90 61 99 108 c 0
 100 114 101 120 101 126 c 0
 101 147 95 168 95 190 c 0
 95 221 107 255 166 294 c 0
 184 306 193 339 193 339 c 1
 179 345 169 356 169 372 c 0
 169 388 180 397 195 402 c 1
 127 538 l 1
 101 538 l 1
 101 550 l 1
 229 550 l 1
 229 538 l 1
 203 538 l 1
 217 408 l 1
 217 408 219 408 222 407 c 1
 239 449 l 2
 273 532 312 552 341 552 c 0
 347 552 353 551 359 549 c 0
 395 540 415 525 415 503 c 0xfa
 415 496 413 489 410 481 c 0
 403 465 393 459 383 459 c 0
 369 459 357 470 357 482 c 0xfc
 357 498 372 507 380 507 c 0
 391 507 402 497 402 497 c 1
 403 500 403 502 403 504 c 0xfa
EndSplineSet
Validated: 1
Colour: ff00
EndChar

StartChar: uni0428.simple
Encoding: 62760 62760 55
Width: 540
GlyphClass: 2
Flags: W
HStem: 0 12<0 26 102 226 302 426 502 528> 538 12<0 26 102 128 200 226 302 328 400 426 502 528>
VStem: 26 76<12 538> 226 76<12 538> 426 76<12 538>
CounterMasks: 1 38
AnchorPoint: "Yerok" 466 577 basechar 0
AnchorPoint: "Diacritic" 266 575 basechar 0
LayerCount: 2
Fore
SplineSet
528 0 m 1
 0 0 l 1
 0 12 l 1
 26 12 l 1
 26 538 l 1
 0 538 l 1
 0 550 l 1
 128 550 l 1
 128 538 l 1
 102 538 l 1
 102 12 l 1
 226 12 l 1
 226 538 l 1
 200 538 l 1
 200 550 l 1
 328 550 l 1
 328 538 l 1
 302 538 l 1
 302 12 l 1
 426 12 l 1
 426 538 l 1
 400 538 l 1
 400 550 l 1
 528 550 l 1
 528 538 l 1
 502 538 l 1
 502 12 l 1
 528 12 l 1
 528 0 l 1
EndSplineSet
Validated: 1
Colour: ff00
EndChar

StartChar: uni0426
Encoding: 1062 1062 56
Width: 425
Flags: W
HStem: -105 5<334.031 335.037> 0 12<0 26 102 251 327 340> 538 12<0 26 102 128 225 251 327 353>
VStem: 26 76<12 538> 251 76<12 538>
AnchorPoint: "Yerok" 292 575.6 basechar 0
AnchorPoint: "Diacritic" 180 575 basechar 0
LayerCount: 2
Fore
SplineSet
335 -104 m 0xf4
 334 -104 332 -103 332 -102 c 0xf8
 332 -99 342 -93 342 -58 c 0
 342 -23 329 0 281 0 c 2
 0 0 l 1
 0 12 l 1
 26 12 l 1
 26 538 l 1
 0 538 l 1
 0 550 l 1
 128 550 l 1
 128 538 l 1
 102 538 l 1
 102 12 l 1
 251 12 l 1
 251 538 l 1
 225 538 l 1
 225 550 l 1
 353 550 l 1
 353 538 l 1
 327 538 l 1
 327 12 l 1
 410 12 l 1
 359 -23 l 1
 359 -23 365 -28 365 -45 c 0
 365 -51 364 -59 362 -69 c 0
 357 -92 341 -104 335 -104 c 0xf4
EndSplineSet
Validated: 1
Substitution2: "'ss01' Style Set Simple Forms-1" uni0426.simple
Colour: ff00
EndChar

StartChar: uni042A
Encoding: 1066 1066 57
Width: 630
Flags: W
HStem: 0 12<207 235 311 520 550.445 585.396> 257 14<161.856 210.69> 353 32<480.356 510.855> 366 9<409.417 444.996> 390 10<402.883 446.994> 397 13<207.002 219.998> 411 13<223.002 235.932> 416 12<186.027 212.451 411.19 488.666> 434 11<223.192 235.808 477.001 487.999> 447 11<432.856 473.899 482.001 492.999> 455 12<175.242 221.995> 460 10<475.001 485.999> 533 17<107.154 142 167.422 327.843 404 430> 550 21G<466 470.5> 590 10<484.995 521.681>
VStem: 66 24<444.084 515> 120 40<449.593 531.587> 134 12<286.901 328.166> 182 31<330.986 366> 207 13<397.002 409.998> 223 13<411.002 423.96 431.002 443.998> 229 14<289.181 342.356> 477 11<434.001 444.999 460.206 469.794> 480 64<47.2188 223.441> 480 56<25.6299 61.8433> 482 11<447.001 457.999> 511 14<382.419 400.695> 530 12<543.398 582.674> 588 40<46.1571 76.6825>
DStem2: 235 12 311 12 0.174106 0.984727<13.232 370.65 389.883 432.634 448.738 534.158>
AnchorPoint: "Yerok" 404 576 basechar 0
AnchorPoint: "Diacritic" 341 575 basechar 0
LayerCount: 2
Fore
SplineSet
475 465 m 0xce7902
 475 468 477 470 480 470 c 0
 483 470 486 468 486 465 c 0
 486 462 483 460 480 460 c 0
 477 460 475 462 475 465 c 0xce7902
482 453 m 0xcf3901
 482 456 485 458 488 458 c 0xcf3908
 491 458 493 456 493 453 c 0xcf3901
 493 450 491 447 488 447 c 0xcf3908
 485 447 482 450 482 453 c 0xcf3901
477 440 m 0
 477 443 479 445 482 445 c 0xce3901
 485 445 488 443 488 440 c 0xce3908
 488 437 485 434 482 434 c 0xce3901
 479 434 477 437 477 440 c 0
223 418 m 0xce3980
 223 422 226 424 230 424 c 0
 234 424 237 421 236 418 c 0
 236 414 234 411 230 411 c 0
 226 411 223 414 223 418 c 0xce3980
207 404 m 0
 207 408 210 410 214 410 c 0
 217 410 220 407 220 404 c 0
 220 400 218 397 214 397 c 0
 210 397 207 400 207 404 c 0
236 438 m 0
 236 434 234 431 230 431 c 0
 225 431 223 434 223 438 c 0
 223 442 226 444 230 444 c 0
 233 444 236 442 236 438 c 0
480 78 m 0xce3904
 480 102 483 124 483 140 c 0
 483 163 479 187 461 239 c 0
 441 299 389 336 373 364 c 1
 311 12 l 1
 520 12 l 1
 497 25 480 47 480 78 c 0xce3904
101 423 m 0
 87 423 66 458 66 486 c 0
 66 502 70 515 70 515 c 1
 0 550 l 1
 430 550 l 1
 430 538 l 1
 404 538 l 1
 386 441 l 1
 413 449 463 489 471 518 c 0
 474 527 474 533 474 533 c 1xcf3d50
 474 533 484 530 482 512 c 1
 479 506 475 494 475 494 c 1
 483 499 530 531 530 564 c 0
 530 580 520 590 504 590 c 0
 492 590 483 585 476 575 c 0
 464 557 474 549 469 550 c 1
 465 552 463 556 463 561 c 0
 463 583 480 600 503 600 c 0
 523 600 542 590 542 568 c 0
 542 560 540 553 538 546 c 0
 527 506 431 452 431 452 c 1
 431 452 451 458 463 458 c 0xcf392140
 469 458 474 456 474 453 c 0xcf3910
 474 446 437 451 411 439 c 0
 408 437 396 431 384 425 c 1
 381 411 l 1
 398 422 436 428 461 428 c 0
 493 428 525 414 525 385 c 0
 525 365 509 353 493 353 c 0xef390180
 485 353 480 356 480 364 c 0xef3902
 480 380 491 385 498 385 c 0
 505 385 511 382 511 382 c 1
 511 383 511 384 511 385 c 0xef390080
 511 407 480 416 455 416 c 0
 439 416 395 409 379 399 c 1
 376 383 l 1
 384 390 408 400 427 400 c 0
 439 400 447 397 447 395 c 0
 447 388 424 391 408 387 c 0
 395 384 385 378 380 374 c 1
 383 370 385 369 390 363 c 1
 390 363 405 371 414 373 c 0
 420 374 426 375 431 375 c 0
 440 375 445 373 445 370 c 0
 445 367 443 366 442 366 c 0
 439 366 436 368 431 368 c 0
 427 368 422 367 415 364 c 0
 414 364 399 357 397 355 c 1
 439 309 511 265 536 194 c 0xde3902
 546 166 549 146 549 132 c 0
 549 114 544 103 544 91 c 0xde3904
 544 64 567 46 567 46 c 1
 567 46 557 44 549 50 c 0
 543 55 537 62 537 62 c 1
 537 62 536 57 536 50 c 0
 536 40 538 26 547 20 c 0
 553 16 560 14 568 14 c 0
 584 14 601 23 604 42 c 1
 604 42 586 38 588 62 c 0
 589 70 601 77 612 77 c 0
 620 77 628 72 628 60 c 0
 628 30 602 0 569 0 c 2
 207 0 l 1
 207 12 l 1
 235 12 l 1
 328 538 l 1
 328 538 323 539 315 539 c 0
 297 539 265 535 235 515 c 0
 214 501 212 489 206 489 c 0
 197 489 198 500 210 513 c 0
 222 526 242 533 242 533 c 1
 179 533 l 1
 167 527 160 515 160 501 c 0
 160 479 179 467 197 467 c 0
 223 467 236 484 243 484 c 0
 246 484 248 482 248 479 c 0
 248 470 221 455 202 455 c 0xdebd42
 181 455 158 466 155 472 c 1
 155 469 156 467 156 464 c 0
 161 428 213 433 213 424 c 0
 213 421 209 419 203 419 c 0
 197 419 189 421 176 426 c 0
 159 433 148 447 148 447 c 1
 148 447 148 434 168 419 c 0
 199 396 213 379 220 370 c 0
 235 350 243 335 243 308 c 0
 243 281 220 257 189 257 c 0
 160 257 134 273 134 303 c 0
 134 318 140 334 154 334 c 0
 156 334 l 1
 156 332 146 326 146 308 c 0xcf3b40
 146 283 166 271 187 271 c 0
 210 271 229 288 229 315 c 0
 229 343 207 366 207 366 c 1
 207 366 209 356 204 343 c 0
 195 321 182 320 178 320 c 0
 177 320 l 1
 177 320 183 326 182 338 c 0
 182 339 l 0
 182 376 120 428 120 480 c 0xcf3d40
 120 502 128 524 142 533 c 1
 128 533 l 2
 100 533 90 496 90 471 c 0
 90 445 106 433 106 427 c 0
 106 425 104 423 101 423 c 0
EndSplineSet
Validated: 1
Substitution2: "'ss01' Style Set Simple Forms-1" uni042A.simple
Colour: ff00
EndChar

StartChar: uni042B
Encoding: 1067 1067 58
Width: 550
Flags: W
HStem: 0 12<0 26 102 290 320.068 355.61 407 433 509 535> 42 35<350.159 370> 331 32<209.004 237> 344 9<138.875 172.996> 368 10<128.188 170.75> 394 12<131.968 210.013> 413 11<191.001 201.999> 426 11<150.769 187.953 196.001 206.999> 439 10<189.001 199.999> 538 12<0 26 102 128 407 433 509 535> 568 7<177.86 207.332>
VStem: 26 76<12 338 361 386.029 389 414.77 419 538> 157 9.5<531.26 558.281> 173 12<478.277 508.938> 191 11<413.001 423.999 439.206 448.794> 225 10<515.882 553.428> 237 14<360 376.375> 370 21<21.7357 42> 433 76<12 538>
DStem2: 295 124.5 222 170 0.274721 -0.961524<-128.425 85.3477>
AnchorPoint: "Yerok" 477.5 575.469 basechar 0
AnchorPoint: "Diacritic" 302 575 basechar 0
LayerCount: 2
Fore
SplineSet
189 444 m 0xcfffc0
 189 447 191 449 194 449 c 0
 197 449 200 447 200 444 c 0
 200 441 197 439 194 439 c 0
 191 439 189 441 189 444 c 0xcfffc0
196 432 m 0
 196 435 199 437 202 437 c 0
 205 437 207 435 207 432 c 0
 207 429 205 426 202 426 c 0
 199 426 196 429 196 432 c 0
191 419 m 0
 191 422 193 424 196 424 c 0
 199 424 202 422 202 419 c 0
 202 416 199 413 196 413 c 0
 193 413 191 416 191 419 c 0
290 12 m 1
 263 26 241 51 237 86 c 0
 230 143 231 164 192 231 c 0
 153 298 102 338 102 338 c 1
 102 12 l 1
 290 12 l 1
371 77 m 0
 383 77 391 68 391 51 c 0
 391 24 371 0 342 0 c 2
 0 0 l 1
 0 12 l 1
 26 12 l 1
 26 538 l 1
 0 538 l 1
 0 550 l 1
 128 550 l 1
 128 538 l 1
 102 538 l 1
 102 419 l 1
 127 427 169 467 173 496 c 0
 174 505 173 511 173 511 c 1
 173 511 185 509 185 490 c 0
 185 478 181 472 181 472 c 1
 181 472 225 506 225 536 c 0
 225 555 210 568 193 568 c 0
 181 568 173 563 168 553 c 0
 159 535 171 527 165 529 c 0
 159 532 157 537 157 544 c 0
 157 564 170 575 191 575 c 0
 204 575 217 574 226 565 c 0
 233 557 236 546 236 535 c 0
 236 532 235 528 235 524 c 0
 235 484 145 430 145 430 c 1
 145 430 164 436 177 436 c 0
 182 436 188 434 188 431 c 0
 188 424 150 429 127 417 c 0
 124 415 113 408 102 402 c 1
 102 389 l 1
 118 400 154 406 179 406 c 0
 214 406 251 389 251 356 c 0
 251 340 239 331 224 331 c 0
 216 331 209 335 209 345 c 0
 209 360 217 363 224 363 c 0xefffc0
 231 363 237 360 237 360 c 1
 237 384 201 394 175 394 c 0
 159 394 116 387 102 377 c 1
 102 361 l 1
 109 368 131 378 149 378 c 0
 162 378 171 375 171 372 c 0
 171 366 148 369 133 365 c 0
 121 362 112 356 107 352 c 1
 111 348 113 347 119 341 c 1
 119 341 133 349 142 351 c 0
 148 352 154 353 159 353 c 0
 167 353 173 351 173 348 c 0
 173 345 172 344 171 344 c 0
 168 344 165 346 160 346 c 0xdfffc0
 156 346 150 345 144 342 c 0
 143 342 129 335 128 333 c 1
 170 307 221 284 275 186 c 0
 299 142 294 109 303 84 c 0
 312 58 332 46 332 46 c 1
 332 46 322 44 313 50 c 0
 306 55 299 62 299 62 c 1
 299 62 300 29 316 20 c 0
 323 16 331 14 339 14 c 0
 355 14 370 23 370 42 c 1
 370 42 369 42 367 42 c 0
 363 42 350 44 350 63 c 0
 350 70 360 77 371 77 c 0
509 12 m 1
 535 12 l 1
 535 0 l 1
 407 0 l 1
 407 12 l 1
 433 12 l 1
 433 538 l 1
 407 538 l 1
 407 550 l 1
 535 550 l 1
 535 538 l 1
 509 538 l 1
 509 12 l 1
EndSplineSet
Validated: 1
Substitution2: "'ss01' Style Set Simple Forms-1" uni042B.simple
Colour: ff00
EndChar

StartChar: uni0426.simple
Encoding: 62758 62758 59
Width: 425
GlyphClass: 2
Flags: W
HStem: -105 5<333 335.037> 0 12<0 26 102 251 327 340> 538 12<0 26 102 128 225 251 327 353>
VStem: 26 76<12 538> 251 76<12 538>
AnchorPoint: "Yerok" 287 575.6 basechar 0
AnchorPoint: "Diacritic" 177 575 basechar 0
LayerCount: 2
Fore
SplineSet
335 -104 m 0xf4
 334 -104 332 -103 332 -102 c 0xf8
 332 -99 342 -93 342 -58 c 0
 342 -23 329 0 281 0 c 2
 0 0 l 1
 0 12 l 1
 26 12 l 1
 26 538 l 1
 0 538 l 1
 0 550 l 1
 128 550 l 1
 128 538 l 1
 102 538 l 1
 102 12 l 1
 251 12 l 1
 251 538 l 1
 225 538 l 1
 225 550 l 1
 353 550 l 1
 353 538 l 1
 327 538 l 1
 327 12 l 1
 410 12 l 1
 359 -23 l 1
 359 -23 365 -28 365 -45 c 0
 365 -51 364 -59 362 -69 c 0
 357 -92 341 -104 335 -104 c 0xf4
EndSplineSet
Validated: 1
Colour: ff00
EndChar

StartChar: uni042A.simple
Encoding: 62762 62762 60
Width: 630
GlyphClass: 2
Flags: W
HStem: 0 12<207 235 311 520 550.445 585.396> 257 13<162.913 209.648> 398.5 10.5<207.011 216.844> 411.5 10.5<223.011 232.844> 431.5 10.5<223.011 232.844> 455 12<175.242 221.995> 533 17<107.154 142 167.422 327.843 404 430>
VStem: 66 24<444.084 515> 120 40<449.593 531.587> 134 12<286.945 328.18> 182 31<330.986 366> 207 11<399.095 410.089> 223 11<412.095 423.089 432.095 443.089> 229 14<289.04 342.356> 480 64<47.4365 223.441> 480 56<25.6299 61.8433> 588 40<46.1571 76.6825>
DStem2: 235 12 311 12 0.174106 0.984727<13.232 370.65 389.246 534.158>
AnchorPoint: "Yerok" 370 577 basechar 0
AnchorPoint: "Diacritic" 370 576 basechar 0
LayerCount: 2
Fore
SplineSet
480 78 m 0xff24
 480 102 483 124 483 140 c 0
 483 163 479 187 461 239 c 0
 441 299 389 336 373 364 c 1
 311 12 l 1
 520 12 l 1
 497 25 480 47 480 78 c 0xff24
234 422 m 1xff30
 239 414 229 407 225 413 c 1
 222 414 222 419 225 422 c 0
 227 423 231 423 234 422 c 1xff30
218 409 m 1
 223 401 213 394 209 400 c 1
 206 401 206 406 209 409 c 0
 211 410 215 410 218 409 c 1
234 442 m 1
 239 434 229 427 225 433 c 1
 222 434 222 439 225 442 c 0
 227 443 231 443 234 442 c 1
101 423 m 0
 87 423 66 458 66 486 c 0
 66 502 70 515 70 515 c 1
 0 550 l 1
 430 550 l 1
 430 538 l 1
 404 538 l 1
 378 382 l 1
 381 378 504 290 536 194 c 0xffaa
 546 165 548 146 548 131 c 0
 548 114 544 103 544 91 c 0xff24
 544 64 567 46 567 46 c 1
 567 46 557 44 549 50 c 0
 543 55 537 62 537 62 c 1
 537 62 536 57 536 50 c 0
 536 40 538 26 547 20 c 0
 553 16 560 14 568 14 c 0
 584 14 601 23 604 42 c 1
 604 42 586 38 588 62 c 0
 589 70 601 77 612 77 c 0
 620 77 628 72 628 60 c 0
 628 30 602 0 569 0 c 2
 207 0 l 1
 207 12 l 1
 235 12 l 1
 328 538 l 1
 328 538 323 539 315 539 c 0
 297 539 265 535 235 515 c 0
 214 501 212 489 206 489 c 0
 197 489 198 500 210 513 c 0
 222 526 242 533 242 533 c 1
 179 533 l 1
 167 527 160 515 160 501 c 0xffa2
 160 479 179 467 197 467 c 0
 223 467 236 484 243 484 c 0
 246 484 248 482 248 479 c 0
 248 470 221 455 202 455 c 0
 181 455 158 466 155 472 c 1
 155 469 156 467 156 464 c 0
 161 428 213 433 213 424 c 0
 213 421 209 419 203 419 c 0
 197 419 189 421 176 426 c 0
 159 433 148 447 148 447 c 1
 148 447 148 434 168 419 c 0
 199 396 213 379 220 370 c 0
 235 350 243 335 243 308 c 0
 243 281 220 257 189 257 c 0
 160 257 134 273 134 303 c 0
 134 318 140 334 154 334 c 0
 156 334 l 0
 156 332 146 326 146 308 c 0xff68
 146 286 163 270 187 270 c 0
 210 270 229 288 229 315 c 0
 229 343 207 366 207 366 c 1
 207 366 209 356 204 343 c 0
 195 321 182 320 178 320 c 0
 177 320 l 1
 177 320 183 326 182 338 c 1
 182 339 l 0
 182 376 120 428 120 480 c 0xffa8
 120 502 128 524 142 533 c 1
 128 533 l 2
 100 533 90 496 90 471 c 0
 90 445 106 433 106 427 c 0
 106 425 104 423 101 423 c 0
EndSplineSet
Validated: 1
Colour: ff00
EndChar

StartChar: uni042B.simple
Encoding: 62763 62763 61
Width: 550
GlyphClass: 2
Flags: W
HStem: 0 12<0 26 102 290 323.73 356.69 407 433 509 535> 42 32.5<350.332 369.968> 538 12<0 26 102 128 407 433 509 535>
VStem: 26 76<12 368 376.674 538> 370 22<20.1393 42.439> 433 76<12 538>
AnchorPoint: "Yerok" 472.5 575 basechar 0
AnchorPoint: "Diacritic" 271 575 basechar 0
LayerCount: 2
Fore
SplineSet
290 12 m 1
 263 26 241 51 237 86 c 0
 230 143 231 170 196 239 c 0
 159 312 102 368 102 368 c 1
 102 12 l 1
 290 12 l 1
371 77 m 0
 383 77 391 68 391 51 c 0
 391 24 371 0 342 0 c 2
 0 0 l 1
 0 12 l 1
 26 12 l 1
 26 538 l 1
 0 538 l 1
 0 550 l 1
 128 550 l 1
 128 538 l 1
 102 538 l 1
 102 391 l 1
 180 337 245 282 281 200 c 0
 301 154 294 109 303 84 c 0
 312 58 332 46 332 46 c 1
 332 46 322 44 313 50 c 0
 306 55 299 62 299 62 c 1
 299 62 300 29 316 20 c 0
 323 16 331 14 339 14 c 0
 355 14 370 23 370 42 c 1
 370 42 369 42 367 42 c 0
 363 42 350 44 350 63 c 0
 350 70 360 77 371 77 c 0
509 12 m 1
 535 12 l 1
 535 0 l 1
 407 0 l 1
 407 12 l 1
 433 12 l 1
 433 538 l 1
 407 538 l 1
 407 550 l 1
 535 550 l 1
 535 538 l 1
 509 538 l 1
 509 12 l 1
EndSplineSet
Validated: 1
Colour: ff00
EndChar

StartChar: uni0462
Encoding: 1122 1122 62
Width: 645
Flags: W
HStem: 0 12<240 266 342 530 560.068 595.61> 42 35<590.159 610> 257 14<161.856 210.69> 397 13<207.002 219.998> 411 13<223.002 235.998> 419 11<180.9 212.886> 431 13<223.002 235.998> 455 12<175.242 221.995> 533 17<107.154 142 167.422 266 342 470.846> 638 12<240 266 342 368>
VStem: 66 24<444.084 515> 120 40<449.593 531.587> 134 12<286.901 328.166> 182 31<330.986 366> 207 13<397.002 409.998> 223 13<411.002 423.998 431.002 443.998> 229 14<289.703 343.019> 266 76<12 368 376.674 533 550 638> 488 24<444.044 516.062> 610 21<21.7357 42>
AnchorPoint: "Yerok" 487.5 598 basechar 0
AnchorPoint: "Diacritic" 307 693 basechar 0
LayerCount: 2
Fore
SplineSet
223 418 m 0xf866e0
 223 421 226 424 230 424 c 0
 233 424 236 421 236 418 c 0
 236 414 233 411 230 411 c 0
 226 411 223 414 223 418 c 0xf866e0
207 404 m 0
 207 407 210 410 214 410 c 0
 217 410 220 407 220 404 c 0
 220 400 217 397 214 397 c 0
 210 397 207 400 207 404 c 0
236 438 m 0
 236 434 233 431 230 431 c 0
 226 431 223 434 223 438 c 0
 223 441 226 444 230 444 c 0xf266e0
 233 444 236 441 236 438 c 0
530 12 m 1
 503 26 481 51 477 86 c 0
 470 143 471 170 436 239 c 0
 399 312 342 368 342 368 c 1
 342 12 l 1
 530 12 l 1
611 77 m 0
 623 77 631 68 631 51 c 0
 631 24 611 0 582 0 c 2
 240 0 l 1
 240 12 l 1
 266 12 l 1
 266 533 l 1
 244 532 233 522 225 515 c 0
 206 499 203 489 197 489 c 0
 192 489 190 491 190 495 c 0
 190 499 193 505 200 513 c 0
 212 526 232 533 232 533 c 1
 179 533 l 1
 167 527 160 515 160 501 c 0xf0f5e0
 160 479 179 467 197 467 c 0
 223 467 236 484 243 484 c 0
 246 484 248 482 248 479 c 0
 248 470 221 455 202 455 c 0
 181 455 158 466 155 472 c 1
 155 469 156 467 156 464 c 0
 161 428 213 433 213 424 c 0
 213 421 209 419 203 419 c 0
 197 419 189 421 176 426 c 0
 159 433 148 447 148 447 c 1
 148 447 148 434 168 419 c 0
 199 396 213 379 220 370 c 0
 235 350 243 335 243 308 c 0
 243 281 220 257 189 257 c 0
 160 257 134 273 134 303 c 0
 134 318 140 334 154 334 c 0
 156 334 l 0
 156 332 146 326 146 308 c 0xf9ede0
 146 283 166 271 187 271 c 0
 210 271 229 288 229 315 c 0
 229 343 207 366 207 366 c 1
 207 366 209 356 204 343 c 0
 195 321 182 320 178 320 c 0
 177 320 l 1
 177 320 183 326 182 338 c 1
 182 339 l 0
 182 376 120 428 120 480 c 0
 120 502 128 524 142 533 c 1
 128 533 l 2xf9f5e0
 100 533 90 496 90 471 c 0
 90 445 106 433 106 427 c 0
 106 425 104 423 101 423 c 0xf475e0
 87 423 66 458 66 486 c 0
 66 502 70 515 70 515 c 1
 0 550 l 1
 266 550 l 1
 266 638 l 1
 240 638 l 1
 240 650 l 1
 368 650 l 1
 368 638 l 1
 342 638 l 1
 342 550 l 1
 578 550 l 1xf0f5e0
 508 515 l 1
 508 515 512 502 512 486 c 0
 512 458 491 423 477 423 c 0xf475e0
 474 423 472 425 472 427 c 0
 472 433 488 445 488 471 c 0
 488 496 478 533 450 533 c 2
 342 533 l 1xf0f5e0
 342 391 l 1
 420 337 485 282 521 200 c 0
 541 154 534 109 543 84 c 0
 552 58 572 46 572 46 c 1
 572 46 562 44 553 50 c 0
 546 55 539 62 539 62 c 1
 539 62 540 29 556 20 c 0
 563 16 571 14 579 14 c 0
 595 14 610 23 610 42 c 1
 610 42 609 42 607 42 c 0
 603 42 590 44 590 63 c 0
 590 70 600 77 611 77 c 0
EndSplineSet
Validated: 1
Substitution2: "'ss01' Style Set Simple Forms-1" uni0462.simple
Colour: ff00
EndChar

StartChar: uni0462.simple
Encoding: 62818 62818 63
Width: 645
GlyphClass: 2
Flags: W
HStem: 0 12<240 266 342 530 560.068 595.61> 42 35<590.159 610> 257 13<162.913 209.648> 397 13<207.002 219.998> 411 13<223.002 235.998> 419 11<180.9 212.886> 431 13<223.002 235.998> 455 12<175.242 221.995> 489 44<198.539 220.444> 533 17<107.154 142 167.422 266 342 470.846> 638 12<240 266 342 368>
VStem: 66 24<444.084 515> 120 40<449.593 531.587> 134 12<286.945 328.18> 182 31<330.986 366> 207 13<397.002 409.998> 223 13<411.002 423.998 431.002 443.998> 229 14<289.04 342.356> 266 76<12 368 376.674 533 550 638> 488 24<444.044 516.062> 610 21<21.7357 42>
AnchorPoint: "Yerok" 487.5 600 basechar 0
AnchorPoint: "Diacritic" 306 685 basechar 0
LayerCount: 2
Fore
SplineSet
611 77 m 0xf0f5e0
 623 77 631 68 631 51 c 0
 631 24 611 0 582 0 c 2
 240 0 l 1
 240 12 l 1
 266 12 l 1
 266 533 l 1
 244 532 233 522 225 515 c 0
 206 499 203 489 197 489 c 0
 187 489 187 499 200 513 c 0
 212 526 232 533 232 533 c 1
 179 533 l 1
 167 527 160 515 160 501 c 0xf0f5e0
 160 479 179 467 197 467 c 0
 223 467 236 484 243 484 c 0
 246 484 248 482 248 479 c 0
 248 470 221 455 202 455 c 0
 181 455 158 466 155 472 c 1
 155 469 156 467 156 464 c 0
 161 428 213 433 213 424 c 0
 213 421 209 419 203 419 c 0
 197 419 189 421 176 426 c 0
 159 433 148 447 148 447 c 1
 148 447 148 434 168 419 c 0
 199 396 213 379 220 370 c 0
 235 350 243 335 243 308 c 0
 243 281 220 257 189 257 c 0
 160 257 134 273 134 303 c 0
 134 318 140 334 154 334 c 0
 156 334 l 0
 156 332 146 326 146 308 c 0xf9ede0
 146 286 163 270 187 270 c 0
 210 270 229 288 229 315 c 0
 229 343 207 366 207 366 c 1
 207 366 209 356 204 343 c 0
 195 321 182 320 178 320 c 0
 177 320 l 1
 177 320 183 326 182 338 c 1
 182 339 l 0
 182 376 120 428 120 480 c 0
 120 502 128 524 142 533 c 1
 128 533 l 2xf9f5e0
 100 533 90 496 90 471 c 0
 90 445 106 433 106 427 c 0
 106 425 104 423 101 423 c 0xf475e0
 87 423 66 458 66 486 c 0
 66 502 70 515 70 515 c 1
 0 550 l 1
 266 550 l 1
 266 638 l 1
 240 638 l 1
 240 650 l 1
 368 650 l 1
 368 638 l 1
 342 638 l 1
 342 550 l 1
 578 550 l 1xf0f5e0
 508 515 l 1
 508 515 512 502 512 486 c 0
 512 458 491 423 477 423 c 0xf475e0
 474 423 472 425 472 427 c 0
 472 433 488 445 488 471 c 0
 488 496 478 533 450 533 c 2
 342 533 l 1
 342 391 l 1
 420 337 485 282 521 200 c 0
 541 154 534 109 543 84 c 0
 552 58 572 46 572 46 c 1
 572 46 562 44 553 50 c 0
 546 55 539 62 539 62 c 1
 539 62 540 29 556 20 c 0
 563 16 571 14 579 14 c 0
 595 14 610 23 610 42 c 1
 610 42 609 42 607 42 c 0
 603 42 590 44 590 63 c 0
 590 70 600 77 611 77 c 0xf0f5e0
530 12 m 1
 503 26 481 51 477 86 c 0
 470 143 471 170 436 239 c 0
 399 312 342 368 342 368 c 1
 342 12 l 1
 530 12 l 1
236 438 m 0xf266e0
 236 434 233 431 230 431 c 0
 226 431 223 434 223 438 c 0
 223 441 226 444 230 444 c 0
 233 444 236 441 236 438 c 0xf266e0
207 404 m 0
 207 407 210 410 214 410 c 0
 217 410 220 407 220 404 c 0
 220 400 217 397 214 397 c 0
 210 397 207 400 207 404 c 0
223 418 m 0
 223 421 226 424 230 424 c 0
 233 424 236 421 236 418 c 0
 236 414 233 411 230 411 c 0xf866e0
 226 411 223 414 223 418 c 0
EndSplineSet
Validated: 1
Colour: ff00
EndChar

StartChar: uni046E
Encoding: 1134 1134 64
Width: 480
Flags: W
HStem: -90 18<17.4178 38> -4 9<267.771 311.43> 48 9<279.236 309.521> 57 27<98.8759 181> 121 10<250.001 260.999> 133 11<243.001 253.999> 138 7<262.003 291.198> 146 11<248.001 258.999> 162 12<237.473 290.989> 191 26<231 252.997> 235 66<200.798 255.023> 322 26<231.156 252.997> 365 12<238.616 291.082> 382 11<248.001 258.999> 394 7<262.003 290.608> 395 11<243.001 253.999> 408 10<250.001 260.999> 427 12<52 78 154 180> 482 9<280.356 309.832> 529 21<204.107 237 255 275.839 292 315.977> 585 38<141 161.794 368.206 389> 633 13<143.863 188.482 340.886 386.249>
VStem: -6 14<-59.88 -12.5> 36 43<-71.812 -42.0046> 78 76<439 500.523> 121 41<585.236 622.965> 191 65<272 291.202> 219 12<180.081 194 345 358.982> 243 11<133.001 143.999 395.001 405.999 550 572> 248 11<121.206 130.794 146.001 156.999 382.001 392.999 408.206 417.794> 261 8<68.9656 102.497 437.659 469.955> 274 18<550 581.946> 287 8<93.0977 119.161 419.839 445.602> 317 13<70.7859 82.8438 160.754 213.122 352 377.955> 368 41<585.236 622.935> 384 62<328.866 477.609> 391 73<54.9093 199.338>
DStem2: 36 -3 40 -21 0.20601 0.97855<-16.5703 19.1503>
AnchorPoint: "Yerok" 269.5 674.4 basechar 0
AnchorPoint: "Diacritic" 269 675 basechar 0
LayerCount: 2
Fore
SplineSet
261 413 m 0xc8f8fe1080
 261 410 259 408 256 408 c 0
 253 408 250 410 250 413 c 0
 250 416 253 418 256 418 c 0
 259 418 261 416 261 413 c 0xc8f8fe1080
254 402 m 0xc8f9fe0280
 254 399 251 395 248 395 c 0xc8f9fe0180
 245 395 243 399 243 402 c 0xc8f9fe0280
 243 405 245 406 248 406 c 0xc8f9fe0180
 251 406 254 405 254 402 c 0xc8f9fe0280
259 388 m 0
 259 385 257 382 254 382 c 0xc8fcfe0280
 251 382 248 385 248 388 c 0xc8fcfe0180
 248 391 251 393 254 393 c 0xc8fcfe0280
 257 393 259 391 259 388 c 0
296 491 m 0
 313 491 324 478 324 462 c 0xc8f9fe0090
 324 457 322 452 317 451 c 0xc8f9fe0088
 312 450 322 456 315 470 c 0xc8f9fe0090
 311 479 304 482 295 482 c 0
 280 482 269 471 269 456 c 0
 269 433 289 415 289 415 c 1
 289 415 287 420 287 430 c 0
 287 446 295 446 295 446 c 1
 295 434 l 1
 295 411 319 402 326 377 c 0
 328 369 330 363 330 356 c 0
 330 347 323 327 322 324 c 1
 320 338 299 365 265 365 c 0
 248 365 231 359 231 345 c 1
 231 345 236 348 242 348 c 0
 248 348 253 345 253 333 c 0
 253 325 247 322 241 322 c 0
 229 322 219 329 219 342 c 0
 219 366 243 377 266 377 c 0
 285 377 305 367 316 352 c 1
 316 355 317 357 317 360 c 0
 317 370 313 379 301 386 c 0
 281 399 262 390 262 397 c 0
 262 400 266 401 271 401 c 0xc8fafe08a8
 284 401 305 395 305 395 c 2xc8f9fe08a8
 304 396 261 419 261 455 c 0
 261 476 275 491 296 491 c 0
261 126 m 0
 261 123 259 121 256 121 c 0
 253 121 250 123 250 126 c 0
 250 129 253 131 256 131 c 0xc8f8fe1080
 259 131 261 129 261 126 c 0
254 138 m 0xcaf8fe0280
 254 135 251 133 248 133 c 0xccf8fe0180
 245 133 243 135 243 138 c 0xcaf8fe0280
 243 141 245 144 248 144 c 0xccf8fe0180
 251 144 254 141 254 138 c 0xcaf8fe0280
259 151 m 0
 259 148 257 146 254 146 c 0xc9f8fe0280
 251 146 248 148 248 151 c 0xc9f8fe0180
 248 154 251 157 254 157 c 0xc9f8fe0280
 257 157 259 154 259 151 c 0
322 215 m 1
 324 212 330 192 330 183 c 0xcaf8fe0888
 330 176 328 170 326 162 c 0
 319 137 295 128 295 105 c 1
 295 93 l 1
 295 93 287 93 287 109 c 0
 287 119 289 124 289 124 c 1
 289 124 269 106 269 83 c 0
 269 68 280 57 295 57 c 0
 304 57 311 60 315 69 c 0xeaf8fe00b0
 322 83 312 89 317 88 c 0xeaf8fe0088
 322 87 324 82 324 77 c 0
 324 61 313 48 296 48 c 0xeaf8fe0090
 275 48 261 63 261 84 c 0
 261 120 304 143 305 144 c 2xdcf8fe0090
 305 144 284 138 271 138 c 0
 266 138 262 139 262 142 c 0
 262 149 281 140 301 153 c 0
 313 160 317 169 317 179 c 0
 317 182 316 184 316 187 c 1
 305 172 285 162 266 162 c 0
 243 162 219 173 219 197 c 0
 219 210 229 217 241 217 c 0
 247 217 253 214 253 206 c 0
 253 194 248 191 242 191 c 0
 236 191 231 194 231 194 c 1xcaf8fe0888
 231 180 248 174 265 174 c 0
 299 174 320 201 322 215 c 1
121 611 m 0xd8f8fe2480
 121 634 146 646 162 646 c 0
 175 646 189 641 202 635 c 0
 236 619 255 576 255 550 c 1
 274 550 l 1
 277 576 294 619 328 635 c 0
 341 641 355 646 368 646 c 0
 383 646 397 639 406 622 c 0
 408 618 409 614 409 611 c 0
 409 597 396 585 385 585 c 0
 375 585 368 597 368 607 c 0xd8f8fe24c4
 368 622 389 623 389 623 c 1
 385 630 377 633 369 633 c 0
 351 633 327 619 315 605 c 0
 299 586 294 568 292 549 c 1
 367 549 446 523 446 427 c 0xd8f8fe00d2
 446 335 414 303 358 277 c 0
 352 274 346 272 340 270 c 1
 409 254 464 196 464 124 c 0
 464 23 358 -4 277 -4 c 0
 239 -4 207 2 194 9 c 0
 153 32 147 57 124 57 c 0
 113 57 99 52 76 39 c 0
 50 25 40 -21 40 -21 c 1
 40 -21 36 -13 36 -3 c 0
 36 4 40 16 40 16 c 1xd8f8fe8081
 40 16 23 2 14 -14 c 0
 10 -20 8 -28 8 -36 c 0
 8 -54 18 -72 38 -72 c 1
 38 -72 36 -67 36 -61 c 0
 36 -52 40 -42 58 -42 c 0
 71 -42 79 -48 79 -61 c 0
 79 -74 66 -90 43 -90 c 0
 17 -90 -6 -69 -6 -40 c 0
 -6 9 38 40 70 57 c 0
 100 73 128 84 155 84 c 0
 188 84 220 67 256 19 c 0
 264 9 276 5 289 5 c 0
 301 5 314 9 325 13 c 0
 370 31 391 75 391 121 c 0xd8f8ff1081
 391 174 362 230 308 252 c 0
 286 261 268 264 257 264 c 1
 255 248 241 235 224 235 c 0
 205 235 191 250 191 268 c 0
 191 287 206 301 224 301 c 0
 240 301 256 289 256 272 c 1
 280 278 326 280 359 322 c 0
 376 343 384 373 384 402 c 0
 384 465 345 529 265 529 c 0
 193 529 154 499 154 439 c 1
 180 439 l 1
 180 427 l 1
 52 427 l 1
 52 439 l 1
 78 439 l 1xd8f8fe5082
 78 479 97 549 237 549 c 1
 237 568 231 586 215 605 c 0
 203 619 179 633 161 633 c 0
 153 633 145 630 141 623 c 1
 141 623 162 622 162 607 c 0
 162 597 155 585 145 585 c 0
 134 585 121 597 121 611 c 0xd8f8fe2480
EndSplineSet
Validated: 1
Substitution2: "'ss01' Style Set Simple Forms-1" uni046E.simple
Colour: ff00
EndChar

StartChar: uni046E.simple
Encoding: 62830 62830 65
Width: 480
GlyphClass: 2
Flags: W
HStem: -91 19<17.7197 38> -3 7<269.663 310.8> 57 27<98.9702 149.462> 235 66<201.313 245.718> 264 8<256.204 275.833> 427 12<52 78 154 180> 529 21<204.121 237 253.551 275.839 292 315.123> 589 33<372.282 389> 633 13<144.548 189.485 341.887 385.514>
VStem: -6 14<-59.0471 -11.8639> 36 42<-71.76 -42.0396> 78 76<439 500.172> 191 65<272 291.718> 237 18<550 582.807> 274 18<550 581.355> 384 62<329.995 478.307> 392 72<56.4902 197.862>
DStem2: 36 -3 40 -21 0.20601 0.97855<-16.5703 19.1503>
AnchorPoint: "Yerok" 257.5 668.4 basechar 0
AnchorPoint: "Diacritic" 257 668 basechar 0
LayerCount: 2
Fore
SplineSet
121 611 m 0xff8b
 121 634 146 646 162 646 c 0
 175 646 189 641 202 635 c 0
 236 619 255 576 255 550 c 1
 274 550 l 1
 277 576 294 619 328 635 c 0
 341 641 355 646 368 646 c 0
 383 646 397 639 406 622 c 0
 408 618 409 614 409 611 c 0
 409 597 396 585 385 585 c 0
 375 585 368 597 368 607 c 0xff8b80
 368 622 389 623 389 623 c 1
 385 630 377 633 369 633 c 0
 351 633 327 619 315 605 c 0
 299 586 294 568 292 549 c 1
 367 549 446 523 446 427 c 0xff8140
 446 335 414 303 358 277 c 0
 352 274 346 272 340 270 c 1
 409 254 464 196 464 124 c 0
 464 23 358 -4 277 -4 c 0
 239 -4 207 2 194 9 c 0
 153 32 147 57 124 57 c 0
 113 57 99 52 76 39 c 0
 50 25 40 -21 40 -21 c 1
 40 -21 36 -13 36 -3 c 0
 36 4 40 16 40 16 c 1xffa120
 40 16 23 2 14 -14 c 0
 10 -20 8 -28 8 -36 c 0
 8 -54 18 -72 38 -72 c 1
 38 -72 36 -67 36 -61 c 0
 36 -52 40 -42 58 -42 c 0
 71 -42 79 -48 79 -61 c 0
 79 -74 66 -90 43 -90 c 0
 17 -90 -6 -69 -6 -40 c 0
 -6 9 38 40 70 57 c 0
 100 73 128 84 155 84 c 0
 188 84 220 67 256 19 c 0
 264 9 276 5 289 5 c 0
 301 5 314 9 325 13 c 0
 370 31 391 75 391 121 c 0xffc520
 391 174 362 230 308 252 c 0
 286 261 268 264 257 264 c 1
 255 248 241 235 224 235 c 0
 205 235 191 250 191 268 c 0
 191 287 206 301 224 301 c 0
 240 301 256 289 256 272 c 1
 280 278 326 280 359 322 c 0
 376 343 384 373 384 402 c 0
 384 465 345 529 265 529 c 0
 193 529 154 499 154 439 c 1
 180 439 l 1
 180 427 l 1
 52 427 l 1
 52 439 l 1
 78 439 l 1xff9540
 78 479 97 549 237 549 c 1
 237 568 231 586 215 605 c 0
 203 619 179 633 161 633 c 0
 153 633 145 630 141 623 c 1
 141 623 162 622 162 607 c 0
 162 597 155 585 145 585 c 0
 134 585 121 597 121 611 c 0xff8b
EndSplineSet
Validated: 1
Colour: ff00
EndChar

StartChar: uni0460
Encoding: 1120 1120 66
Width: 900
Flags: W
HStem: -129 52<415 467> -46 12<310.092 349.71 532.896 577.987> 0 14<213.512 275 608.083 673.726> 190 55<370.252 414.81 469.099 521.295> 207 6<656.006 667.754> 321 13<289.002 301.998 580.002 592.998> 335 13<305.002 317.998 564.002 576.998> 355 13<305.002 317.998 564.002 576.998> 380 22<278.5 310.884 573.116 605.5> 392 74<248.313 295.969 588.031 635.687> 535 15<222.137 296.278 587.599 661.505>
VStem: 4 88<155.053 393.768> 240 58<293.25 354.501 402.064 454.139> 240 18<279.725 325.474> 263 12<243.852 308.439> 275 13<-13.6655 0> 289 13<321.002 333.998> 305 13<335.002 347.998 355.002 367.998> 329 46<409.936 520.142> 435 13<-128.995 -75.844 186.901 188> 509 46<409.936 520.142> 564 13<335.002 347.998 355.002 367.998> 580 13<321.002 333.998> 586 58<297 354.409 410.345 454.139> 595 13<-13.5645 0> 609 12<242.753 308.5> 627 17<280.878 310.75> 647 27<370.082 391> 792 88<155.053 393.768>
DStem2: 361 31 351 25 0.749838 -0.661622<0 41.8145> 415 100 409 88 0.556175 -0.831065<6.63574 46.041> 488 3 498 -5 0.759257 0.650791<2.38624 45.4469>
AnchorPoint: "Yerok" 837.5 569.5 basechar 0
AnchorPoint: "Diacritic" 443 575 basechar 0
LayerCount: 2
Fore
SplineSet
646 426 m 0xffefe380
 646 395 618 380 587 380 c 0
 546 380 509 408 509 448 c 0
 509 538 560 550 630 550 c 0
 782 550 880 426 880 274 c 0
 880 122 782 0 630 0 c 0
 622 0 615 -1 608 0 c 1
 608 -16 590 -46 564 -46 c 0
 537 -46 512 -33 489 -14 c 1
 468 -37 448 -67 448 -109 c 0
 448 -114 447 -129 442 -129 c 0
 437 -129 435 -115 435 -109 c 0
 435 -67 415 -36 394 -14 c 1
 372 -33 346 -46 319 -46 c 0
 293 -46 275 -15 275 0 c 1
 268 0 261 0 254 0 c 0
 102 0 4 122 4 274 c 0
 4 426 102 550 254 550 c 0
 324 550 375 538 375 448 c 0
 375 408 338 380 297 380 c 0
 266 380 238 395 238 426 c 0
 238 449 254 466 271 466 c 0
 289 466 303 456 303 438 c 0
 303 436 303 433 302 430 c 0
 297 402 278 402 278 402 c 1
 282 402 329 403 329 451 c 2
 329 458 l 2
 329 503 312 535 262 535 c 0
 173 535 92 420 92 274 c 0
 92 131 154 14 252 14 c 0
 401 14 415 143 431 191 c 1
 428 193 425 195 422 198 c 0
 418 202 417 206 415 210 c 1
 412 200 401 190 389 190 c 0
 374 190 362 203 362 218 c 0
 362 233 374 245 389 245 c 0
 404 245 411 235 416 224 c 1
 417 231 424 239 431 242 c 1
 441 402 l 1
 445 402 l 1
 458 240 l 1
 464 237 467 231 468 224 c 1
 470 235 483 244 495 244 c 0
 510 244 522 232 522 217 c 0
 522 202 510 190 495 190 c 0
 482 190 471 198 469 210 c 1
 468 203 461 195 453 192 c 1
 469 143 483 14 632 14 c 0
 730 14 792 131 792 274 c 0
 792 420 710 535 622 535 c 0
 572 535 555 503 555 458 c 2
 555 451 l 2
 555 403 602 402 606 402 c 1
 606 402 587 402 582 430 c 0
 581 433 581 436 581 438 c 0
 581 456 595 466 613 466 c 0
 630 466 646 449 646 426 c 0xffefe380
577 362 m 0
 577 358 574 355 571 355 c 0
 567 355 564 358 564 362 c 0
 564 365 567 368 571 368 c 0
 574 368 577 365 577 362 c 0
577 342 m 0
 577 338 574 335 571 335 c 0
 567 335 564 338 564 342 c 0
 564 345 567 348 571 348 c 0
 574 348 577 345 577 342 c 0
593 328 m 0xffc3f180
 593 324 590 321 587 321 c 0
 583 321 580 324 580 328 c 0
 580 331 583 334 587 334 c 0
 590 334 593 331 593 328 c 0xffc3f180
305 362 m 0
 305 365 308 368 312 368 c 0
 315 368 318 365 318 362 c 0
 318 358 315 355 312 355 c 0
 308 355 305 358 305 362 c 0
305 342 m 0
 305 345 308 348 312 348 c 0
 315 348 318 345 318 342 c 0
 318 338 315 335 312 335 c 0
 308 335 305 338 305 342 c 0
289 328 m 0xffc7e180
 289 331 292 334 296 334 c 0
 299 334 302 331 302 328 c 0
 302 324 299 321 296 321 c 0
 292 321 289 324 289 328 c 0xffc7e180
479 -6 m 1
 465 8 452 24 441 39 c 1
 431 23 418 7 403 -6 c 1
 419 -23 434 -47 441 -77 c 1
 448 -47 463 -23 479 -6 c 1
409 88 m 1
 397 65 385 48 361 31 c 1
 394 3 l 1
 409 18 423 35 433 50 c 1
 409 88 l 1
468 101 m 1
 453 133 446 167 442 188 c 1
 438 167 432 133 415 100 c 1
 441 62 l 1
 468 101 l 1
523 32 m 1
 500 50 487 68 474 91 c 1
 449 50 l 1
 460 34 473 18 488 3 c 1
 523 32 l 1
595 0 m 1
 571 5 550 15 533 25 c 1
 498 -5 l 1
 517 -22 539 -34 561 -34 c 0
 581 -34 588 -12 595 0 c 1
351 25 m 1
 334 15 313 4 288 0 c 1
 295 -12 302 -34 322 -34 c 0
 345 -34 366 -22 385 -5 c 1
 351 25 l 1
298 348 m 0xffd3e180
 298 347 296 346 293 346 c 0
 286 346 268 350 249 361 c 1
 235 371 226 387 226 387 c 1
 226 387 227 380 235 371 c 1
 249 350 275 320 275 278 c 0
 275 267 273 256 269 243 c 0
 260 216 228 207 218 207 c 0
 216 207 215 207 215 208 c 0
 215 213 242 216 254 238 c 0
 261 250 263 263 263 274 c 0
 263 295 256 311 256 311 c 1
 256 311 260 297 252 284 c 0
 247 275 234 272 234 272 c 1xffebe180
 234 272 240 283 240 301 c 0
 240 342 210 369 210 393 c 0
 210 411 227 419 227 419 c 1
 227 419 233 398 237 391 c 0
 256 362 298 356 298 348 c 0xffd3e180
591 346 m 0
 588 346 586 347 586 348 c 0
 586 356 628 362 647 391 c 0
 651 398 657 419 657 419 c 1
 657 419 674 411 674 393 c 0
 674 369 644 342 644 301 c 0xffc3e980
 644 283 650 272 650 272 c 1
 650 272 637 275 632 284 c 0
 624 297 628 311 628 311 c 1
 628 311 621 295 621 274 c 0
 621 263 623 250 630 238 c 0
 642 216 669 213 669 208 c 0
 669 207 668 207 666 207 c 0
 656 207 624 216 615 243 c 0
 611 256 609 267 609 278 c 0xffc3e780
 609 320 635 350 649 371 c 1
 657 380 658 387 658 387 c 1
 658 387 649 371 635 361 c 1
 616 350 598 346 591 346 c 0
EndSplineSet
Validated: 1
Substitution2: "'ss01' Style Set Simple Forms-1" uni0460.simple
Colour: ff00
EndChar

StartChar: uni0460.simple
Encoding: 62816 62816 67
Width: 530
GlyphClass: 2
Flags: W
HStem: 0 18<147.078 191.253 314.4 357.278> 530 20G<6 87 215 291 419 500>
VStem: 6 81<305.179 550> 216 73<152.452 550> 419 81<305.179 550>
AnchorPoint: "Yerok" 462 577 basechar 0
AnchorPoint: "Diacritic" 254 575 basechar 0
LayerCount: 2
Fore
SplineSet
289 255 m 0
 289 98 295 18 334 18 c 0
 386 18 419 103 419 550 c 1
 500 550 l 1
 500 231 449 0 331 0 c 0
 299 0 273 62 253 151 c 1
 233 62 207 0 175 0 c 0
 57 0 6 231 6 550 c 1
 87 550 l 1
 87 100 120 18 173 18 c 0
 210 18 216 107 216 284 c 0
 216 358 215 446 215 550 c 1
 291 550 l 1
 291 432 289 334 289 255 c 0
EndSplineSet
Validated: 1
Colour: ff00
EndChar

StartChar: uni047C
Encoding: 1148 1148 68
Width: 900
Flags: W
HStem: -129 52<415 467> -46 12<310.092 349.71 532.896 577.987> 0 14<213.512 275 608.083 673.726> 190 55<370.251 414.936 469.099 514.265> 207 6<656.006 667.754> 321 13<289.002 301.998 580.002 592.998> 335 13<305.002 317.998 564.002 576.998> 355 13<305.002 317.998 564.002 576.998> 380 22<278.5 310.884 573.116 605.5> 392 74<248.313 295.969 588.031 635.687> 535 15<222.137 296.278 587.599 661.505> 608 15<534.458 604.235> 636 29<367.025 429.603> 650 46<586.022 620.773> 674 47<315.32 348.947> 748 16<330.071 400.899>
VStem: 4 88<155.053 393.768> 240 18<279.725 325.474> 263 12<243.852 308.439> 275 13<-13.6655 0> 289 13<321.002 333.998> 294 55<683.285 719.141> 305 13<335.002 347.998 355.002 367.998> 329 46<409.936 520.142> 348 11<587.703 623.865> 435 13<-128.995 -75.844 186.901 188> 440 16<163.049 188 580.5 618.617> 441 4<314.231 402> 509 46<409.936 520.142> 564 13<335.002 347.998 355.002 367.998> 580 13<321.002 333.998> 595 13<-13.5645 0> 609 12<242.753 308.5> 627 23<280.878 307.314> 627 17<279.5 310.75 643.252 653> 647 27<370.082 391> 792 88<155.053 393.768>
DStem2: 361 31 351 25 0.749838 -0.661622<0 41.8145> 415 100 409 88 0.56231 -0.826927<6.54926 46.0433> 488 3 498 -5 0.759257 0.650791<2.38624 45.4469>
AnchorPoint: "Yerok" 834.5 576.7 basechar 0
AnchorPoint: "Diacritic" 437 793 basechar 0
LayerCount: 2
Fore
SplineSet
394 636 m 0xffe701b060
 377 636 358 626 358 605 c 0
 358 599 359 595 359 591 c 0
 359 588 358 586 355 586 c 1
 355 586 348 592 348 607 c 0
 348 635 366 665 399 665 c 0
 429 665 456 645 456 613 c 0
 456 610 456 606 455 602 c 0
 450 574 439 572 435 572 c 0
 427 572 442 583 440 597 c 1
 440 621 416 636 394 636 c 0xffe701b060
641 662 m 0xffd7003160
 641 623 605 608 568 608 c 0
 482 608 464 696 407 737 c 0
 396 745 381 748 366 748 c 0
 341 748 317 738 315 719 c 1
 315 719 321 721 329 721 c 0xffcf023160
 338 721 349 717 349 698 c 0
 349 682 339 674 325 674 c 0
 310 674 294 685 294 709 c 0
 294 749 333 764 370 764 c 0
 453 764 469 677 528 634 c 0
 539 626 554 623 569 623 c 0
 594 623 621 633 621 653 c 1xffcf083160
 621 653 614 650 606 650 c 0
 596 650 586 654 586 673 c 0xffd7003460
 586 688 596 696 609 696 c 0xffd7003260
 624 696 641 685 641 662 c 0xffd7003160
591 346 m 0
 588 346 586 347 586 348 c 0
 586 356 628 362 647 391 c 0
 651 398 657 419 657 419 c 1
 657 419 674 411 674 393 c 0
 674 369 644 342 644 301 c 0xffc7003460
 644 283 650 272 650 272 c 1
 650 272 637 275 632 284 c 0
 624 297 628 311 628 311 c 1
 628 311 621 295 621 274 c 0
 621 263 623 250 630 238 c 0
 642 216 669 213 669 208 c 0
 669 207 668 207 666 207 c 0
 656 207 624 216 615 243 c 0
 611 256 609 267 609 278 c 0xffc70032e0
 609 320 635 350 649 371 c 1
 657 380 658 387 658 387 c 1
 658 387 649 371 635 361 c 1
 616 350 598 346 591 346 c 0
298 348 m 0xffc7403060
 298 347 296 346 293 346 c 0
 286 346 268 350 249 361 c 1
 235 371 226 387 226 387 c 1
 226 387 227 380 235 371 c 1
 249 350 275 320 275 278 c 0
 275 267 273 256 269 243 c 0
 260 216 228 207 218 207 c 0
 216 207 215 207 215 208 c 0
 215 213 242 216 254 238 c 0
 261 250 263 263 263 274 c 0
 263 295 256 311 256 311 c 1
 256 311 260 297 252 284 c 0
 247 275 234 272 234 272 c 1xffc7a03060
 234 272 240 283 240 301 c 0
 240 342 210 369 210 393 c 0
 210 411 227 419 227 419 c 1
 227 419 233 398 237 391 c 0
 256 362 298 356 298 348 c 0xffc7403060
351 25 m 1
 334 15 313 4 288 0 c 1
 295 -12 302 -34 322 -34 c 0
 345 -34 366 -22 385 -5 c 1
 351 25 l 1
522 217 m 0
 522 202 510 190 496 190 c 0
 483 190 471 198 469 210 c 1
 468 203 461 195 453 192 c 1
 469 143 483 14 632 14 c 0
 730 14 792 131 792 274 c 0
 792 420 710 535 622 535 c 0
 572 535 555 503 555 458 c 0
 555 456 555 453 555 451 c 0
 555 403 602 402 606 402 c 1
 606 402 587 402 582 430 c 0
 581 433 581 436 581 438 c 0
 581 456 595 466 613 466 c 0
 630 466 646 449 646 426 c 0
 646 395 618 380 587 380 c 0
 546 380 509 408 509 448 c 0
 509 538 560 550 630 550 c 0
 782 550 880 426 880 274 c 0
 880 122 782 0 630 0 c 0
 622 0 615 -1 608 0 c 1
 608 -16 590 -46 564 -46 c 0
 537 -46 512 -33 489 -14 c 1
 468 -37 448 -67 448 -109 c 0
 448 -114 447 -129 442 -129 c 0
 437 -129 435 -115 435 -109 c 0
 435 -67 415 -36 394 -14 c 1
 372 -33 346 -46 319 -46 c 0
 293 -46 275 -15 275 0 c 1
 268 0 261 0 254 0 c 0
 102 0 4 122 4 274 c 0
 4 426 102 550 254 550 c 0
 324 550 375 538 375 448 c 0
 375 408 338 380 297 380 c 0
 266 380 238 395 238 426 c 0
 238 449 254 466 271 466 c 0
 289 466 303 456 303 438 c 0
 303 436 303 433 302 430 c 0
 297 402 278 402 278 402 c 1
 282 402 329 403 329 451 c 0
 329 453 329 456 329 458 c 0
 329 503 312 535 262 535 c 0
 173 535 92 420 92 274 c 0
 92 131 154 14 252 14 c 0
 401 14 415 143 431 191 c 1
 428 193 425 195 422 198 c 0
 418 202 417 206 415 210 c 1
 412 199 400 190 388 190 c 0
 374 190 362 203 362 218 c 0
 362 233 374 245 389 245 c 0
 404 245 411 235 416 224 c 1
 417 231 424 237 431 240 c 1
 441 402 l 1
 445 402 l 1xffc7b270e0
 458 239 l 1
 464 236 467 231 468 224 c 1
 470 235 483 244 496 244 c 0
 511 244 522 231 522 217 c 0
595 0 m 1
 571 5 550 15 533 25 c 1
 498 -5 l 1
 517 -22 539 -34 561 -34 c 0
 581 -34 588 -12 595 0 c 1
523 32 m 1
 500 50 487 68 474 91 c 1
 449 50 l 1
 460 34 473 18 488 3 c 1
 523 32 l 1
468 101 m 1
 453 133 446 167 442 188 c 1
 438 167 432 133 415 100 c 1
 441 62 l 1
 468 101 l 1
409 88 m 1
 397 65 385 48 361 31 c 1
 394 3 l 1
 409 18 423 35 433 50 c 1
 409 88 l 1
479 -6 m 1
 465 8 452 24 441 39 c 1
 431 23 418 7 403 -6 c 1
 419 -23 434 -47 441 -77 c 1
 448 -47 463 -23 479 -6 c 1
289 328 m 0
 289 331 292 334 296 334 c 0
 299 334 302 331 302 328 c 0
 302 324 299 321 296 321 c 0
 292 321 289 324 289 328 c 0
305 342 m 0xffc7043060
 305 345 308 348 312 348 c 0
 315 348 318 345 318 342 c 0
 318 338 315 335 312 335 c 0
 308 335 305 338 305 342 c 0xffc7043060
305 362 m 0
 305 365 308 368 312 368 c 0
 315 368 318 365 318 362 c 0
 318 358 315 355 312 355 c 0
 308 355 305 358 305 362 c 0
593 328 m 0xffc7003860
 593 324 590 321 587 321 c 0
 583 321 580 324 580 328 c 0
 580 331 583 334 587 334 c 0
 590 334 593 331 593 328 c 0xffc7003860
577 342 m 0
 577 338 574 335 571 335 c 0
 567 335 564 338 564 342 c 0
 564 345 567 348 571 348 c 0
 574 348 577 345 577 342 c 0
577 362 m 0
 577 358 574 355 571 355 c 0
 567 355 564 358 564 362 c 0
 564 365 567 368 571 368 c 0
 574 368 577 365 577 362 c 0
EndSplineSet
Validated: 1
LCarets2: 2 0 0
Substitution2: "'ss01' Style Set Simple Forms-1" uni047C.simple
Ligature2: "'ccmp' Canonical Compositions-1" uniA64C uni0486 uni0311
Colour: ff00
EndChar

StartChar: uni047E.simple
Encoding: 62846 62846 69
Width: 530
GlyphClass: 2
Flags: W
HStem: 0 18<147.078 191.224 313.282 357.278> 530 20G<6 87 215 291 419 500> 578 109<214 291> 675 12<131.536 214 291 364.464>
VStem: 6 81<305.179 550> 82 22<602.173 654.335> 215 76<153.547 550 578 675> 392 23<604.356 654.289> 419 81<305.179 550>
AnchorPoint: "Yerok" 255 711.3 basechar 0
AnchorPoint: "Diacritic" 254 713 basechar 0
LayerCount: 2
Fore
SplineSet
289 255 m 0xcb80
 289 98 295 18 334 18 c 0
 386 18 419 103 419 550 c 1
 500 550 l 1
 500 231 449 0 331 0 c 0
 299 0 273 62 253 151 c 1
 233 62 207 0 175 0 c 0
 57 0 6 231 6 550 c 1
 87 550 l 1
 87 100 120 18 173 18 c 0
 210 18 216 107 216 284 c 0
 216 358 215 446 215 550 c 1
 291 550 l 1
 291 432 289 334 289 255 c 0xcb80
109 595 m 0
 98 595 81 614 81 633 c 0xd780
 81 645 87 652 87 652 c 1
 36 687 l 1
 460 687 l 1
 409 652 l 1
 409 652 414 645 414 633 c 0
 414 628 413 622 410 615 c 0
 404 601 393 595 387 595 c 0
 373 595 392 601 392 621 c 0
 392 653 377 675 331 675 c 2
 291 675 l 1xdb80
 291 578 l 1
 214 578 l 1xeb80
 214 675 l 1
 165 675 l 2
 119 675 104 653 104 621 c 0xd780
 104 600 119 600 112 596 c 0
 111 596 110 595 109 595 c 0
EndSplineSet
Validated: 1
Colour: ff00
EndChar

StartChar: uni042C
Encoding: 1068 1068 70
Width: 410
Flags: W
HStem: 0 12<0 26 102 290 319.731 356.69> 42 32.5<350.332 369.968> 331 32<209.082 236.75> 345 8<138.5 172.803> 368 10<126.994 169.474> 394 11<135.328 212.954> 413 11<191.012 201.987> 426 11<152.938 186.453 196.013 206.988> 439 10<189.001 199.999> 538 12<0 26 102 128> 568 10<174.707 209.804>
VStem: 26 76<12 338 361 385.855 389 414.332 419 538> 161.5 3<530.208 532.643> 173 12<478.277 508.738> 189 11<439.001 448.989> 191 11<413.001 423.989 428.966 434.417> 237 15<360 378.652> 370 22<20.1393 42.439>
DStem2: 295 124.5 222 170 0.274721 -0.961524<-126.612 85.0146>
AnchorPoint: "Yerok" 68.5 578.469 basechar 0
AnchorPoint: "Diacritic" 66 578 basechar 0
LayerCount: 2
Fore
SplineSet
189 444 m 0xcfff80
 189 447 191 449 194 449 c 0
 197 449 200 447 200 444 c 0
 200 441 197 439 194 439 c 0
 191 439 189 441 189 444 c 0xcfff80
196 432 m 0
 196 435 199 437 202 437 c 0
 205 437 207 435 207 432 c 0
 207 429 205 426 202 426 c 0
 199 426 196 429 196 432 c 0
191 419 m 0
 191 422 193 424 196 424 c 0
 199 424 202 422 202 419 c 0
 202 416 199 413 196 413 c 0
 193 413 191 416 191 419 c 0
290 12 m 1
 263 26 241 51 237 86 c 0
 230 143 231 164 192 231 c 0
 153 298 102 338 102 338 c 1
 102 12 l 1
 290 12 l 1
371 77 m 0
 383 77 391 68 391 51 c 0
 391 24 371 0 342 0 c 2
 0 0 l 1
 0 12 l 1
 26 12 l 1
 26 538 l 1
 0 538 l 1
 0 550 l 1
 128 550 l 1
 128 538 l 1
 102 538 l 1
 102 419 l 1
 127 427 169 467 173 496 c 0
 174 505 173 511 173 511 c 1
 173 511 185 509 185 490 c 0
 185 478 181 472 181 472 c 1
 181 472 225 506 225 536 c 0
 225 555 210 568 193 568 c 0
 181 568 173 563 168 553 c 0
 159 535 171 527 165 529 c 0
 159 532 157 537 157 544 c 0
 157 564 170 575 191 575 c 0
 204 575 217 574 226 565 c 0
 233 557 236 546 236 535 c 0
 236 532 235 528 235 524 c 0
 235 484 145 430 145 430 c 1
 145 430 164 436 177 436 c 0
 182 436 188 434 188 431 c 0
 188 424 150 429 127 417 c 0
 124 415 113 408 102 402 c 1
 102 389 l 1
 118 400 154 406 179 406 c 0
 214 406 251 389 251 356 c 0
 251 340 239 331 224 331 c 0
 216 331 209 335 209 345 c 0
 209 360 217 363 224 363 c 0xefff80
 231 363 237 360 237 360 c 1
 237 384 201 394 175 394 c 0
 159 394 116 387 102 377 c 1
 102 361 l 1
 109 368 131 378 149 378 c 0
 162 378 171 375 171 372 c 0
 171 366 148 369 133 365 c 0
 121 362 112 356 107 352 c 1
 111 348 113 347 119 341 c 1
 119 341 133 349 142 351 c 0
 148 352 154 353 159 353 c 0
 167 353 173 351 173 348 c 0
 173 345 172 344 171 344 c 0
 168 344 165 346 160 346 c 0xdfff80
 156 346 150 345 144 342 c 0
 143 342 129 335 128 333 c 1
 170 307 221 284 275 186 c 0
 299 142 294 109 303 84 c 0
 312 58 332 46 332 46 c 1
 332 46 322 44 313 50 c 0
 306 55 299 62 299 62 c 1
 299 62 300 29 316 20 c 0
 323 16 331 14 339 14 c 0
 355 14 370 23 370 42 c 1
 370 42 369 42 367 42 c 0
 363 42 350 44 350 63 c 0
 350 70 360 77 371 77 c 0
EndSplineSet
Validated: 1
Substitution2: "'ss01' Style Set Simple Forms-1" uni042C.simple
Colour: ff00
EndChar

StartChar: uni042C.simple
Encoding: 62508 62508 71
Width: 410
GlyphClass: 2
Flags: W
HStem: 0 12<0 26 102 290 320.068 355.61> 42 35<350.159 370> 538 12<0 26 102 128>
VStem: 26 76<12 368 376.674 538> 370 21<21.7357 42>
AnchorPoint: "Yerok" 70.5 577 basechar 0
AnchorPoint: "Diacritic" 69 577 basechar 0
LayerCount: 2
Fore
SplineSet
290 12 m 1
 263 26 241 51 237 86 c 0
 230 143 231 170 196 239 c 0
 159 312 102 368 102 368 c 1
 102 12 l 1
 290 12 l 1
371 77 m 0
 383 77 391 68 391 51 c 0
 391 24 371 0 342 0 c 2
 0 0 l 1
 0 12 l 1
 26 12 l 1
 26 538 l 1
 0 538 l 1
 0 550 l 1
 128 550 l 1
 128 538 l 1
 102 538 l 1
 102 391 l 1
 180 337 245 282 281 200 c 0
 301 154 294 109 303 84 c 0
 312 58 332 46 332 46 c 1
 332 46 322 44 313 50 c 0
 306 55 299 62 299 62 c 1
 299 62 300 29 316 20 c 0
 323 16 331 14 339 14 c 0
 355 14 370 23 370 42 c 1
 370 42 369 42 367 42 c 0
 363 42 350 44 350 63 c 0
 350 70 360 77 371 77 c 0
EndSplineSet
Validated: 1
Colour: ff00
EndChar

StartChar: uni0419
Encoding: 1049 1049 72
Width: 525
Flags: W
HStem: -2 14<108.809 177.43 358.809 427.43> 72 56<77.4371 124.233 327.437 374.233> 132 13<125.002 137.998> 152 13<125.002 137.998> 166 13<109.002 121.998> 268 14<29.3726 79.6917> 534 20<235.908 249 485.908 499> 572 18<295.432 381.894> 619 43<359.005 395.719>
VStem: 1 12<211.516 251.686> 55 21<35.2482 79.7801> 96 14<197.223 250.282> 109 13<166.002 178.998> 125 13<132.002 144.998 152.002 164.998> 131 80<298.16 518.698> 167 40<79.0337 135.443> 215 36<46.6323 125> 241 7.5<638.375 656.245> 266 64<349.806 409.13> 305 21<35.2482 79.7801> 359 56<622.052 659.326> 381 80<224.751 489.839> 417 40<79.0337 135.443> 465 36<46.6323 125>
DStem2: 221 281 149 242 0.206705 -0.978403<-1.17368 137.955>
AnchorPoint: "Yerok" 461.5 615.6 basechar 0
AnchorPoint: "Diacritic" 336 713 basechar 0
LayerCount: 2
Fore
SplineSet
125 139 m 0xff924080
 125 142 128 145 132 145 c 0
 135 145 138 142 138 139 c 0
 138 135 135 132 132 132 c 0
 128 132 125 135 125 139 c 0xff924080
125 159 m 0
 125 162 128 165 132 165 c 0
 135 165 138 162 138 159 c 0
 138 155 135 152 132 152 c 0
 128 152 125 155 125 159 c 0
109 173 m 0xff944080
 109 176 112 179 116 179 c 0
 119 179 122 176 122 173 c 0
 122 169 119 166 116 166 c 0
 112 166 109 169 109 173 c 0xff944080
500 125 m 0
 500 119 501 114 501 108 c 0
 501 60 480 39 455 18 c 0
 436 2 415 -2 394 -2 c 0
 385 -2 375 -1 366 0 c 0
 326 6 305 31 305 79 c 0
 305 109 326 128 349 128 c 0
 354 128 359 127 364 125 c 0
 377 120 383 109 383 98 c 0
 383 91 381 85 375 80 c 0
 368 74 360 72 353 72 c 0
 339 72 327 80 327 80 c 1
 327 80 326 76 326 71 c 0
 326 57 330 31 356 20 c 0
 368 15 380 12 393 12 c 0
 412 12 432 19 448 35 c 0
 461 48 465 67 465 86 c 0
 465 112 457 136 457 136 c 1
 457 136 456 108 438 80 c 0
 427 62 404 47 389 47 c 0
 387 47 l 0
 387 48 417 57 417 124 c 0xff905180
 417 141 415 163 410 189 c 0
 393 274 381 300 381 382 c 0
 381 410 384 438 388 463 c 1
 372 460 353 453 335 443 c 0
 315 431 311 418 306 410 c 1
 314 407 321 403 326 394 c 0xff905480
 329 389 330 386 330 382 c 0
 330 377 328 372 325 364 c 0
 310 320 266 290 221 281 c 1
 230 227 245 183 250 125 c 0
 250 119 251 114 251 108 c 0
 251 60 230 39 205 18 c 0
 186 2 165 -2 144 -2 c 0
 135 -2 125 -1 116 0 c 0
 76 6 55 31 55 79 c 0
 55 109 76 128 99 128 c 0
 104 128 109 127 114 125 c 0
 127 120 133 109 133 98 c 0
 133 91 131 85 125 80 c 0
 118 74 110 72 103 72 c 0
 89 72 77 80 77 80 c 1
 77 80 76 76 76 71 c 0
 76 57 80 31 106 20 c 0
 118 15 130 12 143 12 c 0
 162 12 182 19 198 35 c 0
 211 48 215 67 215 86 c 0
 215 112 207 136 207 136 c 1
 207 136 206 108 188 80 c 0
 177 62 154 47 139 47 c 0
 137 47 l 0
 137 48 167 57 167 124 c 0xff92e080
 167 141 165 163 160 189 c 0
 143 274 131 300 131 382 c 0
 131 447 146 516 162 536 c 0
 173 550 195 554 214 554 c 0
 233 554 249 550 249 550 c 1
 264 545 258 532 250 534 c 0
 248 534 l 0
 224 534 211 419 211 382 c 0
 211 350 214 322 218 297 c 1
 231 301 246 307 261 316 c 0
 281 328 285 341 290 349 c 1
 282 352 275 356 270 365 c 0
 267 370 266 374 266 377 c 0
 266 383 268 388 271 395 c 0
 282 423 297 439 320 455 c 0
 343 472 374 478 391 480 c 1
 397 506 405 526 412 536 c 0
 423 550 445 554 464 554 c 0
 483 554 499 550 499 550 c 1
 506 548 508 544 508 541 c 0
 508 536 504 533 500 534 c 0
 498 534 l 0
 474 534 461 419 461 382 c 0xff916480
 461 273 492 216 500 125 c 0
115 151 m 0
 115 143 84 147 59 123 c 0
 53 117 47 99 47 99 c 1
 47 99 28 107 27 125 c 0
 27 126 27 128 27 129 c 0
 27 160 50 175 50 200 c 0
 50 201 l 0
 50 213 44 219 44 219 c 1
 44 219 44 219 45 219 c 0
 49 219 62 218 71 196 c 0
 76 183 74 173 74 173 c 1
 74 173 96 196 96 224 c 0
 96 230 95 237 92 244 c 0
 86 261 70 268 54 268 c 0
 35 268 16 257 13 237 c 0
 13 235 13 233 13 231 c 0xffb84080
 13 213 23 207 23 205 c 0
 23 205 22 205 21 205 c 0
 7 205 1 221 1 236 c 0
 1 241 2 247 4 252 c 0
 11 271 33 282 56 282 c 0
 64 282 73 281 80 277 c 0
 97 269 110 250 110 231 c 0xffd84080
 110 204 102 189 87 169 c 0
 80 160 68 151 61 145 c 0
 53 137 50 129 50 129 c 1
 50 129 61 143 78 150 c 0
 91 155 99 157 105 157 c 0
 111 157 115 155 115 151 c 0
243 658 m 0
 250 658 248 614 305 596 c 0
 317 592 330 590 342 590 c 0
 370 590 395 601 396 623 c 1xff905280
 396 623 387 619 379 619 c 0
 369 619 359 624 359 644 c 0
 359 657 368 662 379 662 c 0
 395 662 413 651 415 634 c 0
 415 632 415 629 415 627 c 0xff904880
 415 589 375 572 337 572 c 0
 260 572 241 630 241 651 c 0
 241 655 242 658 243 658 c 0
EndSplineSet
Validated: 1
LCarets2: 1 0
Substitution2: "'ss01' Style Set Simple Forms-1" uni0419.simple
Ligature2: "'ccmp' Canonical Compositions-1" uni0418 uni0306
Colour: ff00
EndChar

